<?xml version="1.0" encoding="UTF-8"?>
<svg id="Layer_1" xmlns="http://www.w3.org/2000/svg" version="1.1" viewBox="0 0 256 256">
  <!-- Generator: Adobe Illustrator 29.6.1, SVG Export Plug-In . SVG Version: 2.1.1 Build 9)  -->
  <defs>
    <style>
      .st0 {
        fill: #3f9a3b;
      }

      .st1 {
        fill: #4fae4a;
      }

      .st2 {
        fill: none;
        stroke: #000;
        stroke-miterlimit: 10;
      }

      .st3 {
        opacity: .9;
      }

      .st4 {
        opacity: .75;
      }

      .st5 {
        fill: #6bcb62;
      }
    </style>
  </defs>
  <g>
    <polygon class="st1" points="-1.35 -1.43 7.32 1.52 14.43 2.38 21.54 -1.57 28.65 -1.15 35.76 1.56 42.87 .03 49.98 -.1 57.08 -1.97 64.19 1.53 71.3 -.33 78.41 1.08 85.51 -.75 92.62 1.39 99.73 .17 106.84 .64 113.95 -1.57 121.06 -1.06 128.17 -2.05 135.28 2.57 142.39 -1.71 149.5 -1.3 156.61 2.32 163.73 1.68 170.84 -2.42 177.95 -1.78 185.06 1.23 192.18 -.31 199.29 -1.59 206.4 -1.56 213.51 1.83 220.62 -.27 227.74 .86 234.85 .2 241.97 .72 249.09 1.72 254.6 1.73 253.72 7.23 258.41 14.34 253.67 21.45 254.13 28.56 254.94 35.67 254.66 42.78 257.51 49.89 253.97 57 258.63 64.1 256.53 71.21 257.45 78.32 255.53 85.43 256.1 92.53 257.9 99.64 257.4 106.75 257.6 113.86 255.99 120.97 255 128.08 256.1 135.19 254.36 142.3 256.1 149.41 256.36 156.53 256.42 163.64 258.15 170.75 253.86 177.86 255.15 184.98 256.49 192.09 254.48 199.2 256.72 206.31 257.75 213.42 256.73 220.54 255.71 227.65 255.94 234.76 254.49 241.88 257.91 249 254.66 254.57 249.1 258.03 241.99 257.05 234.88 253.68 227.77 255.3 220.66 256.17 213.55 258.46 206.44 254.49 199.33 256.67 192.23 254.93 185.12 254.06 178.01 258.18 170.91 255.84 163.8 257.42 156.69 257.49 149.58 256.6 142.47 258.48 135.36 256.63 128.25 255.54 121.14 254.84 114.03 254.35 106.92 256.62 99.81 254.91 92.69 258.28 85.58 254.86 78.47 253.79 71.36 258.25 64.24 256.32 57.13 256.68 50.02 254.58 42.91 255.55 35.79 254.79 28.68 254.21 21.57 255.01 14.45 257.84 7.33 258.07 -.95 257.28 -1.81 249.01 1.94 241.9 -1.52 234.79 .36 227.68 1.38 220.57 -2.18 213.46 -1.47 206.35 -2.12 199.25 1.27 192.14 -.49 185.04 -1.46 177.93 1.41 170.82 -.48 163.71 -1.31 156.6 -1.32 149.49 -1.04 142.38 -2.25 135.27 -2.13 128.16 .84 121.05 -.12 113.94 -.77 106.83 -.35 99.72 2.11 92.61 2.69 85.49 -1.58 78.38 -.05 71.27 -.28 64.16 -.19 57.05 2.34 49.93 -1.03 42.82 -1.04 35.71 .92 28.59 2.47 21.48 .49 14.37 -2.31 7.49 -1.35 -1.43"/>
    <polygon class="st2" points="-1.35 -1.43 7.32 1.52 14.43 2.38 21.54 -1.57 28.65 -1.15 35.76 1.56 42.87 .03 49.98 -.1 57.08 -1.97 64.19 1.53 71.3 -.33 78.41 1.08 85.51 -.75 92.62 1.39 99.73 .17 106.84 .64 113.95 -1.57 121.06 -1.06 128.17 -2.05 135.28 2.57 142.39 -1.71 149.5 -1.3 156.61 2.32 163.73 1.68 170.84 -2.42 177.95 -1.78 185.06 1.23 192.18 -.31 199.29 -1.59 206.4 -1.56 213.51 1.83 220.62 -.27 227.74 .86 234.85 .2 241.97 .72 249.09 1.72 254.6 1.73 253.72 7.23 258.41 14.34 253.67 21.45 254.13 28.56 254.94 35.67 254.66 42.78 257.51 49.89 253.97 57 258.63 64.1 256.53 71.21 257.45 78.32 255.53 85.43 256.1 92.53 257.9 99.64 257.4 106.75 257.6 113.86 255.99 120.97 255 128.08 256.1 135.19 254.36 142.3 256.1 149.41 256.36 156.53 256.42 163.64 258.15 170.75 253.86 177.86 255.15 184.98 256.49 192.09 254.48 199.2 256.72 206.31 257.75 213.42 256.73 220.54 255.71 227.65 255.94 234.76 254.49 241.88 257.91 249 254.66 254.57 249.1 258.03 241.99 257.05 234.88 253.68 227.77 255.3 220.66 256.17 213.55 258.46 206.44 254.49 199.33 256.67 192.23 254.93 185.12 254.06 178.01 258.18 170.91 255.84 163.8 257.42 156.69 257.49 149.58 256.6 142.47 258.48 135.36 256.63 128.25 255.54 121.14 254.84 114.03 254.35 106.92 256.62 99.81 254.91 92.69 258.28 85.58 254.86 78.47 253.79 71.36 258.25 64.24 256.32 57.13 256.68 50.02 254.58 42.91 255.55 35.79 254.79 28.68 254.21 21.57 255.01 14.45 257.84 7.33 258.07 -.95 257.28 -1.81 249.01 1.94 241.9 -1.52 234.79 .36 227.68 1.38 220.57 -2.18 213.46 -1.47 206.35 -2.12 199.25 1.27 192.14 -.49 185.04 -1.46 177.93 1.41 170.82 -.48 163.71 -1.31 156.6 -1.32 149.49 -1.04 142.38 -2.25 135.27 -2.13 128.16 .84 121.05 -.12 113.94 -.77 106.83 -.35 99.72 2.11 92.61 2.69 85.49 -1.58 78.38 -.05 71.27 -.28 64.16 -.19 57.05 2.34 49.93 -1.03 42.82 -1.04 35.71 .92 28.59 2.47 21.48 .49 14.37 -2.31 7.49 -1.35 -1.43"/>
  </g>
  <g class="st3">
    <g>
      <rect class="st0" x="11" y="12" width="8" height="8"/>
      <rect class="st0" x="43" y="24" width="8" height="8"/>
      <rect class="st0" x="75" y="16" width="8" height="8"/>
      <rect class="st0" x="107" y="32" width="8" height="8"/>
      <rect class="st0" x="139" y="20" width="8" height="8"/>
      <rect class="st0" x="171" y="36" width="8" height="8"/>
      <rect class="st0" x="203" y="18" width="8" height="8"/>
      <rect class="st0" x="227" y="30" width="8" height="8"/>
      <rect class="st0" x="23" y="76" width="8" height="8"/>
      <rect class="st0" x="59" y="60" width="8" height="8"/>
      <rect class="st0" x="91" y="84" width="8" height="8"/>
      <rect class="st0" x="123" y="72" width="8" height="8"/>
      <rect class="st0" x="159" y="64" width="8" height="8"/>
      <rect class="st0" x="191" y="80" width="8" height="8"/>
      <rect class="st0" x="223" y="72" width="8" height="8"/>
      <rect class="st0" x="15" y="136" width="8" height="8"/>
      <rect class="st0" x="47" y="148" width="8" height="8"/>
      <rect class="st0" x="87" y="132" width="8" height="8"/>
      <rect class="st0" x="119" y="156" width="8" height="8"/>
      <rect class="st0" x="151" y="140" width="8" height="8"/>
      <rect class="st0" x="179" y="152" width="8" height="8"/>
      <rect class="st0" x="211" y="136" width="8" height="8"/>
      <rect class="st0" x="235" y="152" width="8" height="8"/>
      <rect class="st0" x="31" y="212" width="8" height="8"/>
      <rect class="st0" x="67" y="200" width="8" height="8"/>
      <rect class="st0" x="95" y="220" width="8" height="8"/>
      <rect class="st0" x="131" y="204" width="8" height="8"/>
      <rect class="st0" x="163" y="224" width="8" height="8"/>
      <rect class="st0" x="195" y="206" width="8" height="8"/>
      <rect class="st0" x="223" y="226" width="8" height="8"/>
    </g>
    <g class="st4">
      <rect class="st5" x="27" y="16" width="8" height="8"/>
      <rect class="st5" x="63" y="28" width="8" height="8"/>
      <rect class="st5" x="95" y="20" width="8" height="8"/>
      <rect class="st5" x="127" y="40" width="8" height="8"/>
      <rect class="st5" x="159" y="24" width="8" height="8"/>
      <rect class="st5" x="191" y="44" width="8" height="8"/>
      <rect class="st5" x="219" y="22" width="8" height="8"/>
      <rect class="st5" x="39" y="92" width="8" height="8"/>
      <rect class="st5" x="79" y="72" width="8" height="8"/>
      <rect class="st5" x="111" y="96" width="8" height="8"/>
      <rect class="st5" x="147" y="84" width="8" height="8"/>
      <rect class="st5" x="179" y="100" width="8" height="8"/>
      <rect class="st5" x="207" y="88" width="8" height="8"/>
      <rect class="st5" x="27" y="168" width="8" height="8"/>
      <rect class="st5" x="63" y="156" width="8" height="8"/>
      <rect class="st5" x="99" y="172" width="8" height="8"/>
      <rect class="st5" x="135" y="160" width="8" height="8"/>
      <rect class="st5" x="167" y="176" width="8" height="8"/>
      <rect class="st5" x="199" y="164" width="8" height="8"/>
      <rect class="st5" x="55" y="232" width="8" height="8"/>
      <rect class="st5" x="119" y="232" width="8" height="8"/>
      <rect class="st5" x="183" y="236" width="8" height="8"/>
    </g>
  </g>
</svg>