<?xml version="1.0" encoding="UTF-8"?>
<svg xmlns="http://www.w3.org/2000/svg" version="1.1" viewBox="0 0 256 256">
  <!-- Generator: Adobe Illustrator 29.6.1, SVG Export Plug-In . SVG Version: 2.1.1 Build 9)  -->
  <defs>
    <style>
      .st0 {
        fill: #6b3f22;
      }

      .st1 {
        fill: #c7ad7a;
      }

      .st2 {
        fill: #3f9a3b;
      }

      .st3 {
        fill: #2e7d32;
      }

      .st4 {
        fill: #1f5a24;
      }

      .st5 {
        fill: #4fae4a;
      }

      .st6 {
        fill: #9b66a3;
      }

      .st7 {
        fill: none;
        stroke: #000;
        stroke-miterlimit: 10;
      }

      .st8 {
        opacity: .9;
      }

      .st9 {
        opacity: .75;
      }

      .st10 {
        fill: #f5e7c9;
      }

      .st11 {
        fill: #6bcb62;
      }
    </style>
  </defs>
  <g id="Layer_1" shape-rendering="crispEdges">
    <g>
      <polygon class="st5" points="-1.55 -1.55 7.11 1.4 14.22 2.26 21.33 -1.69 28.44 -1.28 35.55 1.44 42.66 -.1 49.77 -.22 56.87 -2.09 63.98 1.41 71.09 -.45 78.2 .95 85.3 -.87 92.41 1.26 99.52 .04 106.63 .52 113.74 -1.69 120.85 -1.18 127.96 -2.17 135.07 2.45 142.18 -1.83 149.29 -1.42 156.4 2.2 163.52 1.56 170.63 -2.55 177.74 -1.91 184.85 1.11 191.97 -.43 199.08 -1.71 206.19 -1.68 213.3 1.7 220.41 -.39 227.53 .74 234.64 .08 241.76 .6 248.88 1.59 254.39 1.61 253.51 7.11 258.2 14.22 253.46 21.33 253.92 28.44 254.73 35.55 254.45 42.66 257.3 49.77 253.76 56.87 258.42 63.98 256.32 71.09 257.24 78.2 255.32 85.3 255.89 92.41 257.69 99.52 257.2 106.63 257.39 113.74 255.78 120.85 254.79 127.96 255.89 135.07 254.15 142.18 255.89 149.29 256.15 156.4 256.21 163.52 257.94 170.63 253.65 177.74 254.94 184.85 256.28 191.97 254.27 199.08 256.51 206.19 257.54 213.3 256.52 220.41 255.51 227.53 255.73 234.64 254.28 241.76 257.7 248.88 254.45 254.45 248.89 257.91 241.78 256.93 234.67 253.55 227.56 255.17 220.45 256.05 213.34 258.34 206.23 254.37 199.13 256.55 192.02 254.81 184.91 253.94 177.8 258.06 170.7 255.71 163.59 257.29 156.48 257.37 149.37 256.48 142.26 258.36 135.15 256.51 128.04 255.42 120.93 254.72 113.82 254.22 106.71 256.5 99.6 254.79 92.48 258.16 85.37 254.74 78.26 253.66 71.15 258.13 64.03 256.19 56.92 256.55 49.81 254.46 42.7 255.42 35.59 254.67 28.47 254.09 21.36 254.88 14.24 257.72 7.12 257.94 -1.16 257.16 -2.02 248.89 1.73 241.78 -1.73 234.67 .15 227.56 1.17 220.45 -2.39 213.34 -1.68 206.23 -2.33 199.13 1.06 192.02 -.7 184.91 -1.66 177.8 1.2 170.7 -.69 163.59 -1.52 156.48 -1.53 149.37 -1.24 142.26 -2.46 135.15 -2.34 128.04 .63 120.93 -.33 113.82 -.97 106.71 -.56 99.6 1.9 92.48 2.48 85.37 -1.79 78.26 -.26 71.15 -.49 64.03 -.4 56.92 2.13 49.81 -1.23 42.7 -1.25 35.59 .71 28.47 2.26 21.36 .28 14.24 -2.52 7.37 -1.55 -1.55"/>
      <polygon class="st7" points="-1.55 -1.55 7.11 1.4 14.22 2.26 21.33 -1.69 28.44 -1.28 35.55 1.44 42.66 -.1 49.77 -.22 56.87 -2.09 63.98 1.41 71.09 -.45 78.2 .95 85.3 -.87 92.41 1.26 99.52 .04 106.63 .52 113.74 -1.69 120.85 -1.18 127.96 -2.17 135.07 2.45 142.18 -1.83 149.29 -1.42 156.4 2.2 163.52 1.56 170.63 -2.55 177.74 -1.91 184.85 1.11 191.97 -.43 199.08 -1.71 206.19 -1.68 213.3 1.7 220.41 -.39 227.53 .74 234.64 .08 241.76 .6 248.88 1.59 254.39 1.61 253.51 7.11 258.2 14.22 253.46 21.33 253.92 28.44 254.73 35.55 254.45 42.66 257.3 49.77 253.76 56.87 258.42 63.98 256.32 71.09 257.24 78.2 255.32 85.3 255.89 92.41 257.69 99.52 257.2 106.63 257.39 113.74 255.78 120.85 254.79 127.96 255.89 135.07 254.15 142.18 255.89 149.29 256.15 156.4 256.21 163.52 257.94 170.63 253.65 177.74 254.94 184.85 256.28 191.97 254.27 199.08 256.51 206.19 257.54 213.3 256.52 220.41 255.51 227.53 255.73 234.64 254.28 241.76 257.7 248.88 254.45 254.45 248.89 257.91 241.78 256.93 234.67 253.55 227.56 255.17 220.45 256.05 213.34 258.34 206.23 254.37 199.13 256.55 192.02 254.81 184.91 253.94 177.8 258.06 170.7 255.71 163.59 257.29 156.48 257.37 149.37 256.48 142.26 258.36 135.15 256.51 128.04 255.42 120.93 254.72 113.82 254.22 106.71 256.5 99.6 254.79 92.48 258.16 85.37 254.74 78.26 253.66 71.15 258.13 64.03 256.19 56.92 256.55 49.81 254.46 42.7 255.42 35.59 254.67 28.47 254.09 21.36 254.88 14.24 257.72 7.12 257.94 -1.16 257.16 -2.02 248.89 1.73 241.78 -1.73 234.67 .15 227.56 1.17 220.45 -2.39 213.34 -1.68 206.23 -2.33 199.13 1.06 192.02 -.7 184.91 -1.66 177.8 1.2 170.7 -.69 163.59 -1.52 156.48 -1.53 149.37 -1.24 142.26 -2.46 135.15 -2.34 128.04 .63 120.93 -.33 113.82 -.97 106.71 -.56 99.6 1.9 92.48 2.48 85.37 -1.79 78.26 -.26 71.15 -.49 64.03 -.4 56.92 2.13 49.81 -1.23 42.7 -1.25 35.59 .71 28.47 2.26 21.36 .28 14.24 -2.52 7.37 -1.55 -1.55"/>
    </g>
    <g class="st8">
      <g>
        <rect class="st2" x="8" y="12" width="8" height="8"/>
        <rect class="st2" x="40" y="24" width="8" height="8"/>
        <rect class="st2" x="72" y="16" width="8" height="8"/>
        <rect class="st2" x="104" y="32" width="8" height="8"/>
        <rect class="st2" x="136" y="20" width="8" height="8"/>
        <rect class="st2" x="168" y="36" width="8" height="8"/>
        <rect class="st2" x="200" y="18" width="8" height="8"/>
        <rect class="st2" x="224" y="30" width="8" height="8"/>
        <rect class="st2" x="20" y="76" width="8" height="8"/>
        <rect class="st2" x="56" y="60" width="8" height="8"/>
        <rect class="st2" x="88" y="84" width="8" height="8"/>
        <rect class="st2" x="120" y="72" width="8" height="8"/>
        <rect class="st2" x="156" y="64" width="8" height="8"/>
        <rect class="st2" x="188" y="80" width="8" height="8"/>
        <rect class="st2" x="220" y="72" width="8" height="8"/>
        <rect class="st2" x="12" y="136" width="8" height="8"/>
        <rect class="st2" x="44" y="148" width="8" height="8"/>
        <rect class="st2" x="84" y="132" width="8" height="8"/>
        <rect class="st2" x="116" y="156" width="8" height="8"/>
        <rect class="st2" x="148" y="140" width="8" height="8"/>
        <rect class="st2" x="176" y="152" width="8" height="8"/>
        <rect class="st2" x="208" y="136" width="8" height="8"/>
        <rect class="st2" x="232" y="152" width="8" height="8"/>
        <rect class="st2" x="28" y="212" width="8" height="8"/>
        <rect class="st2" x="64" y="200" width="8" height="8"/>
        <rect class="st2" x="92" y="220" width="8" height="8"/>
        <rect class="st2" x="128" y="204" width="8" height="8"/>
        <rect class="st2" x="160" y="224" width="8" height="8"/>
        <rect class="st2" x="192" y="206" width="8" height="8"/>
        <rect class="st2" x="220" y="226" width="8" height="8"/>
      </g>
      <g class="st9">
        <rect class="st11" x="24" y="16" width="8" height="8"/>
        <rect class="st11" x="60" y="28" width="8" height="8"/>
        <rect class="st11" x="92" y="20" width="8" height="8"/>
        <rect class="st11" x="124" y="40" width="8" height="8"/>
        <rect class="st11" x="156" y="24" width="8" height="8"/>
        <rect class="st11" x="188" y="44" width="8" height="8"/>
        <rect class="st11" x="216" y="22" width="8" height="8"/>
        <rect class="st11" x="36" y="92" width="8" height="8"/>
        <rect class="st11" x="76" y="72" width="8" height="8"/>
        <rect class="st11" x="108" y="96" width="8" height="8"/>
        <rect class="st11" x="144" y="84" width="8" height="8"/>
        <rect class="st11" x="176" y="100" width="8" height="8"/>
        <rect class="st11" x="204" y="88" width="8" height="8"/>
        <rect class="st11" x="24" y="168" width="8" height="8"/>
        <rect class="st11" x="60" y="156" width="8" height="8"/>
        <rect class="st11" x="96" y="172" width="8" height="8"/>
        <rect class="st11" x="132" y="160" width="8" height="8"/>
        <rect class="st11" x="164" y="176" width="8" height="8"/>
        <rect class="st11" x="196" y="164" width="8" height="8"/>
        <rect class="st11" x="52" y="232" width="8" height="8"/>
        <rect class="st11" x="116" y="232" width="8" height="8"/>
        <rect class="st11" x="180" y="236" width="8" height="8"/>
      </g>
    </g>
    <g>
      <g>
        <rect class="st3" x="48" y="20" width="4" height="10"/>
        <rect class="st3" x="44" y="22" width="4" height="8"/>
        <rect class="st3" x="52" y="22" width="4" height="8"/>
      </g>
      <rect class="st4" x="48" y="24" width="4" height="6"/>
      <g>
        <rect class="st0" x="42" y="36" width="16" height="6"/>
        <rect class="st0" x="38" y="42" width="24" height="14"/>
        <rect class="st0" x="42" y="56" width="16" height="6"/>
        <rect class="st0" x="46" y="32" width="8" height="4"/>
      </g>
      <g>
        <rect class="st6" x="42" y="42" width="16" height="14"/>
        <rect class="st6" x="40" y="46" width="20" height="8"/>
        <rect class="st6" x="46" y="36" width="8" height="6"/>
      </g>
      <g>
        <rect class="st1" x="52" y="48" width="8" height="6"/>
        <rect class="st1" x="50" y="52" width="10" height="4"/>
      </g>
      <g>
        <rect class="st10" x="44" y="46" width="4" height="8"/>
        <rect class="st10" x="48" y="46" width="4" height="4"/>
      </g>
    </g>
    <g>
      <g>
        <rect class="st3" x="168" y="51" width="4" height="10"/>
        <rect class="st3" x="164" y="53" width="4" height="8"/>
        <rect class="st3" x="172" y="53" width="4" height="8"/>
      </g>
      <rect class="st4" x="168" y="55" width="4" height="6"/>
      <g>
        <rect class="st0" x="162" y="67" width="16" height="6"/>
        <rect class="st0" x="158" y="73" width="24" height="14"/>
        <rect class="st0" x="162" y="87" width="16" height="6"/>
        <rect class="st0" x="166" y="63" width="8" height="4"/>
      </g>
      <g>
        <rect class="st6" x="162" y="73" width="16" height="14"/>
        <rect class="st6" x="160" y="77" width="20" height="8"/>
        <rect class="st6" x="166" y="67" width="8" height="6"/>
      </g>
      <g>
        <rect class="st1" x="172" y="79" width="8" height="6"/>
        <rect class="st1" x="170" y="83" width="10" height="4"/>
      </g>
      <g>
        <rect class="st10" x="164" y="77" width="4" height="8"/>
        <rect class="st10" x="168" y="77" width="4" height="4"/>
      </g>
    </g>
    <g>
      <g>
        <rect class="st3" x="138" y="116" width="4" height="10"/>
        <rect class="st3" x="134" y="118" width="4" height="8"/>
        <rect class="st3" x="142" y="118" width="4" height="8"/>
      </g>
      <rect class="st4" x="138" y="120" width="4" height="6"/>
      <g>
        <rect class="st0" x="132" y="132" width="16" height="6"/>
        <rect class="st0" x="128" y="138" width="24" height="14"/>
        <rect class="st0" x="132" y="152" width="16" height="6"/>
        <rect class="st0" x="136" y="128" width="8" height="4"/>
      </g>
      <g>
        <rect class="st6" x="132" y="138" width="16" height="14"/>
        <rect class="st6" x="130" y="142" width="20" height="8"/>
        <rect class="st6" x="136" y="132" width="8" height="6"/>
      </g>
      <g>
        <rect class="st1" x="142" y="144" width="8" height="6"/>
        <rect class="st1" x="140" y="148" width="10" height="4"/>
      </g>
      <g>
        <rect class="st10" x="134" y="142" width="4" height="8"/>
        <rect class="st10" x="138" y="142" width="4" height="4"/>
      </g>
    </g>
    <g>
      <g>
        <rect class="st3" x="202" y="144" width="4" height="10"/>
        <rect class="st3" x="198" y="146" width="4" height="8"/>
        <rect class="st3" x="206" y="146" width="4" height="8"/>
      </g>
      <rect class="st4" x="202" y="148" width="4" height="6"/>
      <g>
        <rect class="st0" x="196" y="160" width="16" height="6"/>
        <rect class="st0" x="192" y="166" width="24" height="14"/>
        <rect class="st0" x="196" y="180" width="16" height="6"/>
        <rect class="st0" x="200" y="156" width="8" height="4"/>
      </g>
      <g>
        <rect class="st6" x="196" y="166" width="16" height="14"/>
        <rect class="st6" x="194" y="170" width="20" height="8"/>
        <rect class="st6" x="200" y="160" width="8" height="6"/>
      </g>
      <g>
        <rect class="st1" x="206" y="172" width="8" height="6"/>
        <rect class="st1" x="204" y="176" width="10" height="4"/>
      </g>
      <g>
        <rect class="st10" x="198" y="170" width="4" height="8"/>
        <rect class="st10" x="202" y="170" width="4" height="4"/>
      </g>
    </g>
    <g>
      <g>
        <rect class="st3" x="217" y="92" width="2" height="6"/>
        <rect class="st3" x="215" y="94" width="2" height="4"/>
        <rect class="st3" x="219" y="94" width="2" height="4"/>
      </g>
      <g>
        <rect class="st0" x="214" y="100" width="8" height="3"/>
        <rect class="st0" x="212" y="103" width="12" height="7"/>
        <rect class="st0" x="214" y="110" width="8" height="2"/>
      </g>
      <g>
        <rect class="st6" x="214" y="103" width="8" height="7"/>
        <rect class="st6" x="213" y="105" width="10" height="3"/>
      </g>
      <rect class="st1" x="219" y="106" width="3" height="3"/>
    </g>
    <g>
      <g>
        <rect class="st3" x="30" y="95.61" width="4" height="10"/>
        <rect class="st3" x="26" y="97.61" width="4" height="8"/>
        <rect class="st3" x="34" y="97.61" width="4" height="8"/>
      </g>
      <rect class="st4" x="30" y="99.61" width="4" height="6"/>
      <g>
        <rect class="st0" x="24" y="111.61" width="16" height="6"/>
        <rect class="st0" x="20" y="117.61" width="24" height="14"/>
        <rect class="st0" x="24" y="131.61" width="16" height="6"/>
        <rect class="st0" x="28" y="107.61" width="8" height="4"/>
      </g>
      <g>
        <rect class="st6" x="24" y="117.61" width="16" height="14"/>
        <rect class="st6" x="22" y="121.61" width="20" height="8"/>
        <rect class="st6" x="28" y="111.61" width="8" height="6"/>
      </g>
      <g>
        <rect class="st1" x="34" y="123.61" width="8" height="6"/>
        <rect class="st1" x="32" y="127.61" width="10" height="4"/>
      </g>
      <g>
        <rect class="st10" x="26" y="121.61" width="4" height="8"/>
        <rect class="st10" x="30" y="121.61" width="4" height="4"/>
      </g>
    </g>
    <g>
      <g>
        <rect class="st3" x="150" y="185" width="4" height="10"/>
        <rect class="st3" x="146" y="187" width="4" height="8"/>
        <rect class="st3" x="154" y="187" width="4" height="8"/>
      </g>
      <rect class="st4" x="150" y="189" width="4" height="6"/>
      <g>
        <rect class="st0" x="144" y="201" width="16" height="6"/>
        <rect class="st0" x="140" y="207" width="24" height="14"/>
        <rect class="st0" x="144" y="221" width="16" height="6"/>
        <rect class="st0" x="148" y="197" width="8" height="4"/>
      </g>
      <g>
        <rect class="st6" x="144" y="207" width="16" height="14"/>
        <rect class="st6" x="142" y="211" width="20" height="8"/>
        <rect class="st6" x="148" y="201" width="8" height="6"/>
      </g>
      <g>
        <rect class="st1" x="154" y="213" width="8" height="6"/>
        <rect class="st1" x="152" y="217" width="10" height="4"/>
      </g>
      <g>
        <rect class="st10" x="146" y="211" width="4" height="8"/>
        <rect class="st10" x="150" y="211" width="4" height="4"/>
      </g>
    </g>
    <g>
      <g>
        <rect class="st3" x="116" y="6" width="4" height="10"/>
        <rect class="st3" x="112" y="8" width="4" height="8"/>
        <rect class="st3" x="120" y="8" width="4" height="8"/>
      </g>
      <rect class="st4" x="116" y="10" width="4" height="6"/>
      <g>
        <rect class="st0" x="110" y="22" width="16" height="6"/>
        <rect class="st0" x="106" y="28" width="24" height="14"/>
        <rect class="st0" x="110" y="42" width="16" height="6"/>
        <rect class="st0" x="114" y="18" width="8" height="4"/>
      </g>
      <g>
        <rect class="st6" x="110" y="28" width="16" height="14"/>
        <rect class="st6" x="108" y="32" width="20" height="8"/>
        <rect class="st6" x="114" y="22" width="8" height="6"/>
      </g>
      <g>
        <rect class="st1" x="120" y="34" width="8" height="6"/>
        <rect class="st1" x="118" y="38" width="10" height="4"/>
      </g>
      <g>
        <rect class="st10" x="112" y="32" width="4" height="8"/>
        <rect class="st10" x="116" y="32" width="4" height="4"/>
      </g>
    </g>
    <g>
      <g>
        <rect class="st3" x="224.5" y="201" width="4" height="10"/>
        <rect class="st3" x="220.5" y="203" width="4" height="8"/>
        <rect class="st3" x="228.5" y="203" width="4" height="8"/>
      </g>
      <rect class="st4" x="224.5" y="205" width="4" height="6"/>
      <g>
        <rect class="st0" x="218.5" y="217" width="16" height="6"/>
        <rect class="st0" x="214.5" y="223" width="24" height="14"/>
        <rect class="st0" x="218.5" y="237" width="16" height="6"/>
        <rect class="st0" x="222.5" y="213" width="8" height="4"/>
      </g>
      <g>
        <rect class="st6" x="218.5" y="223" width="16" height="14"/>
        <rect class="st6" x="216.5" y="227" width="20" height="8"/>
        <rect class="st6" x="222.5" y="217" width="8" height="6"/>
      </g>
      <g>
        <rect class="st1" x="228.5" y="229" width="8" height="6"/>
        <rect class="st1" x="226.5" y="233" width="10" height="4"/>
      </g>
      <g>
        <rect class="st10" x="220.5" y="227" width="4" height="8"/>
        <rect class="st10" x="224.5" y="227" width="4" height="4"/>
      </g>
    </g>
    <g>
      <g>
        <rect class="st3" x="92" y="159" width="4" height="10"/>
        <rect class="st3" x="88" y="161" width="4" height="8"/>
        <rect class="st3" x="96" y="161" width="4" height="8"/>
      </g>
      <rect class="st4" x="92" y="163" width="4" height="6"/>
      <g>
        <rect class="st0" x="86" y="175" width="16" height="6"/>
        <rect class="st0" x="82" y="181" width="24" height="14"/>
        <rect class="st0" x="86" y="195" width="16" height="6"/>
        <rect class="st0" x="90" y="171" width="8" height="4"/>
      </g>
      <g>
        <rect class="st6" x="86" y="181" width="16" height="14"/>
        <rect class="st6" x="84" y="185" width="20" height="8"/>
        <rect class="st6" x="90" y="175" width="8" height="6"/>
      </g>
      <g>
        <rect class="st1" x="96" y="187" width="8" height="6"/>
        <rect class="st1" x="94" y="191" width="10" height="4"/>
      </g>
      <g>
        <rect class="st10" x="88" y="185" width="4" height="8"/>
        <rect class="st10" x="92" y="185" width="4" height="4"/>
      </g>
    </g>
    <g>
      <g>
        <rect class="st3" x="30" y="204" width="4" height="10"/>
        <rect class="st3" x="26" y="206" width="4" height="8"/>
        <rect class="st3" x="34" y="206" width="4" height="8"/>
      </g>
      <rect class="st4" x="30" y="208" width="4" height="6"/>
      <g>
        <rect class="st0" x="24" y="220" width="16" height="6"/>
        <rect class="st0" x="20" y="226" width="24" height="14"/>
        <rect class="st0" x="24" y="240" width="16" height="6"/>
        <rect class="st0" x="28" y="216" width="8" height="4"/>
      </g>
      <g>
        <rect class="st6" x="24" y="226" width="16" height="14"/>
        <rect class="st6" x="22" y="230" width="20" height="8"/>
        <rect class="st6" x="28" y="220" width="8" height="6"/>
      </g>
      <g>
        <rect class="st1" x="34" y="232" width="8" height="6"/>
        <rect class="st1" x="32" y="236" width="10" height="4"/>
      </g>
      <g>
        <rect class="st10" x="26" y="230" width="4" height="8"/>
        <rect class="st10" x="30" y="230" width="4" height="4"/>
      </g>
    </g>
    <g>
      <g>
        <rect class="st3" x="219.5" y="14" width="2" height="6"/>
        <rect class="st3" x="217.5" y="16" width="2" height="4"/>
        <rect class="st3" x="221.5" y="16" width="2" height="4"/>
      </g>
      <g>
        <rect class="st0" x="216.5" y="22" width="8" height="3"/>
        <rect class="st0" x="214.5" y="25" width="12" height="7"/>
        <rect class="st0" x="216.5" y="32" width="8" height="2"/>
      </g>
      <g>
        <rect class="st6" x="216.5" y="25" width="8" height="7"/>
        <rect class="st6" x="215.5" y="27" width="10" height="3"/>
      </g>
      <rect class="st1" x="221.5" y="28" width="3" height="3"/>
    </g>
    <g>
      <g>
        <rect class="st3" x="97" y="70" width="2" height="6"/>
        <rect class="st3" x="95" y="72" width="2" height="4"/>
        <rect class="st3" x="99" y="72" width="2" height="4"/>
      </g>
      <g>
        <rect class="st0" x="94" y="78" width="8" height="3"/>
        <rect class="st0" x="92" y="81" width="12" height="7"/>
        <rect class="st0" x="94" y="88" width="8" height="2"/>
      </g>
      <g>
        <rect class="st6" x="94" y="81" width="8" height="7"/>
        <rect class="st6" x="93" y="83" width="10" height="3"/>
      </g>
      <rect class="st1" x="99" y="84" width="3" height="3"/>
    </g>
    <g>
      <g>
        <rect class="st3" x="75" y="119.61" width="2" height="6"/>
        <rect class="st3" x="73" y="121.61" width="2" height="4"/>
        <rect class="st3" x="77" y="121.61" width="2" height="4"/>
      </g>
      <g>
        <rect class="st0" x="72" y="127.61" width="8" height="3"/>
        <rect class="st0" x="70" y="130.61" width="12" height="7"/>
        <rect class="st0" x="72" y="137.61" width="8" height="2"/>
      </g>
      <g>
        <rect class="st6" x="72" y="130.61" width="8" height="7"/>
        <rect class="st6" x="71" y="132.61" width="10" height="3"/>
      </g>
      <rect class="st1" x="77" y="133.61" width="3" height="3"/>
    </g>
    <g>
      <g>
        <rect class="st3" x="47" y="162.18" width="2" height="6"/>
        <rect class="st3" x="45" y="164.18" width="2" height="4"/>
        <rect class="st3" x="49" y="164.18" width="2" height="4"/>
      </g>
      <g>
        <rect class="st0" x="44" y="170.18" width="8" height="3"/>
        <rect class="st0" x="42" y="173.18" width="12" height="7"/>
        <rect class="st0" x="44" y="180.18" width="8" height="2"/>
      </g>
      <g>
        <rect class="st6" x="44" y="173.18" width="8" height="7"/>
        <rect class="st6" x="43" y="175.18" width="10" height="3"/>
      </g>
      <rect class="st1" x="49" y="176.18" width="3" height="3"/>
    </g>
  </g>
</svg>