<?xml version="1.0" encoding="UTF-8"?>
<svg id="Layer_1" xmlns="http://www.w3.org/2000/svg" version="1.1" viewBox="0 0 256 256">
  <!-- Generator: Adobe Illustrator 29.6.1, SVG Export Plug-In . SVG Version: 2.1.1 Build 9)  -->
  <defs>
    <style>
      .st0 {
        stroke-width: 3px;
      }

      .st0, .st1, .st2 {
        fill: none;
        stroke-miterlimit: 10;
      }

      .st0, .st2 {
        stroke: #a97c50;
      }

      .st1 {
        stroke: #231f20;
      }

      .st1, .st2 {
        stroke-width: 2px;
      }
    </style>
  </defs>
  <path class="st0" d="M226.74,108.45c-.35.23-.26.38-.61.61s-.54-.05-.89.18-.14.55-.49.79-.49.02-.85.25-.44.1-.79.33-.23.42-.58.65-.29.33-.64.56-.45.08-.8.32-.23.41-.58.64-.42.13-.77.36-.5,0-.85.23-.35.23-.7.46-.37.21-.72.44-.08.64-.43.87-.51-.01-.86.22-.22.42-.57.66-.41.14-.77.37-.41.14-.76.37-.33.26-.68.5-.42.13-.77.36-.19.48-.54.72-.48.04-.83.27-.27.36-.62.59-.49.02-.85.25-.29.33-.64.57-.33.27-.68.5-.38.2-.73.43-.45.08-.8.32-.27.36-.62.59-.21.45-.56.68-.56-.09-.92.15-.37.21-.72.44-.14.56-.49.79-.51,0-.86.23-.18.49-.53.73-.59-.12-.94.11-.35.24-.7.48-.33.27-.68.5-.3.32-.65.55-.25.39-.6.62-.52-.02-.87.21-.14.56-.49.79-.56-.08-.91.15-.14.55-.5.78-.36.22-.71.45-.38.19-.73.43-.46.07-.81.3-.36.21-.72.45-.42.13-.77.36-.1.61-.45.85-.48.04-.83.27-.37.21-.72.44-.42.14-.77.37-.17.5-.52.73-.53-.05-.89.19-.31.29-.66.52-.29.32-.64.55-.48.03-.83.27-.36.22-.71.46-.16.52-.51.76-.53-.03-.88.2-.16.52-.51.76-.49.03-.84.26-.37.2-.72.43-.26.37-.61.61-.39.17-.74.4-.32.28-.67.51-.49.03-.84.26-.28.33-.64.56-.17.5-.52.73-.46.07-.81.3-.45.08-.8.31-.35.23-.7.46-.15.54-.5.77-.48.03-.83.27-.41.14-.76.38-.28.34-.63.57-.34.26-.69.49-.3.31-.65.54-.33.26-.68.49-.39.17-.74.4-.53-.04-.88.19-.28.34-.63.57-.37.2-.72.44-.37.2-.72.44-.39.18-.74.41-.08.65-.43.88-.55-.06-.9.17-.22.43-.57.66-.32.28-.67.52-.43.11-.79.34-.42.13-.77.36-.29.33-.64.57-.28.34-.63.58-.44.1-.79.33-.39.18-.74.42-.4.16-.75.4-.21.45-.56.68-.34.26-.69.49-.5.02-.85.25-.38.2-.73.43-.36.23-.71.46-.36.22-.72.45-.19.48-.54.72-.53-.03-.88.2-.33.26-.69.5-.29.33-.64.56-.28.34-.64.57-.28.34-.64.57-.56-.09-.92.14-.28.35-.63.58-.44.1-.79.33-.21.45-.56.68-.36.22-.71.46-.28.34-.64.57-.33.27-.68.5-.53-.03-.88.2-.35.23-.7.47-.35.23-.71.46-.19.47-.55.7-.4.16-.75.39-.28.34-.63.57-.57-.1-.92.14-.25.39-.6.62-.34.25-.69.48-.36.22-.71.45-.34.25-.69.49-.32.28-.67.51-.52-.02-.87.21-.27.36-.62.6-.44.1-.79.34-.11.6-.46.83-.35.24-.7.47-.41.15-.76.39-.32.29-.67.52-.54-.05-.9.18-.35.23-.71.47-.33.27-.68.5-.17.51-.53.74-.58-.11-.94.12-.15.54-.51.77-.33.28-.68.51-.54-.04-.89.19-.19.47-.55.71-.46.08-.81.31-.46.07-.81.31-.38.2-.73.43-.17.51-.53.74-.43.11-.79.34-.45.09-.8.33-.24.4-.6.63-.23.42-.58.65-.5.01-.85.25-.3.31-.65.55-.36.23-.71.46-.34.26-.69.49-.28.34-.63.57-.52-.01-.87.22-.28.35-.63.58-.4.16-.76.39-.19.48-.55.71-.37.21-.72.45-.47.06-.82.29-.24.4-.6.63-.39.17-.75.41-.44.11-.79.34-.25.39-.6.63-.44.11-.79.34-.41.15-.76.38-.36.22-.71.46-.22.44-.57.67-.51,0-.86.24-.38.19-.74.42-.29.33-.64.57-.29.33-.64.57-.25.39-.6.63-.53-.03-.88.2-.38.19-.73.43-.35.24-.7.48-.42.14-.77.37-.36.22-.71.46-.25.4-.6.63-.45.09-.8.33-.27.35-.63.59-.36.23-.71.46-.34.26-.69.49-.38.19-.74.43-.32.29-.67.53-.42.13-.78.36-.33.27-.68.5-.24.4-.59.63-.32.27-.68.51-.55-.06-.9.17-.34.25-.7.48-.16.53-.51.76-.47.07-.82.3-.31.3-.67.53-.32.28-.68.52-.53-.03-.89.2-.2.46-.56.69-.36.23-.71.47-.4.16-.76.39-.41.15-.76.38-.39.18-.74.41-.28.34-.63.58-.34.25-.69.49-.3.32-.65.55-.46.07-.81.31-.25.38-.61.62-.24.4-.6.63-.43.12-.78.36-.52-.01-.87.22-.2.47-.55.7-.47.06-.83.29-.19.49-.54.72-.54-.05-.9.19-.28.35-.63.58-.39.18-.75.41-.3.32-.65.55-.4.16-.76.4-.43.13-.78.36-.26.38-.61.62-.4.17-.75.41-.39.19-.74.42-.13.57-.49.81-.35.25-.7.49-.52-.02-.88.22-.38.2-.73.43-.36.23-.71.46-.25.4-.6.63-.34.26-.69.5-.48.04-.84.28-.29.33-.65.56-.48.05-.83.28-.35.24-.71.47-.33.28-.68.51-.14.56-.49.8-.39.17-.75.4-.4.16-.75.4-.45.1-.8.33-.2.47-.56.71-.49.02-.85.26-.19.48-.55.71-.5.01-.86.25-.29.34-.65.58-.5.03-.85.26-.24.41-.6.65-.45.09-.81.33-.17.52-.52.76-.5.02-.85.26-.22.45-.57.68-.57-.09-.93.15-.12.6-.48.83-.5.02-.86.26-.25.41-.61.65"/>
  <path class="st2" d="M88.95,26.75c-.31.21-.6-.2-.9.01s-.33.19-.64.4-.18.4-.49.62-.3.23-.6.44-.66-.29-.97-.08-.25.29-.56.51.05.74-.26.96-.21.36-.52.57-.8-.49-1.11-.27,0,.67-.32.88-.43.03-.75.23-.48-.07-.8.13-.19.41-.52.61-.46-.03-.78.17-.2.4-.52.59-.24.33-.56.53-.12.53-.44.73-.42.04-.74.24-.67-.38-1-.18-.16.48-.48.69-.1.5-.39.73-.52-.05-.81.18.06.7-.23.93-.46.02-.76.25-.26.28-.56.51-.28.26-.57.49-.37.14-.67.37-.1.48-.4.72-.29.24-.59.48-.53-.06-.84.17-.59-.21-.91,0,.17.93-.14,1.14-.57-.18-.89.03-.52-.1-.83.11-.28.25-.6.46-.28.25-.6.46-.25.31-.56.52-.3.23-.61.44-.37.13-.69.34-.38.14-.68.37.02.64-.27.88-.71-.26-1-.02-.22.32-.51.57-.29.24-.58.48,0,.6-.28.84-.54-.06-.83.18.19.82-.1,1.06-.72-.27-1.01-.02-.2.35-.49.6-.42.04-.73.26-.04.62-.37.8-.29.25-.62.43-.43.01-.76.2-.46-.04-.79.15-.15.5-.48.68-.47-.07-.8.12-.38.1-.71.29-.23.37-.56.56-.26.32-.59.51-.57-.21-.9-.02-.15.48-.47.68-.17.44-.49.64-.71-.42-1.03-.22,0,.7-.33.9-.47-.04-.79.16.02.75-.3.95-.41.06-.73.26-.6-.24-.92-.04.02.76-.3.96-.4.03-.7.26-.52-.04-.8.22.1.67-.18.92-.46.07-.74.33-.72-.22-1,.04.03.59-.25.85-.51.01-.79.27-.09.47-.37.73-.55-.03-.83.23-.3.24-.58.5.34,1.03.03,1.25-.58-.16-.92.01-.5-.14-.84.04-.06.71-.4.88-.34.18-.67.35-.51-.17-.85,0-.09.65-.43.82-.48-.09-.81.08-.36.14-.7.31-.32.22-.66.4-.39.06-.7.28-.5,0-.78.25.04.61-.24.86-.67-.17-.95.08-.07.49-.35.74-.38.15-.66.41.02.58-.26.84-.71-.21-.99.04-.16.4-.44.65,0,.57-.29.82-.61-.1-.89.16"/>
  <line class="st2" x1="105.73" y1="26.44" x2="26.73" y2="80.44"/>
  <path class="st0" d="M118.67,28.35c-.34.24-.22.42-.56.66s-.52,0-.86.24-.3.3-.65.54-.35.24-.69.48-.13.55-.48.79-.49.04-.83.29-.28.34-.62.58-.5.02-.85.26-.39.18-.73.43-.29.32-.64.56-.4.16-.75.41-.11.58-.45.83-.53-.02-.88.22-.26.36-.61.61-.47.08-.81.32-.27.35-.61.6-.41.15-.76.39-.3.3-.65.55-.27.35-.61.6-.4.17-.74.41-.3.31-.64.56-.33.26-.68.5-.34.25-.69.49-.26.36-.61.61-.49.04-.83.28-.22.42-.57.66-.32.28-.66.53-.49.04-.83.29-.4.17-.74.41-.14.54-.48.78-.35.24-.69.48-.39.18-.74.42-.34.25-.69.49-.49.04-.83.29-.28.34-.62.58-.41.15-.76.4-.26.37-.6.61-.34.25-.69.49-.46.08-.81.33-.19.47-.53.71-.4.17-.74.42-.41.15-.76.4-.41.15-.76.39-.17.5-.51.74-.41.15-.76.39-.21.44-.56.68-.34.24-.69.49-.37.21-.71.45-.51,0-.86.25-.21.43-.56.68-.29.32-.64.57-.46.09-.8.33-.48.06-.82.3-.24.4-.58.64-.2.46-.54.7-.49.04-.84.28-.28.33-.63.58-.3.3-.65.55-.55-.05-.9.2-.15.52-.5.76-.37.22-.71.46-.39.18-.73.42-.3.31-.64.55-.5.02-.84.26-.37.21-.71.45-.14.53-.48.78-.54-.03-.88.21-.21.44-.55.68-.26.37-.6.61-.45.1-.79.35-.43.13-.77.37-.15.52-.5.77-.5.03-.85.27-.39.19-.73.43-.36.23-.7.48-.26.36-.61.6-.4.16-.75.41-.22.42-.56.67-.27.34-.62.59-.52,0-.86.24-.2.45-.54.69-.32.28-.66.52-.5.02-.85.26-.25.38-.59.63-.48.05-.83.29-.22.42-.57.66-.31.3-.65.55-.54-.03-.88.22-.28.35-.62.59-.3.31-.65.56-.5.03-.85.27-.14.53-.49.78-.3.31-.65.55-.44.11-.78.36-.43.12-.78.37-.28.33-.63.58-.37.21-.72.45-.31.3-.66.54-.51.02-.86.26-.18.49-.52.73-.3.32-.64.56-.4.17-.75.42-.3.31-.65.55-.35.24-.7.48-.45.1-.8.34-.42.15-.76.39-.27.36-.61.61-.26.37-.61.61-.49.05-.83.29-.27.36-.61.6-.28.33-.63.58-.54-.03-.88.21-.36.23-.7.47-.19.47-.53.72-.42.15-.77.39-.21.44-.56.68-.42.14-.77.39-.34.25-.69.49-.31.3-.66.54-.39.19-.74.44-.45.1-.8.34-.28.35-.62.6-.29.34-.63.58-.34.26-.69.51-.43.13-.78.38-.42.15-.77.39-.3.33-.65.57-.45.11-.8.36-.31.31-.66.56"/>
  <path class="st0" d="M132.63,28.31c-.34.25-.13.54-.48.78s-.43.12-.77.37-.37.21-.71.45-.28.34-.62.58-.44.11-.79.36-.36.22-.7.47-.15.51-.49.76-.49.04-.83.29-.31.29-.65.54-.27.35-.61.59-.37.21-.71.46-.33.26-.67.51-.45.1-.79.35-.17.48-.51.73-.53-.01-.87.23-.19.45-.53.7-.49.04-.83.29-.39.18-.73.43-.34.25-.68.49-.26.35-.6.6-.37.2-.71.45-.16.49-.5.74-.38.2-.72.44-.39.17-.74.42-.26.36-.6.6-.57-.07-.91.18-.31.29-.65.54-.31.29-.65.53-.39.18-.74.42-.18.47-.53.72-.27.35-.61.6-.36.23-.7.48-.34.25-.68.5-.32.27-.67.52-.37.21-.71.46-.56-.06-.91.19-.09.59-.44.84-.54-.02-.88.23-.26.37-.6.62-.37.21-.72.46-.32.28-.66.53-.22.42-.56.67-.4.18-.74.42-.56-.06-.91.19-.11.58-.45.82-.46.08-.8.33-.23.41-.57.65-.59-.09-.93.16-.12.55-.47.8-.46.09-.8.34-.2.44-.54.69-.57-.06-.91.19-.12.56-.46.81-.58-.08-.92.17-.14.52-.49.77-.53,0-.87.24-.13.55-.47.8-.45.1-.79.35-.43.13-.77.38-.26.36-.6.61-.22.42-.56.67-.5.04-.84.29-.41.16-.75.41-.28.33-.63.58-.22.43-.56.67-.31.29-.65.54-.34.26-.68.51-.59-.1-.94.15-.35.24-.69.49-.35.24-.69.49-.32.29-.66.53-.32.28-.66.53-.22.42-.56.66-.43.13-.77.38-.17.49-.51.74-.46.08-.81.33-.22.42-.56.66-.49.05-.83.29-.21.43-.55.68-.32.29-.66.53-.47.08-.81.33-.32.28-.66.53-.41.16-.76.4-.28.33-.63.58-.51.03-.85.27-.09.59-.43.83-.51.01-.85.26-.16.49-.5.74-.41.15-.75.4-.28.34-.62.58-.34.24-.69.49-.44.11-.79.36-.39.18-.73.43-.35.23-.7.48-.34.25-.69.5-.26.37-.6.62-.38.2-.72.45-.5.03-.85.28-.24.4-.58.64-.19.45-.54.7-.56-.05-.9.2-.15.51-.49.76-.38.19-.73.44-.43.13-.77.38-.21.43-.55.68-.39.18-.73.43-.47.07-.81.32-.19.46-.53.71-.44.11-.78.36-.43.12-.78.37-.32.28-.66.53-.26.36-.61.61-.4.18-.74.43-.33.27-.68.52-.23.41-.57.66-.5.03-.84.28-.31.3-.65.54-.18.47-.52.72-.52,0-.87.25-.38.2-.72.45-.16.51-.5.76-.38.2-.72.45-.43.13-.78.37-.24.4-.58.65-.29.33-.63.58-.47.07-.82.32-.38.2-.72.45-.37.22-.71.47-.32.29-.66.54-.32.28-.66.53-.38.2-.73.45-.25.39-.59.64-.4.18-.74.43-.49.05-.83.3-.25.37-.6.62-.4.17-.74.42-.21.43-.56.68-.39.19-.73.44-.37.21-.72.46-.38.21-.72.46-.16.51-.5.76-.37.22-.71.47-.44.13-.78.38-.32.29-.66.54-.3.32-.64.57-.44.13-.78.38-.42.15-.76.4-.14.54-.49.79-.4.18-.74.43-.44.13-.78.38-.43.13-.78.38-.37.22-.72.47-.2.46-.54.72"/>
  <path class="st0" d="M163.82,28.57c-.34.24-.32.28-.66.52s-.38.2-.72.44-.54-.04-.88.2-.13.55-.47.8-.42.13-.77.37-.52-.02-.87.22-.07.63-.42.87-.44.1-.79.34-.48.05-.82.29-.12.56-.46.8-.6-.13-.95.11-.2.44-.55.68-.39.17-.74.41-.38.19-.73.43-.13.54-.48.78-.58-.09-.92.15-.28.33-.63.57-.26.36-.61.6-.4.17-.74.41-.21.43-.56.67-.53-.03-.88.21-.23.4-.58.64-.28.33-.63.57-.36.21-.71.46-.34.25-.68.49-.33.27-.67.51-.42.14-.76.38-.47.07-.81.31-.38.19-.73.43-.24.39-.59.63-.42.14-.77.38-.32.28-.66.53-.38.2-.72.44-.38.19-.73.44-.19.47-.53.71-.54-.04-.89.2-.22.43-.57.67-.38.19-.73.44-.26.37-.61.61-.27.35-.62.59-.39.19-.73.43-.43.12-.78.36-.27.35-.62.6-.31.3-.66.54-.57-.07-.91.17-.15.52-.5.76-.55-.04-.89.2-.19.47-.53.71-.47.07-.82.31-.26.36-.61.61-.44.1-.79.35-.19.46-.54.7-.38.19-.73.43-.24.4-.58.64-.45.09-.8.33-.5.02-.85.26-.24.39-.59.64-.24.4-.58.64-.58-.09-.92.15-.2.45-.55.69-.25.37-.6.61-.52,0-.86.24-.23.4-.58.64-.35.23-.7.47-.39.18-.74.42-.3.31-.65.55-.51,0-.86.25-.19.46-.54.7-.33.26-.68.5-.25.38-.6.62-.61-.13-.95.11-.23.4-.58.65-.39.18-.74.42-.19.46-.54.7-.37.21-.71.46-.34.26-.68.5-.38.2-.72.44-.43.12-.78.36-.27.35-.62.59-.48.06-.83.3-.34.26-.68.5-.18.49-.52.73-.42.14-.77.38-.23.41-.58.65-.51,0-.86.25-.21.44-.55.69-.44.1-.79.35-.49.04-.84.28-.35.24-.69.49-.11.59-.45.83-.55-.05-.9.2-.22.42-.57.66-.47.07-.82.31-.39.18-.74.42-.08.63-.42.87-.4.16-.75.4-.43.12-.78.36-.43.13-.78.37-.13.55-.48.79-.52-.01-.87.23-.32.28-.67.52-.19.46-.54.71-.4.17-.75.41-.57-.07-.91.17-.18.48-.53.72-.42.13-.77.38-.35.24-.7.49-.24.4-.59.64-.27.35-.62.6-.42.14-.77.38-.43.13-.77.37-.34.26-.68.5-.32.28-.67.52-.32.29-.66.53-.31.29-.66.53-.51,0-.86.25-.28.34-.63.58-.21.44-.55.69-.34.26-.68.5-.45.1-.8.34-.42.13-.77.38-.39.18-.74.43-.3.31-.65.56-.36.22-.71.46-.42.14-.77.38-.23.42-.58.66-.44.11-.79.36-.38.2-.72.45-.16.51-.51.75-.52-.01-.87.23-.13.55-.48.79-.44.1-.79.34-.47.06-.82.3-.28.34-.62.58-.24.39-.59.63-.4.17-.75.41-.46.08-.81.32-.17.5-.52.74-.4.16-.75.41-.3.31-.65.55-.31.3-.66.54-.49.04-.84.28-.3.31-.65.55-.4.16-.75.41-.19.47-.53.72-.46.09-.8.33-.3.3-.65.55-.38.19-.73.43-.36.22-.71.46-.34.26-.68.5-.4.17-.75.41-.23.41-.58.65-.42.14-.76.39-.44.11-.79.35-.26.37-.61.62-.21.45-.56.69-.54-.03-.89.22-.42.14-.77.38-.27.36-.62.6-.21.45-.55.69-.57-.08-.92.16-.09.61-.44.85-.34.25-.69.49-.62-.15-.97.1-.12.56-.47.81-.35.24-.7.49-.35.24-.7.48-.33.28-.68.52-.42.15-.76.39-.52,0-.87.24-.34.25-.69.5-.26.38-.61.62-.45.1-.8.35-.21.45-.56.7-.22.42-.57.67-.49.04-.84.28-.44.11-.78.36-.12.56-.47.81-.45.1-.8.34-.39.18-.74.43-.47.08-.82.32-.17.5-.52.75-.51.02-.86.26-.32.29-.67.53-.17.51-.52.75-.52,0-.87.25-.18.5-.53.74-.51.02-.86.26-.29.33-.65.57-.27.36-.62.61-.41.16-.76.4-.45.1-.8.34-.27.37-.62.61-.39.19-.75.43-.21.46-.56.7-.6-.11-.96.14"/>
  <path class="st0" d="M147.46,29.45c-.34.24-.32.28-.66.52s-.31.28-.66.53-.24.38-.58.63-.47.06-.81.3-.39.18-.73.42-.18.47-.52.71-.36.22-.71.46-.57-.07-.91.17-.06.64-.41.88-.45.09-.79.34-.43.12-.77.37-.23.4-.57.65-.27.35-.61.6-.39.18-.73.42-.35.24-.69.48-.56-.06-.9.19-.14.53-.49.77-.34.25-.68.5-.51.01-.85.26-.39.18-.73.43-.18.47-.53.72-.34.24-.69.49-.5.03-.84.27-.11.58-.45.82-.59-.1-.93.15-.27.35-.61.6-.39.18-.73.42-.3.3-.65.55-.42.14-.76.38-.13.55-.47.79-.29.31-.64.56-.36.21-.71.46-.46.08-.8.32-.28.33-.62.57-.53-.02-.87.22-.13.54-.47.78-.56-.07-.91.17-.16.49-.51.74-.42.13-.76.38-.4.16-.75.4-.2.45-.54.69-.4.17-.74.41-.39.18-.73.42-.19.46-.53.71-.48.05-.83.29-.36.22-.7.47-.42.13-.77.37-.14.53-.48.78-.29.32-.63.56-.36.23-.7.47-.49.04-.83.28-.47.07-.81.32-.22.41-.57.66-.2.45-.55.69-.55-.04-.89.2-.21.44-.55.68-.44.11-.79.35-.41.15-.76.39-.29.33-.63.57-.3.31-.64.56-.4.17-.74.42-.22.42-.56.67-.56-.06-.9.19-.25.38-.6.62-.27.35-.61.59-.24.39-.59.63-.53-.02-.88.22-.18.47-.53.72-.36.22-.71.46-.36.22-.7.47-.42.13-.77.38-.25.38-.59.63-.49.03-.84.27-.29.33-.63.57-.27.35-.61.6-.3.3-.64.55-.35.24-.69.48-.57-.08-.92.16-.3.31-.64.56-.24.4-.58.64-.47.07-.81.31-.38.19-.73.43-.34.25-.69.49-.31.29-.66.54-.21.43-.56.67-.35.24-.7.48-.32.28-.67.52-.49.04-.84.28-.21.43-.56.68-.54-.03-.89.21-.12.56-.47.8-.45.09-.8.33-.39.18-.73.43-.15.52-.49.76-.33.26-.68.51-.39.19-.73.43-.55-.05-.9.19-.13.55-.47.8-.43.12-.78.37-.5.02-.85.27-.08.61-.43.86-.39.18-.74.42-.52,0-.87.24-.29.33-.63.57-.25.37-.6.62-.38.19-.73.44-.26.36-.6.61-.56-.07-.9.18-.25.38-.59.62-.27.34-.61.59-.27.35-.61.59-.43.12-.78.36-.49.04-.83.28-.15.51-.5.76-.56-.06-.9.18-.32.28-.67.52-.33.27-.68.51-.22.43-.56.67-.28.33-.63.58-.52,0-.87.24-.22.41-.57.66-.43.13-.77.37-.4.17-.74.41-.14.53-.48.77-.37.21-.71.45-.41.15-.75.39-.23.4-.57.65-.59-.1-.93.14-.13.55-.47.8-.34.26-.68.5-.45.1-.79.34-.28.33-.63.58-.36.23-.7.47-.36.22-.71.47-.32.28-.67.52-.32.28-.66.53-.54-.03-.89.21-.26.36-.61.61-.3.31-.65.55-.29.33-.63.57-.31.3-.65.54-.32.27-.67.52-.4.16-.75.41-.5.02-.85.27-.2.46-.55.7-.45.1-.79.35-.23.42-.57.66-.51.01-.86.26-.2.45-.55.69-.29.33-.63.58-.35.25-.69.49-.33.27-.68.51-.55-.05-.9.2-.32.29-.66.53-.2.45-.55.69-.35.24-.69.48-.34.26-.68.5-.51,0-.86.25-.33.27-.67.52-.29.33-.64.57-.45.11-.79.35-.3.31-.65.56-.26.36-.61.61-.35.25-.69.5-.4.17-.75.42-.26.37-.61.62-.35.25-.7.5-.32.29-.66.54-.43.13-.78.37-.27.36-.62.6-.38.21-.72.46-.41.17-.76.41-.42.15-.77.4-.33.27-.68.52"/>
  <path class="st0" d="M178.82,28.57c-.35.24-.57-.07-.91.17s-.15.52-.5.76-.55-.05-.9.19-.23.41-.57.66-.44.11-.79.35-.16.5-.51.74-.48.05-.83.29-.22.42-.56.67-.34.25-.69.49-.48.05-.83.29-.19.46-.54.7-.43.12-.78.36-.47.06-.82.3-.12.56-.47.8-.52,0-.87.23-.28.34-.62.58-.34.25-.69.49-.32.28-.67.52-.31.29-.65.54-.43.13-.77.37-.22.42-.56.67-.35.23-.7.47-.32.27-.67.52-.38.19-.73.43-.4.17-.74.41-.32.28-.66.52-.26.36-.61.6-.56-.07-.91.17-.16.5-.51.74-.32.27-.67.51-.52,0-.86.24-.24.39-.58.64-.37.21-.71.45-.42.14-.76.38-.23.41-.58.65-.38.19-.73.43-.32.28-.67.52-.43.12-.77.37-.2.46-.54.7-.44.1-.79.35-.42.13-.77.38-.31.3-.65.54-.4.16-.75.4-.36.23-.7.47-.29.33-.63.57-.21.44-.55.68-.49.04-.83.29-.32.28-.66.53-.37.21-.72.45-.26.36-.61.61-.33.27-.68.51-.37.21-.72.45-.36.22-.71.46-.43.12-.78.37-.22.42-.57.66-.45.09-.8.34-.25.39-.59.63-.44.1-.79.35-.39.18-.74.42-.31.29-.66.54-.21.44-.56.68-.44.11-.79.36-.39.18-.74.42-.23.41-.58.65-.47.07-.82.31-.33.27-.68.51-.31.3-.65.55-.28.35-.62.59-.52,0-.87.24-.24.39-.59.64-.39.18-.74.43-.4.17-.74.41-.16.51-.5.76-.59-.1-.93.14-.32.28-.67.52-.31.3-.66.54-.24.39-.59.63-.44.11-.79.35-.43.13-.77.37-.28.34-.62.58-.15.52-.5.76-.48.05-.83.29-.27.36-.61.6-.31.29-.66.54-.54-.04-.89.21-.3.31-.65.55-.4.16-.75.4-.35.24-.69.48-.19.47-.54.71-.34.25-.69.49-.49.04-.83.29-.35.24-.7.48-.32.28-.66.53-.27.35-.62.59-.29.32-.64.56-.33.27-.67.52-.47.07-.81.32-.39.19-.73.43-.3.31-.65.56-.3.32-.64.56-.45.1-.8.35-.32.28-.67.52-.43.13-.78.37-.3.32-.64.56-.26.36-.61.61-.33.27-.67.52-.37.21-.72.46-.4.17-.75.41-.44.11-.79.36-.19.47-.53.72-.48.05-.83.29-.24.39-.59.64-.38.19-.73.43-.22.43-.56.67-.32.29-.66.53-.37.21-.72.45-.4.17-.74.42-.28.34-.63.58-.62-.14-.97.1-.31.3-.66.54-.32.28-.67.52-.32.28-.67.52-.21.44-.56.68-.53-.01-.88.23-.24.39-.59.64-.5.03-.85.27-.15.52-.5.77-.33.27-.68.51-.43.13-.78.37-.26.37-.61.61-.5.03-.84.28-.29.33-.64.57-.25.38-.6.62-.57-.07-.92.17-.15.52-.5.77-.39.19-.73.43-.49.04-.84.28-.28.33-.63.58-.31.3-.65.55-.2.45-.55.7-.58-.08-.92.16-.28.34-.63.58-.39.18-.74.42-.32.28-.67.52-.21.44-.56.69-.45.1-.8.34-.27.35-.62.6-.42.15-.76.39-.31.29-.66.54-.42.14-.77.38-.21.43-.56.67-.31.29-.66.53-.34.25-.69.49-.46.09-.8.33-.27.35-.62.59-.43.13-.78.37-.49.04-.84.28-.11.58-.46.83-.37.21-.72.45-.38.2-.73.44-.31.3-.66.55-.53-.01-.88.23-.21.45-.55.69-.43.12-.78.37-.28.34-.63.58-.34.25-.69.49-.44.12-.78.36-.38.2-.73.44-.2.45-.55.7-.4.17-.75.41-.35.24-.7.48-.47.07-.82.31-.25.39-.59.63-.46.08-.81.33-.36.23-.7.48-.1.6-.45.85-.39.18-.74.42-.48.06-.83.3-.4.17-.75.41-.35.24-.7.49-.29.33-.64.57-.25.39-.6.63-.45.1-.8.34-.38.2-.72.45-.13.56-.47.81-.55-.05-.9.2-.4.17-.75.42-.26.38-.61.62-.32.29-.67.54-.43.12-.78.37-.39.18-.74.43-.36.23-.71.48-.24.4-.59.64-.37.22-.72.46-.36.23-.71.47-.36.23-.71.48-.18.48-.53.73-.47.07-.82.31-.33.26-.68.5-.31.3-.66.54-.36.23-.7.48-.36.22-.71.47-.33.28-.68.52-.27.35-.62.6-.37.21-.72.45-.48.06-.83.3-.19.47-.54.72-.33.28-.68.53-.45.11-.8.35-.51.02-.86.27-.29.34-.64.59-.4.17-.75.42-.22.43-.57.67-.47.08-.82.33-.18.49-.53.74-.56-.04-.91.21-.3.32-.66.57"/>
  <path class="st0" d="M190.85,30.61c-.35.24-.57-.07-.91.17s-.27.36-.61.6-.34.25-.69.49-.33.27-.67.51-.49.04-.84.28-.12.57-.47.81-.44.11-.79.35-.41.16-.75.4-.37.21-.72.46-.31.29-.66.54-.21.44-.56.69-.31.3-.65.55-.62-.14-.96.1-.12.57-.47.81-.32.28-.67.52-.33.27-.68.51-.51.02-.85.26-.33.27-.67.51-.26.37-.6.62-.32.28-.67.52-.58-.09-.93.15-.36.23-.7.47-.24.39-.59.64-.41.15-.76.39-.34.26-.68.5-.35.24-.69.48-.13.54-.48.79-.54-.04-.89.21-.38.19-.73.43-.36.22-.71.46-.15.52-.5.76-.49.04-.83.28-.25.37-.6.62-.38.19-.73.43-.34.26-.68.5-.47.07-.81.31-.16.5-.51.74-.28.33-.63.57-.48.05-.82.29-.25.37-.6.62-.51,0-.86.24-.16.51-.5.75-.33.27-.67.51-.44.11-.78.35-.25.38-.59.62-.4.17-.74.41-.31.29-.65.53-.53-.02-.88.22-.2.45-.54.69-.43.12-.78.36-.29.33-.63.57-.41.16-.75.4-.19.46-.54.71-.5.01-.85.26-.36.22-.71.46-.4.16-.75.4-.34.25-.69.49-.14.54-.48.78-.37.2-.72.44-.55-.05-.89.2-.23.4-.58.65-.3.31-.65.55-.33.27-.68.51-.48.04-.83.29-.31.3-.65.54-.3.31-.64.55-.47.06-.82.31-.34.26-.68.5-.36.23-.7.47-.19.47-.54.71-.38.2-.73.44-.34.26-.68.5-.34.25-.69.5-.29.33-.64.57-.31.3-.66.54-.31.29-.66.54-.61-.13-.96.12-.23.42-.58.66-.24.4-.59.64-.6-.12-.95.13-.25.38-.6.63-.33.27-.68.51-.35.24-.69.49-.28.33-.63.58-.4.16-.75.41-.36.22-.71.47-.42.14-.76.39-.11.57-.46.82-.52,0-.87.23-.34.25-.69.49-.19.47-.53.71-.52,0-.87.24-.32.29-.66.53-.24.39-.59.64-.41.16-.75.4-.35.24-.7.48-.43.13-.77.37-.4.16-.75.4-.32.29-.66.53-.25.38-.6.62-.24.4-.59.64-.32.29-.66.53-.5.03-.85.27-.24.4-.59.64-.56-.06-.9.19-.21.44-.55.69-.23.41-.58.65-.57-.08-.92.16-.29.33-.63.57-.2.45-.55.7-.55-.04-.89.2-.3.3-.65.55-.38.2-.72.45-.36.23-.7.47-.17.5-.51.75-.36.23-.71.47-.4.17-.75.41-.35.24-.7.48-.35.24-.7.49-.37.22-.72.46-.47.08-.81.32-.4.17-.74.42-.1.59-.45.84-.34.25-.69.5-.4.17-.75.41-.44.11-.79.35-.42.14-.77.38-.24.39-.59.64-.35.24-.7.48-.41.16-.75.4-.34.25-.69.5-.42.14-.77.38-.16.51-.51.75-.46.08-.81.32-.38.2-.73.44-.3.31-.65.55-.2.46-.55.7-.45.1-.79.34-.21.44-.56.69-.61-.13-.96.11-.23.42-.57.66-.23.41-.58.65-.57-.07-.92.17-.17.49-.52.74-.33.27-.68.51-.45.1-.8.35-.37.21-.72.45-.36.22-.71.47-.27.35-.62.6-.22.43-.57.67-.43.13-.78.37-.44.11-.79.35-.36.22-.71.47-.21.43-.56.68-.4.17-.74.42-.35.24-.7.49-.29.32-.64.56-.48.06-.83.3-.44.12-.79.36-.2.46-.54.7-.43.12-.78.37-.19.48-.54.72-.47.07-.82.32-.38.21-.72.45-.22.42-.57.67-.32.28-.67.52-.46.09-.8.33-.47.07-.81.31-.33.26-.68.5-.29.32-.64.56-.39.18-.74.42-.29.33-.64.57-.25.39-.59.63-.42.13-.77.38-.25.39-.59.63-.34.25-.69.5-.49.05-.84.29-.15.53-.5.77-.48.05-.83.3-.48.05-.83.3-.13.56-.48.8-.47.07-.81.32-.4.17-.75.41-.37.21-.72.45-.16.51-.5.76-.46.08-.81.32-.24.4-.58.65-.5.03-.84.27-.41.16-.76.4-.1.59-.45.83-.56-.06-.91.19-.15.52-.5.77-.48.06-.82.31-.39.19-.73.44-.38.2-.73.45-.39.18-.74.42-.28.35-.63.59-.34.26-.69.5-.34.26-.68.51-.29.32-.64.57-.36.23-.71.47-.37.22-.71.46-.41.16-.76.41-.22.42-.57.67-.5.03-.85.28-.19.48-.54.72-.42.15-.77.39-.26.37-.61.61-.38.2-.73.45-.33.27-.68.52-.34.26-.69.51-.52,0-.87.25-.14.55-.49.8-.34.26-.69.5-.6-.12-.95.12-.09.61-.44.85-.41.16-.75.4-.55-.04-.9.2-.26.37-.61.62-.34.26-.69.5-.34.26-.69.51-.4.17-.75.41-.35.24-.7.49-.23.42-.58.66-.33.28-.68.52-.38.2-.73.44-.36.24-.71.48-.37.22-.72.47-.5.04-.85.28-.28.34-.63.59-.25.4-.6.65-.37.23-.72.47-.27.36-.63.61-.59-.09-.94.16"/>
  <path class="st0" d="M206.77,30.5c-.35.24-.28.33-.63.58s-.43.13-.77.37-.48.06-.82.3-.28.33-.63.57-.3.31-.64.56-.29.32-.64.57-.35.24-.69.49-.46.08-.8.33-.35.24-.69.49-.36.23-.7.47-.29.31-.64.55-.3.31-.64.55-.43.12-.77.36-.4.16-.75.4-.28.34-.62.58-.43.12-.78.36-.09.6-.44.84-.58-.1-.93.14-.21.44-.55.68-.29.33-.63.57-.33.26-.68.5-.4.16-.75.4-.3.3-.65.54-.34.25-.68.49-.4.17-.74.41-.44.11-.78.35-.23.4-.58.65-.37.21-.72.45-.4.16-.75.4-.31.3-.65.54-.31.3-.65.54-.49.04-.84.28-.33.27-.67.51-.34.25-.69.5-.15.53-.49.77-.51.02-.85.26-.27.35-.62.59-.45.09-.8.33-.31.3-.65.55-.44.12-.78.36-.09.61-.44.85-.46.08-.81.32-.29.33-.63.57-.31.29-.66.53-.34.25-.69.5-.55-.05-.9.19-.17.49-.52.74-.31.3-.66.54-.35.24-.69.48-.4.17-.75.41-.45.09-.8.33-.23.4-.58.65-.31.3-.65.54-.54-.03-.88.21-.35.23-.7.48-.3.3-.65.54-.24.4-.58.64-.4.16-.75.41-.45.1-.79.34-.2.45-.54.69-.45.09-.79.34-.17.5-.51.74-.44.11-.78.35-.31.29-.66.53-.43.12-.78.36-.46.07-.81.31-.12.56-.47.8-.5.02-.85.26-.42.13-.77.38-.21.44-.55.68-.46.08-.81.32-.26.36-.61.6-.32.28-.66.52-.43.12-.78.36-.19.46-.53.71-.47.06-.82.3-.24.4-.58.64-.28.33-.63.57-.33.27-.67.51-.61-.14-.96.11-.17.49-.52.73-.51,0-.86.24-.29.32-.63.57-.2.45-.55.69-.53-.02-.87.22-.35.24-.69.48-.25.38-.59.63-.39.18-.74.42-.36.22-.71.46-.23.41-.57.65-.34.25-.68.49-.37.21-.72.45-.35.23-.7.48-.27.35-.62.59-.45.09-.8.34-.29.33-.63.57-.36.23-.71.47-.37.2-.72.45-.35.24-.7.48-.24.39-.59.64-.33.27-.68.51-.43.12-.78.37-.49.05-.83.29-.1.59-.45.83-.51.01-.86.25-.24.39-.59.64-.34.26-.68.5-.36.23-.71.47-.44.11-.79.35-.46.09-.81.33-.36.23-.7.47-.12.57-.47.81-.51.01-.86.26-.15.52-.5.76-.4.16-.75.41-.54-.03-.88.22-.31.29-.66.53-.39.19-.73.43-.11.58-.45.83-.57-.08-.92.16-.28.33-.63.58-.41.15-.76.39-.1.59-.45.83-.55-.05-.9.19-.16.51-.5.75-.55-.05-.9.19-.11.57-.46.82-.43.13-.77.37-.48.06-.82.3-.39.19-.73.43-.24.39-.59.63-.44.11-.78.36-.19.47-.53.71-.46.08-.81.32-.36.22-.71.46-.3.31-.65.55-.18.47-.53.72-.32.28-.67.52-.5.03-.84.27-.3.31-.64.56-.44.11-.79.35-.38.2-.73.44-.18.48-.53.72-.37.21-.72.46-.3.31-.65.56-.45.1-.8.35-.37.21-.72.46-.32.29-.67.53-.45.1-.8.34-.22.43-.57.67-.37.21-.72.45-.42.14-.77.39-.39.18-.74.43-.19.47-.53.72-.55-.04-.89.2-.31.3-.65.55-.23.41-.58.65-.28.34-.62.59-.38.2-.73.44-.35.24-.7.48-.33.27-.68.51-.42.13-.77.38-.4.17-.75.41-.27.36-.61.6-.23.4-.58.65-.39.18-.74.42-.42.14-.76.39-.23.41-.58.65-.62-.14-.97.1-.14.53-.49.78-.49.04-.84.28-.23.41-.58.66-.33.27-.68.52-.4.16-.75.41-.34.25-.69.5-.49.04-.84.28-.26.37-.61.62-.4.17-.75.41-.37.21-.72.46-.25.39-.59.63-.33.27-.68.52-.46.09-.8.33-.37.21-.72.45-.25.38-.6.62-.26.37-.61.62-.4.17-.75.42-.2.45-.55.69-.52,0-.86.25-.4.18-.74.42-.31.3-.65.55-.22.42-.57.67-.43.12-.78.37-.37.22-.71.46-.31.3-.66.55-.3.31-.65.55-.51,0-.86.25-.15.51-.5.76-.49.04-.83.28-.41.14-.76.39-.31.29-.66.53-.25.38-.6.62-.5.02-.85.27-.18.49-.52.73-.27.36-.61.61-.52,0-.87.24-.2.46-.55.7-.55-.05-.9.2-.38.2-.72.45-.27.36-.62.6-.36.23-.7.48-.34.25-.69.5-.34.26-.68.5-.23.41-.57.66-.45.09-.8.33-.32.28-.67.52-.3.31-.65.55-.35.24-.7.48-.35.23-.7.48-.24.39-.59.64-.53-.01-.87.23-.23.41-.58.65-.55-.04-.9.21-.09.61-.44.85-.36.24-.71.48-.48.06-.83.3-.32.29-.67.53-.33.26-.68.51-.43.13-.78.38-.26.37-.61.61-.34.25-.69.49-.46.08-.81.33-.28.34-.63.58-.43.13-.78.37-.36.23-.71.48-.3.32-.65.57-.42.15-.77.39-.34.26-.69.51-.19.47-.54.72-.28.35-.63.59-.38.21-.73.45-.55-.03-.9.21-.25.38-.6.63-.25.38-.6.63-.5.02-.85.27-.19.47-.53.72-.32.28-.67.52-.5.03-.84.28-.38.2-.73.44-.32.29-.67.53-.4.17-.75.41-.14.55-.49.79-.44.12-.79.36-.5.03-.86.28-.22.43-.57.68-.48.06-.83.31-.28.35-.63.59-.33.27-.69.52-.35.25-.7.49-.34.26-.69.51-.3.33-.65.57-.31.31-.66.55-.3.32-.66.57-.41.17-.76.42"/>
  <path class="st0" d="M224.72,29.43c-.35.24-.36.23-.7.47s-.4.17-.75.41-.39.19-.73.43-.17.49-.52.73-.29.32-.64.56-.37.21-.72.45-.35.24-.69.49-.56-.06-.91.18-.27.35-.62.59-.33.27-.67.52-.41.15-.76.39-.29.32-.64.56-.23.41-.57.66-.44.1-.79.35-.43.13-.77.37-.38.19-.73.44-.11.58-.45.83-.47.07-.81.32-.25.37-.6.62-.33.26-.68.51-.42.14-.77.38-.23.41-.57.66-.5.02-.85.27-.37.21-.71.46-.22.43-.56.67-.43.12-.78.36-.33.27-.67.51-.29.32-.63.57-.55-.05-.9.19-.13.54-.48.78-.42.13-.76.37-.39.17-.74.41-.28.33-.62.58-.52,0-.86.23-.23.4-.58.64-.27.35-.61.59-.29.31-.64.55-.33.26-.67.51-.45.1-.79.34-.24.39-.58.63-.42.13-.77.37-.27.35-.61.6-.36.22-.71.46-.54-.03-.88.21-.25.38-.6.62-.21.43-.56.67-.59-.11-.94.13-.29.33-.63.57-.18.48-.52.73-.37.21-.71.46-.46.09-.8.33-.3.31-.65.55-.39.18-.74.42-.41.16-.75.4-.15.52-.5.77-.36.22-.71.47-.46.08-.81.33-.38.2-.73.44-.32.28-.67.52-.33.27-.68.51-.38.2-.72.44-.24.39-.59.64-.46.09-.8.33-.44.11-.78.36-.24.39-.59.63-.34.26-.68.5-.43.13-.77.37-.3.31-.64.55-.35.24-.69.49-.31.29-.66.53-.42.14-.76.39-.34.25-.68.5-.25.38-.6.62-.48.05-.83.29-.31.29-.66.53-.28.33-.63.57-.35.23-.7.47-.27.36-.61.6-.43.12-.77.37-.44.11-.79.35-.21.44-.55.68-.28.33-.63.57-.32.27-.67.51-.39.18-.73.42-.28.33-.62.58-.47.06-.82.3-.46.08-.81.32-.23.41-.57.65-.24.4-.58.64-.47.06-.82.3-.32.27-.67.51-.22.43-.56.67-.44.1-.79.34-.41.15-.75.39-.27.34-.62.59-.42.14-.76.38-.39.18-.73.42-.32.28-.66.52-.27.35-.61.59-.24.39-.59.63-.35.24-.69.48-.6-.12-.94.12-.35.24-.69.48-.09.6-.44.84-.35.24-.69.48-.56-.06-.9.18-.36.22-.7.46-.13.55-.47.8-.44.1-.79.34-.42.13-.77.37-.39.18-.73.43-.28.34-.62.59-.38.2-.72.44-.36.23-.7.47-.19.47-.53.71-.37.21-.72.45-.31.3-.65.54-.38.2-.72.44-.55-.04-.89.2-.16.5-.51.75-.45.1-.79.34-.25.38-.6.62-.31.3-.65.54-.35.24-.7.48-.4.17-.75.41-.42.15-.76.39-.21.43-.56.68-.44.11-.79.36-.34.26-.69.5-.27.35-.62.59-.53-.02-.88.23-.25.38-.6.62-.24.39-.59.63-.5.02-.85.26-.37.21-.72.45-.37.2-.72.45-.18.47-.53.72-.26.37-.61.61-.35.24-.7.48-.55-.05-.9.19-.18.48-.53.72-.41.16-.75.4-.4.17-.74.41-.26.36-.61.6-.3.3-.65.55-.32.27-.67.52-.4.17-.74.41-.49.03-.84.28-.14.54-.48.78-.52,0-.86.24-.41.15-.76.39-.26.37-.6.61-.29.32-.64.56-.3.31-.64.56-.56-.06-.91.18-.16.51-.5.75-.49.03-.84.28-.21.44-.55.68-.36.23-.7.47-.49.04-.83.29-.31.3-.65.54-.16.5-.51.75-.58-.08-.92.16-.38.2-.73.44-.29.32-.64.56-.38.19-.73.44-.08.62-.43.86-.49.03-.84.28-.43.13-.78.37-.4.17-.75.41-.17.5-.52.74-.51.02-.85.26-.13.55-.48.8-.4.17-.75.41-.42.14-.77.38-.2.45-.55.69-.52,0-.87.24-.4.17-.74.42-.21.44-.55.68-.32.28-.67.52-.34.26-.68.5-.34.25-.69.5-.38.2-.72.44-.49.04-.84.28-.17.49-.52.73-.49.03-.84.28-.28.34-.63.58-.4.17-.74.42-.16.52-.5.76-.49.03-.84.28-.25.38-.6.62-.45.1-.8.34-.27.36-.62.6-.44.12-.79.36-.4.17-.75.42-.28.34-.63.59-.22.42-.57.67-.48.05-.83.29-.26.37-.6.62-.52,0-.87.24-.34.25-.69.5-.24.39-.59.63-.31.3-.65.55-.26.37-.61.61-.59-.11-.94.14-.2.46-.54.7-.45.1-.79.35-.34.25-.69.49-.16.52-.5.76-.38.2-.73.44-.33.26-.68.51-.46.08-.81.33-.37.22-.71.46-.33.28-.67.52-.24.4-.59.64-.45.1-.79.34-.23.41-.57.65-.35.24-.69.48-.4.17-.74.41-.28.33-.63.58-.57-.08-.92.16-.15.53-.5.77-.35.24-.69.49-.38.2-.73.44-.52,0-.86.25-.28.34-.63.59-.3.32-.65.56-.35.24-.7.48-.36.22-.71.46-.37.21-.72.45-.26.36-.61.6-.42.14-.77.38-.37.22-.71.46-.38.19-.73.43-.15.53-.49.77-.56-.05-.9.19-.19.46-.54.71-.34.26-.68.5-.51.01-.86.26-.27.35-.62.6-.38.2-.73.44-.28.35-.63.59-.38.2-.73.44-.26.37-.61.62-.57-.08-.92.17-.27.35-.62.6-.39.18-.74.42-.18.48-.53.72-.35.24-.7.49-.4.18-.74.42-.46.08-.81.33-.36.23-.71.48-.39.19-.74.44-.24.4-.59.65-.26.38-.61.62-.53-.01-.88.23-.23.41-.58.66-.48.05-.83.3-.33.27-.68.52-.33.27-.68.52-.23.41-.58.66-.37.21-.72.45-.39.19-.73.43-.34.25-.69.5-.41.15-.76.39-.16.51-.51.76-.54-.03-.89.21-.3.31-.65.56-.17.5-.52.74-.4.17-.75.42-.39.18-.74.43-.32.29-.67.54-.4.18-.75.42-.25.39-.6.63-.57-.06-.92.19-.11.59-.46.84-.49.05-.84.3-.45.1-.8.35-.13.56-.49.8-.51.02-.86.27-.17.5-.53.75-.5.04-.85.29"/>
  <path class="st0" d="M227.63,37.3c-.35.24-.3.3-.65.55s-.4.17-.75.41-.14.53-.49.77-.54-.03-.89.21-.22.43-.56.67-.47.07-.81.31-.16.51-.51.75-.3.31-.65.55-.63-.16-.97.09-.24.4-.59.64-.39.19-.73.43-.35.24-.7.48-.37.22-.71.46-.13.56-.47.8-.37.2-.72.45-.33.27-.68.51-.58-.1-.93.15-.3.32-.64.56-.17.49-.52.74-.51.01-.86.26-.39.18-.74.42-.31.29-.66.53-.33.27-.67.51-.45.1-.79.34-.22.42-.57.66-.25.38-.6.62-.53-.02-.88.22-.28.34-.62.59-.37.21-.71.46-.25.38-.59.63-.39.18-.74.42-.46.08-.81.32-.11.58-.46.82-.45.09-.8.33-.34.25-.69.5-.23.4-.58.65-.41.15-.76.39-.37.21-.72.45-.41.15-.76.39-.33.26-.68.5-.41.14-.76.38-.34.25-.68.49-.15.52-.49.76-.44.1-.79.34-.41.15-.75.39-.25.38-.59.62-.43.11-.78.36-.44.11-.79.35-.13.55-.47.8-.42.14-.76.38-.46.08-.8.32-.17.49-.52.73-.44.11-.78.35-.36.22-.71.46-.2.45-.55.69-.5.02-.85.26-.42.13-.77.38-.11.58-.46.82-.37.21-.71.45-.37.2-.72.44-.5.03-.84.27-.3.31-.65.55-.46.08-.81.32-.11.58-.46.82-.44.11-.79.35-.32.28-.67.52-.42.13-.77.37-.24.39-.59.64-.36.23-.71.47-.51.01-.86.25-.16.51-.51.75-.56-.06-.9.19-.09.61-.44.86-.4.16-.75.41-.44.1-.79.35-.26.36-.61.6-.44.11-.79.35-.25.38-.6.62-.34.26-.68.5-.45.09-.8.33-.4.17-.75.41-.16.51-.5.76-.34.25-.68.5-.52,0-.86.24-.23.41-.57.65-.48.05-.83.29-.15.52-.5.76-.44.1-.79.34-.32.28-.66.53-.26.37-.6.61-.51.01-.85.25-.26.36-.61.6-.29.32-.63.57-.36.22-.71.46-.52-.01-.87.23-.28.34-.62.58-.2.44-.55.68-.5.02-.85.26-.38.19-.72.43-.26.37-.6.61-.41.15-.75.39-.44.1-.79.35-.14.53-.49.77-.33.26-.68.5-.35.23-.7.47-.53-.03-.88.21-.25.38-.6.62-.34.25-.69.49-.46.07-.81.32-.3.31-.64.55-.25.38-.59.63-.41.15-.76.39-.18.47-.53.71-.38.19-.73.43-.38.2-.72.44-.32.28-.67.52-.56-.07-.91.18-.31.29-.66.54-.36.22-.71.47-.15.52-.5.76-.49.03-.84.27-.31.29-.66.54-.24.4-.58.64-.42.14-.77.38-.48.06-.82.3-.13.55-.48.79-.48.05-.83.29-.38.2-.73.44-.36.22-.71.46-.25.39-.59.63-.51,0-.86.25-.16.51-.51.75-.37.21-.72.45-.48.05-.83.3-.27.35-.62.59-.35.25-.69.49-.24.4-.59.64-.46.08-.81.32-.31.29-.66.53-.24.4-.59.64-.51,0-.86.25-.18.48-.53.72-.38.2-.73.44-.55-.05-.9.19-.32.29-.66.53-.14.53-.49.78-.33.27-.67.52-.55-.05-.9.19-.26.36-.61.61-.25.39-.59.63-.47.07-.82.31-.26.37-.61.61-.43.12-.78.36-.37.2-.72.44-.32.28-.67.52-.35.23-.7.48-.4.17-.75.41-.33.27-.68.51-.28.34-.62.59-.3.31-.65.55-.47.07-.81.31-.41.15-.76.4-.29.32-.64.56-.29.32-.64.57-.39.19-.73.43-.24.39-.59.63-.5.03-.85.27-.32.29-.66.53-.25.38-.6.63-.37.21-.72.45-.26.37-.61.61-.56-.06-.91.18-.37.21-.72.46-.14.54-.49.78-.4.16-.75.41-.42.14-.77.39-.22.43-.57.67-.39.18-.74.42-.25.38-.6.62-.35.24-.7.48-.49.04-.84.29-.29.32-.64.56-.45.1-.8.34-.14.54-.49.78-.5.02-.85.27-.44.11-.79.36-.12.57-.47.81-.61-.13-.96.11-.29.32-.64.56-.15.52-.5.76-.46.09-.8.33-.4.17-.75.41-.4.17-.74.41-.31.29-.66.54-.39.18-.74.43-.31.3-.66.54-.33.27-.68.51-.41.16-.75.4-.23.41-.58.65-.43.13-.78.37-.34.26-.69.5-.35.25-.7.49-.34.26-.68.51-.36.23-.71.47-.43.12-.78.37-.31.29-.66.54-.31.29-.66.54-.31.29-.66.54-.23.42-.58.66-.54-.03-.89.22-.26.37-.61.61-.48.06-.82.3-.13.55-.48.79-.35.24-.7.48-.3.32-.65.56-.51.02-.85.26-.25.39-.6.63-.38.19-.73.43-.47.07-.82.32-.2.46-.55.71-.42.14-.77.39-.4.17-.75.42-.17.49-.52.74-.35.24-.7.48-.36.23-.71.47-.31.3-.65.54-.35.24-.69.48-.63-.16-.97.08-.13.55-.48.8-.37.2-.72.45-.35.24-.7.48-.48.06-.82.3-.21.44-.56.68-.35.24-.7.48-.52,0-.87.24-.32.29-.67.53-.27.36-.62.6-.44.11-.79.35-.14.55-.48.79-.43.13-.78.37-.41.15-.76.39-.45.1-.8.34-.21.44-.56.69-.42.14-.77.38-.14.54-.49.78-.49.04-.84.28-.34.25-.69.49-.23.41-.58.66-.41.16-.75.4-.27.35-.62.59-.5.02-.85.27-.31.31-.66.55-.23.42-.58.66-.61-.13-.96.11-.33.27-.68.51-.3.31-.65.56-.3.32-.64.56-.37.22-.71.46-.33.27-.68.51-.41.16-.76.4-.31.3-.66.54-.32.29-.67.53-.34.26-.69.5-.43.13-.78.37-.2.46-.55.7-.54-.04-.89.21-.28.35-.63.59-.42.14-.77.39-.35.24-.7.49-.17.5-.52.75-.51.01-.86.26-.29.34-.64.58-.32.29-.66.53-.47.07-.82.31-.27.35-.62.6-.44.11-.79.35-.35.25-.7.49-.11.59-.46.84-.37.21-.72.46-.38.21-.72.45-.31.31-.66.55-.35.25-.7.49-.56-.06-.92.18-.31.31-.66.56-.35.25-.7.5-.23.41-.59.66-.45.1-.8.35-.27.36-.62.6-.49.05-.84.29-.34.26-.69.51-.25.4-.6.65-.43.14-.78.39"/>
  <path class="st0" d="M225.41,50.37c-.35.24-.13.55-.48.79s-.36.22-.71.46-.47.07-.81.31-.31.3-.65.54-.29.33-.64.57-.55-.05-.9.19-.33.27-.68.51-.3.31-.65.55-.43.13-.77.37-.18.48-.53.72-.4.17-.74.41-.37.21-.72.45-.2.45-.55.69-.53-.03-.88.22-.31.3-.65.54-.42.13-.77.37-.3.3-.65.55-.28.34-.63.58-.42.13-.77.38-.37.21-.72.45-.16.52-.5.76-.44.11-.79.35-.43.12-.78.36-.16.5-.51.75-.4.16-.75.4-.51,0-.86.24-.26.36-.61.6-.28.33-.63.57-.35.24-.7.48-.46.09-.8.33-.16.51-.51.75-.39.18-.74.42-.25.39-.59.63-.47.07-.82.31-.3.31-.65.55-.49.04-.83.28-.32.28-.66.52-.39.18-.73.42-.21.43-.56.67-.33.26-.68.5-.46.08-.8.32-.42.14-.76.38-.12.56-.47.8-.57-.08-.92.16-.11.59-.45.83-.38.18-.73.42-.38.19-.72.43-.47.06-.82.3-.32.28-.66.52-.39.18-.74.42-.1.6-.45.84-.6-.13-.95.11-.13.56-.47.8-.37.21-.72.45-.53-.02-.88.22-.17.5-.51.74-.54-.03-.88.21-.24.4-.59.64-.21.44-.56.68-.52,0-.86.24-.35.24-.7.48-.18.48-.53.72-.42.13-.77.37-.25.39-.59.63-.52,0-.87.24-.44.11-.78.36-.19.47-.54.71-.52,0-.86.24-.16.51-.51.75-.44.1-.79.34-.19.47-.53.71-.35.24-.69.48-.58-.09-.92.15-.15.52-.5.76-.35.24-.69.48-.47.06-.82.3-.41.16-.75.4-.14.54-.49.78-.37.21-.71.45-.38.19-.73.43-.33.26-.68.5-.32.27-.67.52-.29.31-.64.56-.6-.12-.95.12-.11.58-.45.82-.33.26-.68.5-.41.14-.76.38-.45.1-.79.34-.36.22-.71.46-.31.29-.66.53-.35.23-.7.47-.29.31-.64.55-.5.02-.85.26-.31.3-.65.54-.18.47-.53.71-.54-.04-.89.2-.31.29-.66.53-.12.57-.46.81-.53-.02-.87.22-.23.4-.58.64-.33.26-.68.5-.43.12-.78.36-.41.15-.76.39-.22.41-.57.65-.25.37-.6.61-.45.1-.79.34-.51.01-.85.25-.35.24-.7.48-.17.49-.52.73-.31.29-.65.53-.48.05-.83.29-.34.26-.68.5-.22.42-.57.66-.37.2-.72.44-.36.23-.7.47-.51,0-.86.24-.29.32-.64.56-.21.43-.56.68-.35.23-.7.48-.34.26-.68.5-.45.09-.8.33-.26.37-.6.61-.51,0-.86.25-.21.44-.56.68-.41.16-.76.4-.37.21-.72.46-.32.27-.67.52-.35.25-.69.49-.32.28-.67.52-.26.36-.61.61-.48.06-.83.3-.39.19-.73.43-.41.16-.75.4-.11.59-.45.83-.39.19-.73.43-.47.07-.81.31-.3.31-.65.55-.43.13-.77.37-.23.41-.58.65-.24.39-.59.63-.37.21-.72.45-.58-.09-.93.15-.26.36-.61.6-.26.37-.61.61-.34.25-.69.49-.31.3-.65.54-.38.19-.73.44-.52-.01-.87.23-.19.47-.53.71-.48.05-.83.29-.21.44-.55.68-.34.24-.69.49-.41.15-.75.39-.48.04-.83.29-.11.58-.46.82-.31.29-.66.53-.4.16-.75.4-.49.04-.84.28-.18.48-.53.72-.45.09-.8.33-.25.38-.6.62-.51.02-.85.26-.22.43-.56.67-.31.29-.66.54-.4.16-.75.4-.39.18-.74.42-.35.24-.7.48-.45.09-.8.33-.26.38-.6.62-.37.21-.72.45-.18.48-.53.72-.51.02-.85.26-.44.12-.79.36-.1.6-.45.84-.58-.09-.93.16-.12.57-.47.81-.35.23-.7.48-.49.04-.84.28-.36.23-.7.47-.28.34-.63.58-.34.25-.69.49-.52-.01-.87.23-.32.28-.67.52-.16.51-.51.75-.3.31-.65.56-.59-.11-.94.13-.19.46-.54.71-.4.16-.75.4-.44.11-.78.36-.28.34-.62.59-.42.13-.77.38-.28.34-.63.58-.3.31-.65.55-.24.4-.58.65-.4.17-.75.41-.54-.03-.89.21-.25.38-.6.63-.25.38-.6.62-.45.1-.8.34-.18.49-.53.73-.43.13-.77.38-.33.27-.68.51-.34.26-.69.5-.38.19-.73.43-.26.37-.61.62-.34.25-.69.49-.46.09-.81.33-.49.04-.84.28-.1.6-.45.84-.48.05-.83.29-.45.09-.8.33-.33.26-.68.51-.33.26-.68.51-.32.29-.66.53-.34.25-.69.5-.38.2-.73.44-.37.21-.72.46-.21.45-.56.69-.54-.03-.89.22-.32.28-.67.53-.35.24-.69.48-.21.43-.56.67-.46.08-.81.32-.13.55-.48.79-.54-.03-.89.21-.31.3-.65.54-.43.13-.77.37-.2.45-.55.7-.33.27-.68.51-.41.16-.76.41-.42.14-.77.38-.25.39-.6.63-.43.12-.78.37-.38.2-.72.44-.29.33-.64.57-.3.3-.65.55-.48.05-.83.3-.25.38-.6.62-.27.36-.61.6-.56-.06-.9.18-.18.48-.53.73-.43.13-.78.37-.16.51-.51.75-.4.17-.74.42-.5.03-.85.27-.16.51-.51.76-.39.18-.74.43-.46.09-.81.33-.19.47-.54.71-.42.14-.77.38-.53-.02-.88.22-.22.43-.57.67-.45.1-.79.35-.27.36-.62.6-.46.08-.81.32-.36.23-.71.47-.08.63-.43.87-.47.07-.82.32-.45.1-.8.34-.18.49-.53.73-.35.25-.7.49-.46.09-.81.33-.2.46-.55.71-.44.12-.79.37-.36.23-.71.47-.34.26-.69.51-.37.21-.72.46-.45.1-.79.34-.21.44-.56.68-.51,0-.86.25-.26.37-.61.62-.39.19-.74.43-.22.43-.58.67-.53-.02-.88.23-.3.32-.65.56-.23.41-.58.66-.49.05-.84.29-.4.17-.76.41-.2.46-.55.71-.49.04-.85.29-.37.22-.72.47-.09.62-.44.87-.62-.14-.97.11-.3.32-.66.56-.36.24-.71.49-.14.56-.49.8-.49.05-.84.3"/>
  <path class="st0" d="M226.61,58.66c-.34.25-.42.14-.77.38s-.32.28-.66.53-.38.19-.73.44-.45.1-.79.35-.23.41-.57.65-.33.27-.67.52-.51.02-.85.26-.34.25-.68.5-.12.57-.46.81-.48.06-.82.31-.3.31-.64.56-.53-.01-.87.23-.33.27-.67.52-.17.49-.52.73-.28.34-.62.58-.6-.11-.94.14-.25.38-.59.63-.38.2-.72.45-.18.48-.52.73-.4.16-.75.41-.37.21-.72.46-.28.33-.63.58-.39.18-.74.43-.48.06-.82.3-.16.51-.5.75-.46.08-.81.33-.17.49-.51.74-.6-.12-.95.13-.25.37-.6.62-.42.14-.76.39-.09.6-.44.84-.55-.04-.89.21-.39.19-.73.43-.36.22-.71.47-.21.42-.56.67-.24.38-.58.63-.54-.03-.88.21-.12.56-.46.8-.49.03-.83.28-.43.12-.78.36-.21.43-.56.67-.28.34-.62.58-.44.1-.79.35-.22.42-.56.67-.42.14-.76.39-.5.02-.84.27-.34.24-.69.49-.36.22-.7.46-.06.64-.4.89-.51,0-.86.25-.21.43-.55.68-.41.15-.75.4-.41.16-.75.4-.32.28-.66.52-.42.14-.76.39-.17.49-.51.74-.48.05-.83.3-.26.37-.6.62-.49.04-.84.28-.28.34-.62.59-.32.28-.66.53-.37.21-.72.46-.45.1-.79.35-.26.37-.6.61-.19.46-.54.7-.57-.07-.91.18-.36.22-.71.47-.12.56-.47.81-.51.02-.85.26-.16.5-.51.75-.59-.1-.94.15-.34.25-.68.5-.32.28-.67.52-.28.33-.63.58-.24.4-.58.64-.52,0-.87.24-.12.57-.46.81-.56-.06-.91.18-.12.55-.47.8-.35.23-.7.48-.37.21-.71.45-.46.08-.8.33-.36.23-.7.47-.41.15-.76.39-.08.62-.42.86-.48.06-.82.31-.36.22-.7.47-.41.15-.75.4-.16.51-.5.75-.54-.03-.88.22-.3.3-.65.54-.28.33-.62.58-.48.05-.82.3-.35.24-.69.48-.14.53-.48.78-.53-.01-.87.23-.14.53-.48.77-.49.04-.83.29-.36.22-.71.46-.24.38-.59.63-.39.18-.73.43-.31.29-.65.54-.49.04-.83.29-.27.34-.62.59-.16.51-.5.75-.46.09-.8.33-.45.1-.79.34-.35.24-.69.49-.13.55-.47.79-.48.05-.82.3-.41.16-.75.4-.27.35-.61.6-.33.27-.67.51-.29.32-.63.57-.33.27-.67.52-.39.18-.73.43-.53-.02-.88.22-.27.35-.61.6-.36.22-.71.46-.36.22-.71.46-.38.2-.72.44-.05.65-.4.9-.55-.04-.89.2-.21.44-.55.68-.31.3-.65.54-.43.13-.78.37-.42.14-.76.39-.27.35-.62.59-.27.36-.61.6-.44.12-.78.36-.38.2-.73.44-.4.18-.74.42-.19.46-.54.71-.33.27-.67.52-.5.03-.84.28-.37.21-.71.46-.35.24-.69.49-.36.23-.7.48-.17.49-.52.74-.53-.01-.88.23-.32.27-.67.52-.28.34-.62.59-.27.35-.62.59-.27.35-.62.59-.57-.07-.91.18-.26.36-.61.6-.44.12-.78.36-.19.46-.54.7-.35.24-.69.48-.27.35-.62.59-.32.28-.66.53-.53-.01-.87.23-.34.25-.69.49-.35.24-.69.49-.18.48-.52.72-.39.18-.74.42-.27.35-.61.6-.57-.08-.92.17-.23.4-.58.65-.33.26-.68.51-.36.23-.7.48-.33.27-.68.51-.31.29-.66.54-.52,0-.87.25-.25.37-.6.62-.44.12-.78.37-.09.6-.44.85-.34.25-.69.5-.4.17-.75.42-.31.3-.65.55-.55-.03-.89.21-.35.25-.69.5-.32.28-.67.53-.16.51-.5.76-.59-.09-.93.16-.13.55-.48.79-.32.29-.66.54-.54-.02-.88.23-.18.48-.52.73-.46.09-.8.34-.46.09-.8.34-.37.21-.72.46-.15.51-.5.76-.43.13-.78.37-.44.11-.79.36-.23.41-.57.66-.21.43-.56.68-.5.03-.84.28-.29.32-.63.57-.35.24-.7.49-.33.27-.67.52-.27.35-.62.6-.52,0-.86.25-.27.36-.61.61-.4.17-.74.42-.18.48-.52.73-.36.23-.71.47-.47.08-.81.32-.23.41-.58.66-.39.19-.73.44-.43.12-.78.37-.24.4-.58.65-.44.12-.78.37-.41.16-.75.41-.35.24-.7.48-.2.45-.55.69-.51.02-.85.27-.38.2-.72.45-.28.34-.62.59-.28.34-.62.59-.23.4-.58.65-.53,0-.87.24-.37.21-.72.46-.34.26-.69.5-.41.15-.76.4-.35.24-.7.48-.23.41-.58.65-.45.11-.79.36-.26.36-.61.61-.35.24-.7.49-.33.27-.67.51-.37.2-.72.45-.3.3-.65.55-.42.14-.76.39-.32.28-.67.52-.23.41-.57.66-.32.29-.66.53-.55-.04-.9.2-.34.26-.68.51-.14.53-.49.78-.46.08-.81.33-.3.31-.65.56-.31.29-.66.54-.53-.02-.88.23-.19.47-.53.71-.35.24-.69.49-.4.17-.74.42-.4.16-.75.41-.38.2-.73.44-.27.36-.61.6-.33.27-.68.51-.29.33-.63.58-.46.09-.8.34-.24.39-.59.64-.23.41-.58.65-.42.14-.77.39-.52,0-.86.26-.18.48-.53.73-.47.08-.82.32-.17.49-.52.74-.54-.03-.89.22-.27.36-.61.61-.39.19-.73.44-.29.33-.63.58-.4.18-.74.42-.42.14-.77.39-.24.39-.59.64-.39.19-.74.44-.38.2-.73.45-.11.58-.46.82-.34.26-.68.51-.52,0-.87.25-.37.21-.72.46-.35.24-.7.49-.24.41-.58.65-.33.27-.68.52-.48.06-.83.31-.28.34-.63.59-.47.07-.82.31-.34.25-.69.49-.32.29-.66.53-.12.57-.46.82-.39.19-.74.44-.4.18-.75.43-.44.11-.79.36-.18.48-.53.73-.49.04-.84.29-.18.49-.53.74-.5.03-.85.28-.28.35-.62.6-.5.04-.85.29-.23.42-.58.67-.45.11-.8.36-.15.53-.5.78-.5.04-.85.29-.2.46-.55.71-.58-.07-.93.19-.1.6-.45.85"/>
  <path class="st0" d="M226.82,66.57c-.34.25-.36.23-.7.47s-.28.33-.63.58-.55-.04-.89.21-.41.16-.75.41-.3.3-.65.55-.23.41-.57.66-.5.03-.85.27-.19.46-.53.71-.44.12-.78.37-.22.42-.56.67-.3.31-.64.56-.33.27-.67.52-.46.08-.81.33-.46.09-.8.34-.26.36-.61.61-.37.21-.71.46-.14.53-.48.78-.5.03-.84.28-.42.14-.77.38-.36.22-.71.47-.21.43-.56.67-.24.38-.59.63-.53,0-.87.24-.3.31-.64.55-.19.45-.54.7-.42.14-.77.39-.49.05-.83.3-.23.41-.57.66-.32.28-.66.53-.42.14-.76.39-.15.52-.49.77-.36.23-.7.47-.44.12-.78.36-.35.23-.69.47-.42.13-.76.38-.21.42-.55.67-.52,0-.86.25-.3.3-.64.55-.35.24-.69.49-.12.55-.47.79-.49.05-.83.29-.27.34-.61.59-.5.03-.84.27-.38.19-.73.43-.29.32-.63.57-.4.17-.74.41-.1.58-.44.83-.53-.02-.87.23-.26.36-.6.61-.46.08-.81.33-.26.36-.61.6-.41.15-.75.4-.3.31-.64.55-.27.35-.61.6-.4.17-.74.42-.29.32-.64.56-.33.26-.68.51-.34.25-.68.5-.26.36-.6.61-.49.04-.83.29-.22.42-.56.67-.32.29-.66.54-.49.05-.83.3-.4.17-.74.42-.13.54-.48.79-.35.24-.69.49-.39.18-.73.43-.34.25-.68.5-.49.05-.83.3-.27.34-.62.59-.41.16-.75.4-.25.37-.6.62-.34.25-.69.5-.46.09-.8.33-.18.47-.53.72-.39.18-.74.42-.41.16-.75.4-.41.15-.75.4-.16.5-.5.75-.41.15-.75.4-.2.44-.55.69-.34.25-.68.5-.37.21-.71.46-.51.01-.85.26-.21.44-.55.68-.29.32-.63.57-.46.09-.8.34-.48.06-.82.31-.23.4-.58.64-.19.46-.53.7-.49.04-.83.29-.28.33-.62.58-.3.31-.64.55-.55-.04-.89.2-.15.52-.49.77-.36.22-.7.46-.39.18-.73.43-.29.31-.63.56-.5.03-.84.27-.37.21-.71.46-.13.53-.48.78-.54-.02-.88.22-.2.44-.55.68-.25.37-.6.62-.44.11-.78.35-.42.13-.77.38-.14.52-.49.77-.5.03-.84.28-.38.19-.73.44-.35.23-.69.48-.26.36-.6.61-.4.17-.74.41-.21.43-.56.67-.27.35-.61.59-.52,0-.86.25-.19.45-.54.7-.32.28-.66.53-.5.03-.85.27-.24.39-.59.63-.48.05-.83.3-.22.42-.56.67-.3.3-.65.55-.54-.02-.88.23-.27.35-.61.6-.3.31-.64.56-.5.03-.84.28-.14.53-.48.78-.3.31-.64.56-.44.12-.78.37-.43.13-.78.38-.28.34-.63.59-.37.21-.72.46-.31.3-.65.55-.51.02-.85.27-.17.49-.51.74-.29.32-.64.57-.4.18-.74.42-.3.31-.64.56-.35.24-.69.49-.45.1-.79.35-.41.15-.76.4-.26.36-.6.61-.26.37-.6.62-.48.05-.83.3-.26.36-.61.61-.28.34-.62.58-.54-.02-.88.22-.35.23-.7.48-.18.47-.52.72-.42.15-.76.4-.21.44-.55.68-.42.15-.76.39-.34.25-.68.5-.31.3-.65.55-.38.19-.73.44-.45.1-.79.35-.27.35-.61.6-.28.34-.62.58-.33.26-.68.51-.43.13-.77.38-.42.15-.76.39-.29.33-.63.57-.44.11-.78.36-.3.31-.64.56-.12.56-.46.81-.36.23-.7.48-.48.07-.82.31-.42.15-.76.4-.13.55-.47.79-.39.19-.73.44-.5.03-.85.28-.17.5-.51.75-.43.13-.78.38-.36.23-.71.47-.34.26-.68.51-.25.38-.59.63-.37.22-.71.47-.57-.07-.92.18-.3.32-.64.56-.3.3-.65.55-.25.38-.59.63-.29.32-.64.57-.54-.03-.89.22-.28.34-.62.59-.41.16-.75.41-.31.29-.66.54-.34.26-.68.51-.39.18-.74.43-.32.28-.67.53-.21.43-.56.68-.35.24-.7.49-.28.34-.62.59-.51.02-.85.27-.17.49-.51.74-.57-.06-.91.18-.29.32-.64.57-.2.45-.54.7-.45.1-.79.35-.46.09-.81.34-.28.34-.62.59-.2.45-.54.7-.31.3-.66.55-.34.25-.69.5-.35.24-.69.49-.41.16-.75.41-.47.07-.82.32-.13.54-.48.79-.34.26-.68.51-.57-.06-.91.18-.38.2-.72.45-.27.36-.61.61-.42.14-.76.39-.14.54-.48.78-.29.32-.64.57-.61-.11-.95.14-.24.39-.59.64-.26.37-.6.62-.32.28-.67.53-.45.11-.79.35-.45.1-.8.35-.3.31-.64.56-.21.43-.55.68-.43.12-.77.37-.45.1-.79.35-.34.26-.68.5-.26.37-.6.62-.29.32-.64.57-.38.2-.72.45-.32.28-.67.53-.45.11-.79.36-.37.21-.72.46-.29.33-.64.58-.31.29-.66.54-.16.51-.5.76-.53,0-.87.25-.42.15-.76.4-.35.23-.7.48-.31.3-.65.55-.2.44-.55.69-.41.15-.76.4-.38.2-.72.44-.26.36-.61.61-.39.19-.73.44-.38.19-.73.44-.38.2-.72.45-.18.48-.52.73-.37.22-.71.47-.38.2-.73.45-.36.24-.7.49-.22.42-.57.67-.52.01-.86.26-.28.34-.63.59-.37.21-.72.46-.37.21-.72.46-.27.35-.62.6-.24.39-.59.64-.45.1-.8.35-.35.24-.7.49-.44.12-.79.37-.18.47-.53.72-.31.29-.66.54-.49.05-.84.3-.21.44-.55.69-.47.07-.82.32-.22.42-.57.67-.49.05-.84.3-.29.33-.64.58-.26.37-.61.62-.32.28-.66.53-.35.25-.69.49-.54-.03-.89.22-.31.29-.66.54-.22.43-.56.68-.41.16-.76.42-.34.26-.68.51-.35.24-.7.49-.37.21-.72.46-.47.09-.81.34-.14.54-.49.79-.37.22-.71.47-.32.29-.67.54-.38.21-.72.46-.38.21-.72.46-.3.31-.65.56-.47.08-.82.34-.38.2-.73.46-.18.49-.53.74-.34.27-.69.53"/>
  <path class="st0" d="M227.37,77.32c-.34.25-.09.6-.43.85s-.44.11-.78.36-.32.28-.67.52-.48.06-.82.31-.12.55-.47.8-.4.16-.75.41-.4.17-.74.42-.34.25-.68.5-.25.38-.59.63-.58-.08-.92.17-.17.49-.51.74-.33.26-.68.51-.39.18-.74.43-.51.02-.85.27-.09.6-.43.85-.47.07-.82.31-.21.43-.56.67-.44.11-.79.36-.5.03-.84.28-.08.61-.42.86-.54-.03-.89.21-.15.52-.49.76-.53-.01-.87.24-.19.46-.53.71-.49.05-.83.3-.16.51-.5.75-.34.25-.69.49-.36.22-.7.47-.51.02-.85.26-.26.36-.6.61-.24.38-.58.63-.41.14-.76.39-.36.22-.7.47-.26.36-.6.61-.57-.07-.91.18-.13.54-.47.78-.43.12-.77.37-.37.2-.71.45-.28.33-.62.58-.44.11-.78.35-.36.22-.7.46-.15.51-.5.75-.49.04-.83.29-.31.29-.65.54-.27.35-.61.59-.37.21-.71.46-.33.26-.67.51-.45.1-.79.34-.17.48-.52.73-.53-.02-.87.23-.2.45-.54.7-.49.04-.83.29-.39.18-.73.43-.34.25-.69.49-.27.35-.61.6-.37.2-.72.45-.17.49-.51.74-.38.2-.72.44-.4.17-.74.42-.27.36-.61.6-.57-.07-.92.18-.31.29-.66.54-.32.29-.66.53-.39.18-.74.42-.19.47-.53.71-.27.35-.62.59-.36.23-.7.48-.34.25-.68.5-.32.27-.67.52-.37.21-.71.45-.56-.06-.91.19-.09.59-.44.84-.54-.02-.88.22-.26.37-.6.61-.37.2-.72.45-.32.28-.66.53-.22.42-.56.67-.4.17-.74.42-.56-.06-.9.19-.11.57-.45.82-.46.08-.8.33-.23.41-.57.65-.58-.09-.93.15-.13.55-.47.79-.45.09-.8.34-.2.44-.54.69-.56-.06-.91.18-.12.56-.46.8-.58-.09-.92.16-.15.52-.49.77-.53-.01-.87.23-.13.55-.47.79-.45.1-.79.34-.43.13-.77.37-.26.36-.6.61-.22.42-.56.67-.49.03-.84.28-.41.16-.75.4-.28.33-.62.58-.21.42-.56.67-.31.29-.65.54-.33.26-.68.5-.59-.1-.93.14-.35.24-.69.48-.35.24-.69.48-.32.28-.66.53-.32.28-.66.53-.22.41-.56.66-.42.13-.77.38-.17.49-.51.74-.46.08-.8.33-.22.41-.57.66-.49.04-.83.29-.21.43-.55.68-.32.28-.66.53-.47.07-.81.32-.32.28-.66.53-.41.15-.75.4-.28.33-.63.58-.5.02-.85.27-.1.59-.44.84-.51.01-.86.26-.17.49-.51.74-.41.15-.76.4-.28.34-.62.59-.35.25-.69.49-.45.11-.79.36-.39.18-.74.43-.36.23-.7.48-.34.25-.69.5-.26.37-.6.62-.38.2-.72.45-.5.03-.85.27-.24.39-.58.64-.2.45-.54.7-.56-.05-.9.19-.15.51-.5.76-.38.19-.73.44-.43.13-.77.38-.21.43-.55.68-.39.18-.74.42-.47.07-.81.32-.19.46-.53.71-.44.11-.79.36-.43.12-.78.37-.32.28-.66.53-.26.36-.61.6-.4.17-.74.42-.33.27-.67.51-.23.41-.57.65-.5.03-.84.28-.31.29-.65.54-.18.47-.52.72-.52,0-.87.25-.38.2-.72.45-.16.51-.5.75-.38.2-.72.44-.43.12-.78.37-.24.4-.58.64-.29.33-.63.57-.47.07-.82.31-.38.2-.72.45-.37.21-.71.46-.32.29-.66.53-.32.28-.66.53-.38.2-.73.45-.25.39-.59.63-.4.18-.74.43-.49.05-.83.3-.26.37-.6.62-.4.17-.74.42-.21.43-.56.68-.39.19-.73.44-.37.21-.72.46-.38.2-.72.45-.16.51-.5.75-.37.22-.71.47-.43.12-.78.37-.32.29-.66.53-.3.31-.64.56-.43.12-.78.37-.41.15-.76.4-.14.53-.48.78-.4.18-.74.42-.43.12-.78.37-.43.13-.77.38-.37.22-.71.46-.19.46-.54.71-.38.2-.72.45-.22.42-.56.67-.37.22-.71.47-.48.06-.83.3-.28.33-.63.58-.26.37-.6.62-.31.3-.65.55-.43.13-.77.38-.53,0-.87.24-.22.42-.57.67-.35.24-.69.49-.44.11-.79.36-.32.29-.66.54-.34.25-.69.5-.4.17-.74.42-.2.44-.55.69-.27.35-.62.6-.44.12-.78.37-.38.2-.72.45-.26.37-.6.62-.25.39-.59.63-.46.08-.81.33-.25.37-.6.62-.58-.08-.93.17-.18.48-.52.73-.3.31-.65.56-.36.23-.7.48-.49.04-.83.29-.35.23-.69.48-.23.41-.57.65-.4.17-.74.42-.21.43-.56.67-.38.2-.72.45-.43.13-.77.38-.27.35-.62.59-.42.14-.77.38-.27.35-.62.6-.35.24-.7.49-.53,0-.87.25-.27.35-.62.6-.32.28-.67.53-.43.13-.78.37-.28.33-.63.58-.16.5-.5.75-.54-.02-.88.23-.23.41-.57.66-.5.03-.84.28-.19.46-.53.71-.38.19-.73.44-.4.17-.74.42-.32.28-.67.53-.21.44-.55.69-.51.02-.85.27-.36.23-.71.47-.33.27-.68.52-.25.38-.6.63-.46.1-.8.34-.43.13-.77.38-.15.52-.5.76-.36.23-.7.48-.49.05-.84.29-.25.39-.59.63-.33.27-.68.51-.25.38-.6.63-.37.21-.72.46-.37.22-.72.47-.47.07-.82.32-.18.48-.53.73-.53,0-.87.25-.19.46-.54.71-.5.04-.84.29-.33.28-.67.53-.26.37-.6.62-.26.38-.6.62-.32.29-.67.53-.49.04-.84.29-.19.46-.54.71-.39.18-.74.43-.35.24-.7.49-.51.02-.86.27-.38.21-.73.46-.31.31-.65.56-.22.43-.56.68-.38.2-.73.45-.32.3-.66.55-.41.17-.76.42-.4.17-.75.42-.38.21-.73.46-.3.31-.65.56-.2.45-.55.7-.46.09-.81.34-.39.19-.74.44-.42.15-.77.41-.26.38-.61.63-.22.43-.57.68"/>
  <path class="st0" d="M226.61,89.66c-.34.25-.4.17-.74.41s-.39.19-.73.43-.26.36-.6.61-.34.25-.68.5-.32.28-.66.53-.56-.06-.91.19-.39.18-.73.43-.14.53-.49.77-.39.18-.73.43-.37.2-.72.45-.26.37-.6.61-.32.28-.66.53-.57-.07-.91.18-.09.6-.44.84-.39.18-.73.43-.45.1-.79.35-.24.39-.58.64-.39.18-.73.42-.51.01-.85.26-.09.6-.44.84-.48.06-.82.3-.47.07-.81.32-.15.52-.49.77-.37.2-.72.45-.45.09-.79.34-.3.3-.65.55-.29.32-.63.57-.48.05-.83.29-.22.41-.57.66-.28.33-.62.57-.36.21-.7.45-.48.04-.83.29-.39.17-.74.41-.32.28-.66.52-.13.54-.47.79-.31.28-.65.53-.37.2-.71.44-.54-.03-.88.21-.12.56-.46.8-.42.13-.76.38-.52-.01-.87.23-.06.63-.41.88-.44.11-.78.35-.48.05-.82.3-.11.57-.46.81-.6-.12-.95.12-.2.45-.54.69-.39.18-.73.42-.38.19-.72.44-.13.54-.47.79-.58-.08-.92.16-.28.33-.63.58-.26.36-.6.61-.39.17-.74.42-.21.43-.55.68-.54-.02-.88.22-.23.41-.57.65-.28.34-.62.58-.36.22-.71.47-.34.26-.68.5-.32.27-.67.52-.42.14-.76.39-.47.07-.81.32-.38.19-.72.44-.24.39-.59.63-.42.14-.76.39-.31.29-.66.53-.37.2-.72.45-.38.2-.72.44-.18.47-.52.72-.54-.04-.89.21-.21.43-.56.67-.38.2-.72.44-.25.37-.6.62-.27.35-.61.6-.38.19-.73.43-.43.12-.77.37-.26.36-.61.6-.31.3-.65.54-.57-.07-.91.18-.14.52-.49.77-.55-.04-.89.2-.18.47-.52.72-.47.07-.81.31-.26.37-.6.61-.44.11-.78.35-.19.46-.53.71-.38.2-.72.44-.23.4-.57.64-.45.09-.79.34-.5.02-.84.27-.23.4-.58.64-.23.4-.57.64-.58-.08-.92.16-.19.45-.54.7-.25.37-.59.62-.51,0-.86.25-.23.4-.57.65-.35.23-.69.48-.39.18-.73.42-.29.31-.64.56-.51,0-.85.25-.19.46-.53.71-.33.26-.67.51-.25.38-.59.62-.61-.13-.95.12-.23.41-.57.65-.39.18-.73.42-.19.46-.53.71-.36.22-.71.46-.33.26-.67.5-.37.2-.71.45-.43.12-.77.37-.27.35-.61.6-.47.06-.82.31-.33.26-.67.51-.17.49-.51.73-.42.14-.76.39-.23.41-.57.65-.51,0-.86.25-.2.45-.54.69-.44.11-.79.35-.49.04-.83.29-.34.25-.69.49-.1.59-.44.84-.55-.04-.89.2-.22.42-.56.67-.47.07-.81.32-.39.19-.73.43-.07.63-.42.88-.4.16-.75.41-.43.13-.77.37-.43.13-.77.38-.13.55-.47.79-.52,0-.87.24-.32.28-.66.53-.19.47-.53.71-.4.17-.74.41-.57-.07-.91.18-.17.48-.52.73-.42.14-.76.38-.34.25-.69.49-.24.4-.58.64-.27.35-.61.6-.42.14-.76.39-.42.13-.77.38-.33.26-.67.51-.32.28-.66.53-.31.29-.65.54-.31.29-.65.54-.51.01-.85.26-.28.34-.62.58-.2.45-.54.69-.33.26-.68.5-.45.1-.79.35-.42.14-.76.38-.39.19-.73.43-.29.32-.64.56-.36.22-.7.47-.42.14-.76.39-.22.42-.57.66-.44.12-.78.36-.37.21-.72.45-.16.51-.5.76-.52,0-.87.24-.13.55-.47.8-.44.11-.79.35-.47.07-.82.32-.28.34-.62.59-.24.39-.59.64-.4.17-.74.42-.46.08-.81.33-.16.5-.51.74-.4.17-.75.41-.3.31-.64.56-.31.3-.65.54-.49.04-.83.29-.3.31-.64.56-.4.17-.74.41-.18.47-.53.72-.45.09-.8.34-.3.31-.64.55-.38.19-.73.44-.36.22-.7.47-.34.26-.68.5-.4.17-.74.42-.23.41-.57.66-.41.15-.76.39-.44.11-.79.36-.25.38-.6.62-.2.45-.54.7-.54-.02-.88.22-.42.14-.77.39-.26.36-.61.61-.2.45-.55.69-.58-.08-.92.17-.09.61-.43.86-.34.25-.69.5-.62-.14-.97.11-.12.56-.46.81-.35.25-.69.49-.35.24-.69.49-.32.28-.67.53-.41.15-.76.4-.52,0-.87.24-.34.25-.68.5-.25.38-.6.62-.44.11-.79.35-.2.45-.54.7-.22.42-.56.67-.49.04-.84.29-.44.12-.78.36-.12.57-.46.81-.45.1-.8.35-.39.19-.73.44-.47.08-.81.33-.16.5-.5.75-.5.02-.84.27-.31.29-.65.54-.16.5-.5.75-.51,0-.86.25-.17.49-.51.74-.5.02-.85.27-.29.33-.63.57-.26.36-.61.61-.41.16-.75.41-.45.1-.8.35-.26.37-.61.61-.39.19-.73.43-.2.45-.54.7-.6-.11-.94.14-.21.43-.56.68-.26.36-.6.61-.54-.03-.88.22-.11.57-.45.82-.54-.02-.88.22-.31.29-.66.53-.43.12-.78.37-.16.5-.51.75-.52,0-.86.25-.29.33-.63.57-.41.16-.76.4-.17.49-.52.74-.33.27-.68.52-.3.31-.65.56-.42.14-.77.39-.24.4-.58.65-.47.07-.82.31-.43.12-.78.37-.12.56-.47.81-.63-.15-.98.09-.26.37-.6.62-.32.28-.67.53-.26.36-.61.61-.34.25-.69.5-.47.07-.82.32-.22.43-.56.67-.46.09-.81.34-.26.37-.6.62-.29.32-.64.57-.43.14-.77.39-.47.08-.82.32-.26.38-.6.62-.45.11-.79.36-.22.42-.56.67-.22.42-.57.66-.44.11-.78.36-.36.22-.71.47-.43.13-.78.38-.27.36-.62.61-.43.13-.77.38-.26.37-.6.62-.38.2-.73.44-.41.16-.76.41-.19.46-.54.71-.45.1-.8.35-.31.3-.66.55-.36.23-.71.48-.26.38-.61.62-.46.09-.81.34-.21.45-.56.7-.36.23-.71.48-.57-.06-.93.19-.32.29-.67.54"/>
  <path class="st0" d="M228.74,121.46c-.35.23-.44.09-.79.32s-.39.17-.75.4-.16.53-.51.76-.44.1-.79.32-.28.35-.63.58-.37.2-.73.43-.52-.03-.88.19-.33.26-.69.49-.24.41-.59.64-.45.08-.81.31-.39.17-.75.4-.36.22-.72.45-.27.36-.63.59-.22.44-.57.67-.53-.04-.88.19-.43.11-.79.33-.26.38-.61.61-.38.19-.73.42-.34.25-.7.48-.26.38-.61.61-.37.2-.72.43-.5,0-.85.23-.27.35-.63.58-.43.11-.78.34-.25.39-.61.61-.44.09-.8.32-.15.55-.5.78-.51-.02-.86.21-.33.26-.69.49-.33.27-.68.5-.26.37-.61.6-.47.04-.83.27-.4.16-.75.39-.2.46-.56.69-.37.2-.72.43-.56-.1-.91.13-.09.63-.44.86-.45.07-.81.3-.43.1-.79.33-.25.39-.6.62-.28.34-.63.57-.4.16-.75.39-.36.22-.71.45-.55-.08-.9.15-.17.52-.52.74-.35.24-.7.46-.51-.01-.86.21-.39.17-.75.39-.2.46-.56.69-.35.23-.71.45-.5,0-.85.23-.13.57-.49.8-.58-.13-.93.1-.28.34-.63.57-.4.16-.75.39-.32.29-.67.51-.42.12-.78.35-.15.54-.5.77-.31.3-.66.53-.37.2-.73.42-.46.06-.82.29-.3.32-.65.55-.53-.04-.88.18-.16.54-.51.76-.56-.09-.92.13-.19.49-.54.72-.43.12-.78.34-.41.14-.77.37-.22.44-.57.67-.41.15-.76.38-.4.16-.75.39-.21.45-.57.68-.49.02-.84.25-.37.21-.73.44-.43.11-.79.34-.16.53-.52.76-.31.31-.66.53-.37.21-.72.44-.49.02-.85.25-.47.05-.83.28-.24.4-.6.63-.22.44-.58.67-.55-.07-.9.16-.23.43-.58.66-.44.09-.8.32-.42.13-.78.35-.3.31-.66.54-.31.3-.66.53-.4.15-.76.38-.24.41-.59.64-.55-.08-.91.15-.27.36-.62.59-.28.34-.64.56-.26.38-.61.61-.53-.04-.88.18-.2.46-.56.69-.37.2-.73.43-.37.21-.72.43-.43.11-.78.34-.26.37-.62.6-.5,0-.85.24-.3.31-.66.54-.28.34-.64.57-.31.29-.67.52-.36.22-.71.45-.57-.11-.92.12-.31.3-.66.53-.25.39-.61.61-.47.05-.83.27-.39.17-.75.4-.35.23-.71.46-.32.28-.68.51-.23.42-.59.65-.36.22-.72.45-.34.26-.69.49-.49.01-.85.24-.23.42-.59.65-.54-.06-.9.17-.15.55-.51.78-.46.07-.81.3-.4.16-.75.39-.17.51-.53.74-.34.25-.7.48-.39.17-.75.4-.55-.07-.91.15-.15.55-.51.77-.44.1-.79.33-.5,0-.86.23-.11.61-.47.84-.4.16-.75.39-.52-.03-.88.2-.3.31-.66.54-.27.36-.63.59-.39.17-.75.4-.28.35-.63.58-.56-.09-.92.14-.26.37-.62.6-.29.33-.64.56-.29.34-.64.56-.44.1-.8.33-.49.02-.85.25-.18.51-.53.74-.56-.08-.91.15-.34.26-.69.49-.34.25-.7.48-.24.42-.59.64-.3.32-.66.55-.52-.03-.88.2-.24.4-.6.63-.43.11-.79.34-.41.15-.76.38-.17.52-.52.75-.38.2-.73.42-.42.13-.77.36-.25.39-.61.62-.59-.13-.94.1-.15.55-.51.78-.35.24-.7.47-.45.08-.81.31-.3.32-.65.55-.37.21-.72.44-.37.21-.73.44-.34.26-.69.49-.33.27-.69.5-.54-.05-.9.17-.28.35-.64.58-.31.29-.67.52-.3.31-.65.54-.32.28-.68.51-.34.26-.69.49-.41.15-.76.37-.5,0-.86.23-.22.44-.57.67-.45.08-.81.31-.24.41-.6.63-.51-.01-.87.22-.22.44-.58.67-.3.32-.66.55-.36.23-.71.46-.34.25-.7.48-.55-.07-.9.15-.33.27-.68.5-.22.44-.58.66-.36.22-.71.45-.35.24-.7.47-.51-.02-.87.21-.34.26-.69.49-.3.31-.66.54-.45.08-.8.31-.31.3-.67.53-.28.35-.64.58-.36.23-.71.46-.41.15-.77.38-.27.36-.63.59-.36.23-.71.46-.33.28-.68.5-.44.1-.79.33-.28.34-.64.57-.38.19-.74.42-.41.14-.77.37-.42.13-.78.36-.34.25-.7.48-.22.45-.58.68-.39.17-.75.4-.35.23-.71.46-.49.03-.84.26-.21.46-.57.69-.48.03-.84.26-.39.19-.74.42-.35.24-.71.47-.2.48-.55.71-.42.14-.78.37-.44.1-.8.33-.36.22-.71.45-.4.15-.76.38-.24.41-.6.63-.35.24-.71.47-.44.1-.8.33-.44.1-.8.33-.26.38-.62.61-.41.16-.76.39-.22.45-.58.68-.46.08-.82.31-.26.38-.62.61-.35.24-.71.48-.54-.05-.9.18-.28.35-.64.58-.44.11-.79.34-.22.44-.58.67-.35.24-.71.48-.49.04-.85.27-.32.3-.68.53"/>
  <path class="st0" d="M226.73,134.45c-.36.22-.34.25-.7.47s-.41.13-.77.36-.26.38-.61.61-.43.11-.78.34-.3.31-.66.53-.47.05-.82.27-.33.27-.68.49-.29.33-.65.55-.31.3-.67.52-.41.13-.77.36-.42.12-.77.35-.33.26-.69.48-.22.44-.57.67-.4.15-.76.37-.37.2-.73.42-.38.18-.74.4-.29.33-.65.55-.53-.05-.88.17-.19.49-.54.71-.54-.07-.9.15-.34.24-.7.47-.18.5-.54.73-.33.26-.69.48-.44.09-.79.32-.34.24-.7.47-.3.31-.66.53-.56-.1-.92.12-.17.51-.53.74-.54-.08-.9.15-.24.4-.6.63-.44.09-.8.31-.19.49-.54.72-.48.02-.84.25-.24.41-.59.64-.35.23-.71.45-.48.02-.84.25-.21.45-.57.67-.44.1-.79.32-.47.04-.83.26-.15.55-.51.78-.52-.04-.88.19-.29.32-.65.55-.35.23-.71.46-.33.26-.69.48-.32.28-.68.5-.43.11-.79.33-.24.41-.59.64-.36.21-.72.44-.34.26-.69.48-.39.17-.75.39-.41.15-.76.37-.33.27-.69.49-.28.35-.64.57-.56-.09-.92.13-.19.49-.55.72-.34.26-.7.48-.52-.03-.87.2-.26.38-.62.61-.38.19-.74.42-.43.12-.78.34-.25.39-.61.62-.39.17-.75.4-.33.26-.69.49-.43.1-.79.33-.22.45-.58.67-.45.08-.8.31-.43.11-.78.34-.32.28-.68.5-.41.14-.77.36-.37.21-.72.43-.3.31-.66.54-.23.43-.59.65-.49.02-.84.24-.33.27-.69.49-.38.19-.74.41-.28.35-.64.57-.34.25-.7.47-.38.19-.73.42-.37.2-.73.42-.43.1-.79.32-.24.41-.6.63-.45.07-.81.3-.26.37-.62.6-.45.08-.8.31-.4.16-.75.38-.32.28-.68.5-.23.42-.59.65-.44.09-.8.31-.4.16-.76.38-.25.39-.61.62-.47.05-.83.27-.34.25-.7.47-.32.29-.68.51-.29.33-.65.56-.52-.03-.88.19-.26.38-.62.61-.4.16-.76.39-.41.15-.76.38-.18.51-.54.73-.58-.13-.94.1-.33.27-.69.49-.32.28-.68.5-.26.38-.62.6-.44.09-.8.31-.43.1-.79.33-.29.33-.65.55-.18.51-.54.73-.49.02-.84.25-.28.34-.64.57-.32.28-.68.5-.54-.06-.9.16-.32.29-.67.52-.41.14-.77.36-.36.22-.72.45-.21.46-.57.68-.35.23-.71.46-.49.02-.84.25-.36.22-.72.44-.33.27-.69.49-.29.34-.65.56-.31.31-.67.53-.34.26-.7.48-.47.05-.83.28-.39.17-.75.4-.31.3-.67.52-.31.3-.67.53-.45.08-.81.3-.34.26-.69.49-.43.11-.79.33-.31.3-.67.53-.28.35-.64.58-.34.26-.7.48-.38.19-.74.42-.41.15-.77.37-.44.09-.8.32-.21.46-.57.69-.49.02-.84.25-.26.38-.62.61-.39.17-.75.4-.24.42-.6.64-.33.27-.69.5-.38.19-.74.42-.4.15-.76.38-.3.32-.65.55-.61-.17-.97.05-.32.28-.68.51-.33.26-.69.48-.34.26-.69.48-.23.42-.59.65-.53-.04-.88.18-.26.38-.62.61-.5,0-.86.23-.18.51-.54.74-.34.25-.7.48-.43.11-.79.33-.28.36-.64.58-.5,0-.85.23-.3.31-.66.54-.27.36-.63.59-.56-.1-.92.12-.17.52-.53.74-.39.17-.75.39-.49.01-.85.24-.3.32-.66.54-.32.29-.68.51-.22.44-.58.67-.57-.11-.93.11-.3.32-.66.55-.4.16-.76.39-.34.26-.7.49-.23.43-.59.66-.45.08-.81.3-.29.34-.65.56-.42.13-.78.35-.33.28-.68.5-.43.12-.79.34-.24.42-.59.65-.33.28-.68.5-.35.23-.71.46-.46.06-.82.29-.29.34-.65.57-.44.11-.8.33-.49.02-.85.24-.14.58-.5.8-.38.19-.74.41-.39.18-.75.4-.32.29-.68.51-.53-.04-.89.19-.23.44-.59.66-.44.1-.8.33-.3.33-.66.55-.35.23-.71.46-.44.09-.8.32-.39.18-.74.4-.22.44-.58.67-.41.15-.77.38-.36.22-.72.45-.47.05-.83.27-.27.38-.63.6-.46.06-.82.29-.37.22-.73.44-.13.6-.49.82-.4.16-.76.39-.48.03-.85.26-.41.15-.77.38-.36.23-.72.45-.31.31-.67.54-.27.38-.63.6-.46.08-.82.3-.39.19-.75.42-.16.56-.52.79"/>
  <path class="st0" d="M226.7,148.39c-.36.22-.21.46-.56.68s-.58-.12-.93.1-.28.35-.64.57-.41.14-.76.37-.17.52-.53.75-.4.16-.75.39-.35.24-.7.47-.44.09-.8.32-.29.34-.64.56-.39.18-.74.4-.42.13-.78.35-.26.38-.62.6-.42.12-.78.35-.36.22-.72.44-.39.17-.75.4-.28.35-.63.58-.42.13-.77.36-.25.4-.61.62-.46.06-.82.28-.37.22-.72.44-.47.06-.82.28-.13.58-.49.81-.56-.1-.92.13-.28.34-.64.57-.35.23-.71.46-.34.25-.7.48-.49.01-.85.24-.15.56-.5.79-.44.09-.8.31-.41.14-.77.36-.38.19-.73.42-.32.28-.68.5-.23.43-.59.66-.32.29-.68.51-.61-.17-.96.05-.14.56-.5.79-.33.26-.69.49-.34.25-.7.48-.51,0-.86.22-.34.25-.7.48-.27.36-.63.58-.34.26-.69.48-.58-.12-.93.1-.37.21-.72.43-.26.38-.62.61-.42.13-.77.35-.35.24-.7.47-.36.23-.71.45-.16.54-.52.76-.54-.06-.9.16-.39.17-.75.4-.37.2-.73.42-.18.51-.54.73-.49.01-.85.24-.27.36-.63.59-.39.17-.75.4-.35.24-.71.47-.47.05-.83.27-.19.49-.55.72-.3.32-.66.54-.48.03-.84.26-.27.36-.63.59-.51-.02-.87.21-.18.5-.54.73-.34.25-.7.48-.45.09-.8.31-.27.37-.63.59-.41.15-.76.38-.33.28-.68.5-.53-.05-.89.18-.22.44-.58.67-.44.1-.8.33-.3.31-.66.54-.41.14-.77.36-.21.45-.57.68-.51,0-.86.22-.37.2-.73.42-.41.14-.77.37-.35.23-.71.46-.17.53-.52.76-.39.18-.74.41-.55-.07-.9.15-.25.39-.61.62-.32.29-.68.52-.34.25-.7.48-.49.02-.85.25-.32.29-.68.51-.31.3-.67.52-.48.04-.84.27-.35.24-.71.47-.37.21-.73.44-.21.46-.57.68-.39.18-.75.4-.35.24-.71.47-.35.24-.71.46-.31.31-.66.54-.32.28-.68.51-.33.28-.69.5-.6-.16-.96.07-.25.4-.61.63-.26.38-.62.61-.59-.15-.95.08-.27.37-.63.6-.34.25-.7.48-.36.23-.72.45-.3.32-.66.55-.41.15-.77.37-.37.21-.73.43-.42.12-.78.35-.14.57-.5.8-.52-.03-.88.19-.35.23-.71.46-.21.46-.57.68-.52-.03-.88.19-.33.27-.69.5-.26.38-.62.61-.42.14-.77.36-.36.22-.72.44-.43.11-.79.34-.41.14-.77.37-.33.27-.69.5-.27.37-.63.59-.26.38-.62.61-.33.27-.69.5-.5,0-.86.23-.26.38-.62.61-.55-.08-.91.14-.23.43-.58.66-.25.4-.61.62-.57-.11-.92.12-.3.32-.66.54-.22.44-.58.67-.54-.07-.9.16-.32.29-.68.51-.38.19-.74.41-.37.21-.73.44-.19.49-.55.72-.37.21-.73.43-.41.15-.77.37-.36.22-.72.45-.36.23-.72.45-.38.2-.74.42-.47.05-.83.28-.4.15-.76.38-.13.59-.49.81-.35.24-.71.46-.41.15-.77.37-.45.09-.81.31-.43.12-.79.34-.26.38-.62.61-.36.22-.72.45-.41.14-.77.37-.35.24-.71.47-.43.12-.79.35-.19.5-.55.73-.47.06-.83.28-.39.18-.75.41-.32.29-.68.52-.22.44-.58.67-.45.08-.81.3-.23.43-.59.66-.61-.16-.97.07-.25.41-.61.64-.25.4-.62.62-.57-.1-.93.13-.2.48-.56.71-.35.25-.71.48-.45.08-.82.31-.38.19-.75.42-.38.21-.74.44-.29.34-.65.57-.24.42-.6.64-.44.11-.8.33-.45.09-.81.32-.38.21-.74.44-.24.43-.61.66-.41.16-.77.39"/>
  <path class="st0" d="M226.67,159.35c-.36.22-.33.27-.69.49s-.24.41-.59.64-.39.17-.75.39-.54-.07-.9.16-.31.29-.67.52-.35.23-.71.46-.23.43-.58.66-.47.05-.82.27-.2.48-.55.7-.32.28-.68.5-.43.11-.78.34-.52-.04-.88.19-.33.27-.68.49-.41.14-.76.37-.27.36-.62.59-.23.42-.59.65-.36.22-.72.44-.34.25-.69.48-.42.13-.77.35-.3.32-.65.54-.43.1-.79.33-.48.03-.83.26-.3.31-.66.54-.31.3-.67.52-.3.31-.66.53-.36.22-.71.45-.46.06-.82.28-.36.23-.71.45-.37.21-.72.43-.31.3-.67.52-.31.29-.67.52-.44.1-.79.32-.41.14-.77.36-.29.33-.65.55-.44.09-.8.32-.13.59-.48.82-.58-.13-.94.1-.23.43-.59.65-.3.31-.66.54-.35.24-.7.47-.41.14-.77.36-.32.29-.67.51-.35.23-.71.46-.4.15-.76.37-.44.09-.8.31-.25.39-.61.62-.38.19-.74.41-.41.14-.77.36-.32.28-.68.51-.32.28-.68.51-.49.01-.85.24-.34.25-.7.48-.35.24-.71.46-.17.52-.53.74-.5,0-.86.22-.29.33-.65.56-.46.07-.81.29-.32.28-.68.51-.44.09-.8.32-.12.6-.48.83-.47.05-.82.28-.3.32-.66.54-.33.27-.69.5-.35.24-.71.46-.55-.08-.91.15-.2.48-.55.71-.32.28-.68.51-.36.22-.72.45-.41.15-.76.37-.46.07-.81.29-.25.39-.61.62-.32.28-.68.51-.53-.05-.89.17-.36.22-.72.44-.32.29-.68.51-.26.39-.61.61-.41.14-.77.37-.45.08-.81.3-.22.44-.58.67-.45.07-.81.3-.19.49-.55.71-.44.09-.8.32-.33.28-.68.5-.44.1-.8.32-.47.05-.83.27-.15.55-.5.78-.5,0-.86.22-.43.11-.78.34-.23.43-.58.65-.46.05-.82.28-.28.35-.64.57-.33.27-.69.49-.44.1-.8.32-.21.45-.57.68-.48.04-.84.26-.26.38-.62.61-.3.32-.66.54-.34.25-.7.48-.6-.17-.96.06-.2.48-.56.7-.51-.02-.87.2-.3.31-.66.53-.22.44-.58.66-.53-.04-.88.18-.36.22-.72.44-.26.37-.62.6-.4.16-.76.38-.37.2-.73.42-.25.4-.61.62-.35.24-.71.46-.38.19-.74.42-.37.22-.72.44-.29.34-.65.56-.46.07-.81.3-.3.31-.66.54-.37.21-.73.43-.38.18-.74.41-.36.22-.72.45-.26.38-.62.61-.34.25-.7.48-.44.1-.8.33-.49.02-.85.25-.13.58-.49.81-.51-.02-.87.21-.26.38-.62.61-.35.24-.71.47-.37.21-.73.43-.45.08-.81.31-.46.06-.82.29-.37.21-.73.44-.15.56-.51.79-.51-.01-.87.21-.18.51-.53.73-.41.14-.77.37-.53-.05-.89.17-.33.27-.69.5-.4.17-.76.39-.14.58-.5.8-.57-.11-.93.12-.3.32-.66.55-.42.13-.78.36-.14.58-.5.81-.55-.08-.91.15-.19.51-.55.73-.55-.08-.92.15-.15.57-.51.8-.44.11-.8.33-.48.04-.84.26-.4.17-.76.4-.27.38-.63.61-.45.1-.81.32"/>
  <path class="st0" d="M228.74,167.46c-.36.22-.33.26-.7.48s-.45.08-.81.3-.35.23-.72.45-.32.29-.68.51-.32.28-.69.5-.49,0-.85.22-.2.48-.56.7-.44.09-.8.31-.26.4-.62.61-.39.18-.75.4-.43.1-.8.32-.41.14-.77.36-.2.49-.56.71-.5,0-.86.21-.24.42-.61.64-.45.08-.81.29-.39.17-.75.39-.37.21-.74.43-.41.14-.78.36-.4.16-.76.38-.21.48-.57.7-.32.3-.68.52-.38.19-.75.41-.36.22-.73.44-.56-.1-.92.12-.29.33-.66.55-.34.25-.71.47-.42.12-.78.34-.31.3-.68.52-.25.4-.62.62-.45.07-.81.29-.44.1-.8.32-.39.17-.76.39-.15.58-.51.8-.47.04-.83.26-.28.36-.64.57-.35.24-.71.46-.43.11-.79.33-.25.4-.62.62-.5-.01-.87.21-.38.19-.75.41-.25.41-.61.63-.44.09-.81.31-.35.25-.71.47-.31.3-.68.52-.55-.08-.91.14-.17.53-.54.75-.43.11-.79.33-.41.15-.77.37-.3.32-.67.54-.52-.04-.88.18-.26.39-.63.61-.29.34-.66.55-.32.29-.68.51-.35.24-.71.46-.45.07-.82.29-.27.38-.63.59-.43.1-.8.32-.29.34-.66.56-.38.19-.74.41-.54-.07-.9.15-.28.36-.64.58-.25.41-.61.63-.59-.15-.95.07-.31.31-.67.53-.21.47-.57.69-.38.19-.75.41-.46.05-.82.27-.32.28-.68.5-.4.15-.76.37-.42.13-.78.35-.19.51-.55.73-.38.2-.74.42-.47.05-.83.27-.39.17-.76.39-.34.25-.71.47-.35.24-.71.46-.39.17-.75.39-.27.38-.63.59-.46.05-.82.27-.44.08-.81.3-.27.37-.63.59-.35.24-.71.45-.44.1-.8.31-.32.29-.68.51-.36.22-.72.44-.33.27-.69.49-.43.11-.79.33-.36.23-.72.45-.28.36-.64.58-.49.02-.85.24-.34.27-.7.49-.31.31-.68.53-.37.21-.74.43-.29.34-.66.56-.44.1-.8.32-.45.08-.81.3-.24.42-.6.64-.31.31-.67.53-.35.25-.71.47-.4.16-.77.38-.31.32-.67.54-.48.03-.85.25-.47.05-.83.27-.26.4-.62.62-.27.38-.63.6-.48.03-.84.25-.35.25-.71.47-.25.41-.61.63-.45.07-.82.29-.42.13-.79.35-.3.33-.67.55-.43.11-.79.33-.4.15-.76.37-.34.26-.7.48-.29.33-.66.55-.27.38-.64.6-.37.22-.73.44-.59-.16-.96.07-.37.22-.73.44-.14.59-.5.81-.37.22-.73.44-.56-.09-.92.13-.38.2-.74.42-.17.55-.54.77-.45.08-.82.3-.44.1-.8.33-.4.16-.77.38-.3.33-.67.55-.39.18-.76.4-.38.21-.75.43-.23.46-.59.68"/>
  <path class="st0" d="M225.66,179.34c-.36.22-.34.25-.7.47s-.21.46-.56.69-.57-.11-.92.11-.12.6-.48.82-.57-.11-.92.12-.33.27-.68.5-.36.21-.72.44-.32.28-.68.5-.26.38-.62.6-.36.23-.71.45-.42.13-.78.35-.45.08-.81.3-.36.22-.72.45-.32.29-.68.51-.41.15-.76.37-.17.53-.53.75-.54-.06-.89.17-.24.42-.59.64-.47.05-.83.27-.18.5-.54.73-.32.29-.67.52-.62-.19-.97.04-.26.39-.61.61-.39.17-.75.39-.36.22-.72.45-.37.2-.73.42-.15.55-.51.78-.38.19-.74.41-.34.25-.7.48-.58-.13-.94.1-.31.3-.67.53-.2.48-.55.71-.51-.01-.87.21-.4.16-.76.39-.33.27-.68.5-.34.26-.7.48-.45.08-.8.3-.24.41-.59.63-.27.37-.62.59-.53-.05-.88.18-.29.33-.65.55-.38.2-.73.42-.26.37-.62.6-.4.16-.76.38-.46.06-.82.29-.14.58-.5.8-.46.07-.82.29-.35.24-.71.46-.25.39-.61.62-.42.13-.77.35-.38.19-.73.42-.42.13-.77.35-.34.24-.7.47-.42.12-.78.35-.35.23-.71.46-.17.51-.53.74-.45.08-.8.31-.41.13-.77.36-.27.37-.62.59-.44.1-.8.32-.45.09-.8.31-.15.55-.51.78-.43.12-.79.34-.46.06-.82.28-.2.48-.56.7-.44.09-.8.32-.37.2-.73.42-.22.44-.58.67-.5,0-.86.22-.43.12-.79.34-.14.57-.5.8-.38.2-.74.42-.38.19-.74.41-.5,0-.86.23-.31.3-.67.52-.47.06-.82.28-.14.57-.5.8-.44.09-.8.32-.34.26-.69.49-.43.11-.79.34-.26.38-.62.61-.37.21-.73.43-.51-.01-.87.21-.18.5-.54.72-.55-.08-.91.14-.12.61-.47.83-.41.15-.77.37-.45.08-.81.31-.28.35-.64.57-.45.09-.8.31-.27.37-.63.6-.35.24-.71.47-.46.07-.82.3-.41.15-.77.38-.18.51-.54.74-.35.24-.71.47-.52-.03-.88.2-.25.4-.61.63-.49.03-.85.26-.18.52-.54.74-.45.08-.82.31-.34.27-.7.5"/>
  <path class="st0" d="M225.37,190.3c-.35.23-.33.27-.68.5s-.29.33-.64.56-.43.11-.79.34-.23.42-.58.65-.3.3-.66.53-.48.04-.83.27-.25.38-.61.61-.5,0-.85.24-.14.56-.49.79-.53-.04-.88.19-.15.54-.5.77-.36.21-.71.43-.46.05-.81.28-.31.29-.66.52-.29.31-.64.54-.55-.07-.9.16-.33.26-.68.49-.31.3-.66.53-.43.11-.78.34-.19.47-.55.7-.4.16-.75.39-.37.2-.73.43-.21.44-.57.67-.53-.04-.88.19-.31.29-.66.52-.42.12-.78.35-.31.29-.66.52-.29.33-.64.55-.42.12-.77.35-.37.2-.72.43-.17.51-.52.74-.44.09-.79.32-.43.11-.78.34-.18.5-.53.73-.41.15-.76.38-.51-.01-.86.22-.27.35-.63.58-.29.32-.65.55-.36.23-.71.46-.46.07-.81.3-.17.51-.53.74-.4.16-.75.4-.25.38-.61.61-.47.05-.82.28-.31.3-.66.53-.49.02-.84.25-.33.27-.68.5-.39.17-.75.4-.23.42-.58.65-.34.25-.69.48-.46.07-.81.3-.42.12-.78.35-.14.56-.49.79-.57-.1-.92.13-.12.58-.48.81-.39.17-.75.41-.39.18-.74.41-.48.04-.83.28-.33.27-.68.5-.39.16-.75.39-.11.59-.47.82-.6-.15-.95.09-.14.55-.5.79-.38.2-.73.43-.53-.04-.88.2-.18.49-.53.72-.54-.05-.89.18-.25.39-.61.62-.22.43-.58.66-.52-.02-.87.22-.36.23-.71.47-.2.48-.55.71-.43.12-.78.35-.26.38-.61.61-.52-.02-.88.22-.44.1-.8.34-.2.47-.56.7-.52-.01-.88.22"/>
  <path class="st0" d="M227.71,200.41c-.35.24-.46.07-.82.31s-.34.26-.69.5-.37.21-.72.45-.28.34-.63.57-.17.51-.52.74-.42.14-.77.37-.48.05-.83.29-.31.29-.66.53-.21.45-.56.68-.35.24-.7.48-.43.12-.78.36-.32.28-.68.51-.39.18-.74.42-.45.09-.8.32-.24.4-.59.64-.33.27-.69.5-.51,0-.86.24-.35.24-.7.48-.13.57-.49.8-.48.05-.83.28-.31.3-.66.54-.53-.03-.88.21-.33.27-.68.5-.19.48-.54.72-.29.33-.64.57-.59-.12-.95.11-.26.38-.61.62-.38.19-.74.43-.19.48-.55.71-.41.15-.76.39-.38.2-.73.44-.29.32-.65.56-.4.17-.75.41-.48.05-.84.28-.18.5-.53.74-.47.07-.82.31-.18.49-.54.73-.6-.13-.96.11-.26.37-.61.6-.42.13-.77.37-.11.59-.46.83-.55-.05-.9.18-.39.18-.75.42-.37.21-.72.45-.23.42-.58.66-.26.38-.61.62-.54-.04-.9.2-.14.56-.49.79-.5.02-.85.26-.44.11-.8.35-.23.42-.59.66-.29.33-.65.57-.45.09-.81.33-.23.42-.59.66-.43.14-.78.38-.51.01-.87.25-.36.24-.72.48"/>
  <path class="st0" d="M63.69,28.4c-.29.24-.48.01-.76.25s-.26.27-.55.51-.31.21-.6.45-.17.38-.46.62.02.61-.27.85-.4.1-.69.35-.5-.01-.79.23-.23.32-.51.56-.05.53-.34.77-.28.25-.57.49-.42.09-.71.33-.24.29-.53.54-.35.17-.64.41-.46.04-.74.28-.1.47-.39.71-.26.28-.54.52-.55-.08-.84.16-.28.25-.57.49.09.69-.2.93-.51-.02-.79.22-.21.33-.5.57-.59-.12-.88.12-.26.28-.55.52-.01.58-.3.82-.18.37-.47.61-.7-.25-.99,0-.13.44-.42.68-.34.18-.63.42-.02.57-.3.81-.39.13-.67.37-.33.19-.62.43-.19.36-.48.6-.37.15-.65.39-.51-.02-.8.22.01.61-.28.85-.48.01-.77.25,0,.59-.29.83-.71-.26-1-.02-.14.42-.43.66-.41.1-.7.34.12.73-.17.97-.62-.15-.91.09-.36.16-.65.4-.32.21-.6.45-.08.49-.37.73-.12.44-.41.68-.61-.14-.9.1.08.68-.21.92-.53-.05-.82.19-.44.06-.73.31-.08.5-.37.74-.18.37-.47.61-.46.04-.75.29-.09.49-.38.73-.41.1-.7.35-.55-.07-.84.18-.29.24-.59.49-.32.21-.61.45.17.8-.12,1.04-.57-.09-.86.15-.07.51-.37.75-.4.11-.69.36-.4.12-.69.37-.26.29-.55.54"/>
  <rect class="st1" x="27.23" y="27.94" width="200" height="200"/>
</svg>