<?xml version="1.0" encoding="UTF-8"?>
<svg xmlns="http://www.w3.org/2000/svg" version="1.1" viewBox="0 0 256 256">
  <!-- Generator: Adobe Illustrator 29.6.1, SVG Export Plug-In . SVG Version: 2.1.1 Build 9)  -->
  <defs>
    <style>
      .st0 {
        fill: #d43a2f;
      }

      .st1 {
        fill: #3f9a3b;
      }

      .st2 {
        fill: #2e7d32;
      }

      .st3 {
        fill: #1f5a24;
      }

      .st4 {
        fill: #4fae4a;
      }

      .st5 {
        fill: #7a1c14;
      }

      .st6 {
        fill: none;
        stroke: #000;
        stroke-miterlimit: 10;
      }

      .st7 {
        opacity: .9;
      }

      .st8 {
        opacity: .75;
      }

      .st9 {
        fill: #b52a22;
      }

      .st10 {
        fill: #f06a5f;
      }

      .st11 {
        fill: #6bcb62;
      }
    </style>
  </defs>
  <g id="Layer_1" shape-rendering="crispEdges">
    <g>
      <polygon class="st4" points="-1.39 -1.38 3.28 -.89 6.56 -2.48 9.84 .75 13.12 2.54 16.4 -1.58 19.68 -.21 22.96 .38 26.24 -.67 29.53 1.95 32.81 1.92 36.09 2.36 39.37 -.98 42.65 .29 45.93 1.21 49.21 .64 52.49 1.66 55.77 -.07 59.05 2.5 62.33 .15 65.61 1.74 68.9 .88 72.18 -.62 75.46 .97 78.73 -.41 82.01 .1 85.29 1.69 88.56 -2.5 91.84 1.15 95.12 .69 98.4 -2.17 101.68 1.69 104.96 .72 108.24 -.7 111.52 -1.1 114.8 .35 118.08 .33 121.36 -1.96 124.64 1.96 127.92 -1.05 131.2 -.97 134.48 -1.81 137.76 -1.11 141.04 .34 144.33 .64 147.61 1.48 150.89 1.44 154.17 -.56 157.45 -1.36 160.74 1.75 164.02 -1.12 167.3 .7 170.59 2.27 173.87 -2.01 177.15 -1.97 180.44 1.32 183.72 1.16 187 1.26 190.29 .76 193.57 -1.82 196.86 -1.13 200.14 -.06 203.42 2.04 206.7 2.55 209.99 -2.47 213.27 -.81 216.55 2.04 219.83 2.55 223.12 2.38 226.4 1.78 229.69 2.52 232.98 .97 236.27 .15 239.55 .11 242.84 1.64 246.12 1.81 249.41 .57 252.71 .11 257.17 -1.18 254.6 3.28 258.42 6.56 257.55 9.84 256.13 13.12 255.03 16.4 254.94 19.68 255.72 22.96 258.23 26.24 256.94 29.53 255.25 32.81 257.13 36.09 258.27 39.37 254.69 42.65 258.18 45.93 256.65 49.21 253.77 52.49 255.27 55.77 254.47 59.05 258.4 62.33 255.23 65.61 253.98 68.9 257.44 72.18 254.34 75.46 256.52 78.73 254.19 82.01 253.73 85.29 254.46 88.56 254.25 91.84 257.31 95.12 255.85 98.4 255.52 101.68 253.67 104.96 254.94 108.24 257.31 111.52 257.92 114.8 257.4 118.08 256.95 121.36 256.59 124.64 258.54 127.92 256.29 131.2 254.04 134.48 258.09 137.76 257.47 141.04 254.62 144.33 256.36 147.61 257.99 150.89 257.65 154.17 256.85 157.45 255.38 160.74 255.92 164.02 254.47 167.3 258.27 170.59 255.72 173.87 254.39 177.15 255.6 180.44 253.85 183.72 254.84 187 256.26 190.29 256.65 193.57 256.43 196.86 256 200.14 257.99 203.42 253.77 206.7 256.64 209.99 253.62 213.27 253.99 216.55 254.53 219.83 253.9 223.12 256.07 226.4 254.96 229.69 255.83 232.98 255.06 236.27 254.37 239.55 253.77 242.84 257.37 246.12 257.46 249.41 258.03 252.71 254.72 254.73 252.72 254.07 249.44 256.23 246.16 255.36 242.88 255.2 239.6 255.46 236.32 256.75 233.04 255.34 229.76 254.9 226.47 254.78 223.19 255.47 219.91 258.11 216.63 253.93 213.35 257.42 210.07 256.87 206.79 254.85 203.51 255.7 200.23 255.62 196.95 253.92 193.67 257.72 190.39 253.67 187.1 253.76 183.82 255.39 180.54 255.89 177.27 254.19 173.99 256.93 170.71 256.32 167.44 256.9 164.16 258.44 160.88 255.39 157.6 255.8 154.32 258.27 151.04 257.36 147.76 255.76 144.48 254.05 141.2 257.56 137.92 255.05 134.64 258.55 131.36 256.04 128.08 258.03 124.8 256.8 121.52 258.42 118.24 254.93 114.96 255.67 111.67 257.83 108.39 253.82 105.11 258.08 101.83 256.66 98.55 255.79 95.26 255.33 91.98 257.34 88.7 254.64 85.41 256.64 82.13 253.8 78.85 257.7 75.56 258.14 72.28 256.01 69 255.35 65.71 255.61 62.43 256.25 59.14 257.68 55.86 257.31 52.58 255.43 49.3 253.91 46.01 255.16 42.73 256.75 39.45 256.45 36.17 254.88 32.88 258.37 29.6 257.85 26.31 257.82 23.02 256.97 19.73 255.5 16.45 257.23 13.16 254.9 9.88 255.36 6.59 253.65 3.29 255.22 1.57 254.43 -1.37 252.72 -1.56 249.44 -.94 246.16 -1.1 242.88 -2.17 239.6 -2.21 236.32 1.06 233.04 -2.13 229.76 -1.69 226.47 1.37 223.19 1.65 219.91 -1.59 216.63 -2.11 213.35 -1.73 210.07 .39 206.79 -2.48 203.51 .64 200.23 -2.51 196.95 .3 193.67 -2.21 190.39 -.42 187.1 -2.01 183.82 1.3 180.54 1.02 177.27 2.2 173.99 1.76 170.71 -.8 167.44 -.9 164.16 .43 160.88 -1.93 157.6 -1.7 154.32 1.5 151.04 -.28 147.76 -1.89 144.48 2.26 141.2 -1.68 137.92 -1.3 134.64 2.16 131.36 1.57 128.08 .62 124.8 -1.87 121.52 -1.22 118.24 -.73 114.96 .43 111.67 2.41 108.39 1.26 105.11 .91 101.83 -2.27 98.55 .08 95.26 .6 91.98 .08 88.7 -2.12 85.41 -.68 82.13 -1.18 78.85 -1.63 75.56 -1.18 72.28 2.45 69 2.13 65.71 -1.12 62.43 -.25 59.14 .5 55.86 -.67 52.58 1.7 49.3 -.84 46.01 -.05 42.73 -.39 39.45 2.06 36.17 -1.29 32.88 -1.2 29.6 1.47 26.31 -.72 23.02 1.24 19.73 .87 16.45 -2.32 13.16 1.46 9.88 -1.08 6.59 .9 3.14 -1.39 -1.38"/>
      <polygon class="st6" points="-1.39 -1.38 3.28 -.89 6.56 -2.48 9.84 .75 13.12 2.54 16.4 -1.58 19.68 -.21 22.96 .38 26.24 -.67 29.53 1.95 32.81 1.92 36.09 2.36 39.37 -.98 42.65 .29 45.93 1.21 49.21 .64 52.49 1.66 55.77 -.07 59.05 2.5 62.33 .15 65.61 1.74 68.9 .88 72.18 -.62 75.46 .97 78.73 -.41 82.01 .1 85.29 1.69 88.56 -2.5 91.84 1.15 95.12 .69 98.4 -2.17 101.68 1.69 104.96 .72 108.24 -.7 111.52 -1.1 114.8 .35 118.08 .33 121.36 -1.96 124.64 1.96 127.92 -1.05 131.2 -.97 134.48 -1.81 137.76 -1.11 141.04 .34 144.33 .64 147.61 1.48 150.89 1.44 154.17 -.56 157.45 -1.36 160.74 1.75 164.02 -1.12 167.3 .7 170.59 2.27 173.87 -2.01 177.15 -1.97 180.44 1.32 183.72 1.16 187 1.26 190.29 .76 193.57 -1.82 196.86 -1.13 200.14 -.06 203.42 2.04 206.7 2.55 209.99 -2.47 213.27 -.81 216.55 2.04 219.83 2.55 223.12 2.38 226.4 1.78 229.69 2.52 232.98 .97 236.27 .15 239.55 .11 242.84 1.64 246.12 1.81 249.41 .57 252.71 .11 257.17 -1.18 254.6 3.28 258.42 6.56 257.55 9.84 256.13 13.12 255.03 16.4 254.94 19.68 255.72 22.96 258.23 26.24 256.94 29.53 255.25 32.81 257.13 36.09 258.27 39.37 254.69 42.65 258.18 45.93 256.65 49.21 253.77 52.49 255.27 55.77 254.47 59.05 258.4 62.33 255.23 65.61 253.98 68.9 257.44 72.18 254.34 75.46 256.52 78.73 254.19 82.01 253.73 85.29 254.46 88.56 254.25 91.84 257.31 95.12 255.85 98.4 255.52 101.68 253.67 104.96 254.94 108.24 257.31 111.52 257.92 114.8 257.4 118.08 256.95 121.36 256.59 124.64 258.54 127.92 256.29 131.2 254.04 134.48 258.09 137.76 257.47 141.04 254.62 144.33 256.36 147.61 257.99 150.89 257.65 154.17 256.85 157.45 255.38 160.74 255.92 164.02 254.47 167.3 258.27 170.59 255.72 173.87 254.39 177.15 255.6 180.44 253.85 183.72 254.84 187 256.26 190.29 256.65 193.57 256.43 196.86 256 200.14 257.99 203.42 253.77 206.7 256.64 209.99 253.62 213.27 253.99 216.55 254.53 219.83 253.9 223.12 256.07 226.4 254.96 229.69 255.83 232.98 255.06 236.27 254.37 239.55 253.77 242.84 257.37 246.12 257.46 249.41 258.03 252.71 254.72 254.73 252.72 254.07 249.44 256.23 246.16 255.36 242.88 255.2 239.6 255.46 236.32 256.75 233.04 255.34 229.76 254.9 226.47 254.78 223.19 255.47 219.91 258.11 216.63 253.93 213.35 257.42 210.07 256.87 206.79 254.85 203.51 255.7 200.23 255.62 196.95 253.92 193.67 257.72 190.39 253.67 187.1 253.76 183.82 255.39 180.54 255.89 177.27 254.19 173.99 256.93 170.71 256.32 167.44 256.9 164.16 258.44 160.88 255.39 157.6 255.8 154.32 258.27 151.04 257.36 147.76 255.76 144.48 254.05 141.2 257.56 137.92 255.05 134.64 258.55 131.36 256.04 128.08 258.03 124.8 256.8 121.52 258.42 118.24 254.93 114.96 255.67 111.67 257.83 108.39 253.82 105.11 258.08 101.83 256.66 98.55 255.79 95.26 255.33 91.98 257.34 88.7 254.64 85.41 256.64 82.13 253.8 78.85 257.7 75.56 258.14 72.28 256.01 69 255.35 65.71 255.61 62.43 256.25 59.14 257.68 55.86 257.31 52.58 255.43 49.3 253.91 46.01 255.16 42.73 256.75 39.45 256.45 36.17 254.88 32.88 258.37 29.6 257.85 26.31 257.82 23.02 256.97 19.73 255.5 16.45 257.23 13.16 254.9 9.88 255.36 6.59 253.65 3.29 255.22 1.57 254.43 -1.37 252.72 -1.56 249.44 -.94 246.16 -1.1 242.88 -2.17 239.6 -2.21 236.32 1.06 233.04 -2.13 229.76 -1.69 226.47 1.37 223.19 1.65 219.91 -1.59 216.63 -2.11 213.35 -1.73 210.07 .39 206.79 -2.48 203.51 .64 200.23 -2.51 196.95 .3 193.67 -2.21 190.39 -.42 187.1 -2.01 183.82 1.3 180.54 1.02 177.27 2.2 173.99 1.76 170.71 -.8 167.44 -.9 164.16 .43 160.88 -1.93 157.6 -1.7 154.32 1.5 151.04 -.28 147.76 -1.89 144.48 2.26 141.2 -1.68 137.92 -1.3 134.64 2.16 131.36 1.57 128.08 .62 124.8 -1.87 121.52 -1.22 118.24 -.73 114.96 .43 111.67 2.41 108.39 1.26 105.11 .91 101.83 -2.27 98.55 .08 95.26 .6 91.98 .08 88.7 -2.12 85.41 -.68 82.13 -1.18 78.85 -1.63 75.56 -1.18 72.28 2.45 69 2.13 65.71 -1.12 62.43 -.25 59.14 .5 55.86 -.67 52.58 1.7 49.3 -.84 46.01 -.05 42.73 -.39 39.45 2.06 36.17 -1.29 32.88 -1.2 29.6 1.47 26.31 -.72 23.02 1.24 19.73 .87 16.45 -2.32 13.16 1.46 9.88 -1.08 6.59 .9 3.14 -1.39 -1.38"/>
    </g>
    <g class="st7">
      <g>
        <rect class="st1" x="8" y="12" width="8" height="8"/>
        <rect class="st1" x="40" y="24" width="8" height="8"/>
        <rect class="st1" x="72" y="16" width="8" height="8"/>
        <rect class="st1" x="104" y="32" width="8" height="8"/>
        <rect class="st1" x="136" y="20" width="8" height="8"/>
        <rect class="st1" x="168" y="36" width="8" height="8"/>
        <rect class="st1" x="200" y="18" width="8" height="8"/>
        <rect class="st1" x="224" y="30" width="8" height="8"/>
        <rect class="st1" x="20" y="76" width="8" height="8"/>
        <rect class="st1" x="56" y="60" width="8" height="8"/>
        <rect class="st1" x="88" y="84" width="8" height="8"/>
        <rect class="st1" x="120" y="72" width="8" height="8"/>
        <rect class="st1" x="156" y="64" width="8" height="8"/>
        <rect class="st1" x="188" y="80" width="8" height="8"/>
        <rect class="st1" x="220" y="72" width="8" height="8"/>
        <rect class="st1" x="12" y="136" width="8" height="8"/>
        <rect class="st1" x="44" y="148" width="8" height="8"/>
        <rect class="st1" x="84" y="132" width="8" height="8"/>
        <rect class="st1" x="116" y="156" width="8" height="8"/>
        <rect class="st1" x="148" y="140" width="8" height="8"/>
        <rect class="st1" x="176" y="152" width="8" height="8"/>
        <rect class="st1" x="208" y="136" width="8" height="8"/>
        <rect class="st1" x="232" y="152" width="8" height="8"/>
        <rect class="st1" x="28" y="212" width="8" height="8"/>
        <rect class="st1" x="64" y="200" width="8" height="8"/>
        <rect class="st1" x="92" y="220" width="8" height="8"/>
        <rect class="st1" x="128" y="204" width="8" height="8"/>
        <rect class="st1" x="160" y="224" width="8" height="8"/>
        <rect class="st1" x="192" y="206" width="8" height="8"/>
        <rect class="st1" x="220" y="226" width="8" height="8"/>
      </g>
      <g class="st8">
        <rect class="st11" x="24" y="16" width="8" height="8"/>
        <rect class="st11" x="60" y="28" width="8" height="8"/>
        <rect class="st11" x="92" y="20" width="8" height="8"/>
        <rect class="st11" x="124" y="40" width="8" height="8"/>
        <rect class="st11" x="156" y="24" width="8" height="8"/>
        <rect class="st11" x="188" y="44" width="8" height="8"/>
        <rect class="st11" x="216" y="22" width="8" height="8"/>
        <rect class="st11" x="36" y="92" width="8" height="8"/>
        <rect class="st11" x="76" y="72" width="8" height="8"/>
        <rect class="st11" x="108" y="96" width="8" height="8"/>
        <rect class="st11" x="144" y="84" width="8" height="8"/>
        <rect class="st11" x="176" y="100" width="8" height="8"/>
        <rect class="st11" x="204" y="88" width="8" height="8"/>
        <rect class="st11" x="24" y="168" width="8" height="8"/>
        <rect class="st11" x="60" y="156" width="8" height="8"/>
        <rect class="st11" x="96" y="172" width="8" height="8"/>
        <rect class="st11" x="132" y="160" width="8" height="8"/>
        <rect class="st11" x="164" y="176" width="8" height="8"/>
        <rect class="st11" x="196" y="164" width="8" height="8"/>
        <rect class="st11" x="52" y="232" width="8" height="8"/>
        <rect class="st11" x="116" y="232" width="8" height="8"/>
        <rect class="st11" x="180" y="236" width="8" height="8"/>
      </g>
    </g>
    <g>
      <g>
        <rect class="st5" x="24" y="12" width="16" height="8"/>
        <rect class="st5" x="16" y="20" width="32" height="16"/>
        <rect class="st5" x="24" y="36" width="16" height="8"/>
      </g>
      <g>
        <rect class="st0" x="24" y="20" width="16" height="16"/>
        <rect class="st0" x="20" y="24" width="24" height="8"/>
      </g>
      <g>
        <rect class="st9" x="36" y="28" width="8" height="8"/>
        <rect class="st9" x="32" y="32" width="12" height="4"/>
      </g>
      <g>
        <rect class="st10" x="24" y="24" width="4" height="8"/>
        <rect class="st10" x="28" y="24" width="4" height="4"/>
      </g>
      <g>
        <rect class="st2" x="28" y="8" width="8" height="4"/>
        <rect class="st2" x="24" y="12" width="4" height="4"/>
        <rect class="st2" x="36" y="12" width="4" height="4"/>
      </g>
      <rect class="st3" x="28" y="12" width="8" height="4"/>
    </g>
    <g>
      <g>
        <rect class="st5" x="160" y="52" width="16" height="8"/>
        <rect class="st5" x="152" y="60" width="32" height="16"/>
        <rect class="st5" x="160" y="76" width="16" height="8"/>
      </g>
      <g>
        <rect class="st0" x="160" y="60" width="16" height="16"/>
        <rect class="st0" x="156" y="64" width="24" height="8"/>
      </g>
      <g>
        <rect class="st9" x="172" y="68" width="8" height="8"/>
        <rect class="st9" x="168" y="72" width="12" height="4"/>
      </g>
      <g>
        <rect class="st10" x="160" y="64" width="4" height="8"/>
        <rect class="st10" x="164" y="64" width="4" height="4"/>
      </g>
      <g>
        <rect class="st2" x="164" y="48" width="8" height="4"/>
        <rect class="st2" x="160" y="52" width="4" height="4"/>
        <rect class="st2" x="172" y="52" width="4" height="4"/>
      </g>
      <rect class="st3" x="164" y="52" width="8" height="4"/>
    </g>
    <g>
      <g>
        <rect class="st5" x="76" y="118" width="16" height="8"/>
        <rect class="st5" x="68" y="126" width="32" height="16"/>
        <rect class="st5" x="76" y="142" width="16" height="8"/>
      </g>
      <g>
        <rect class="st0" x="76" y="126" width="16" height="16"/>
        <rect class="st0" x="72" y="130" width="24" height="8"/>
      </g>
      <g>
        <rect class="st9" x="88" y="134" width="8" height="8"/>
        <rect class="st9" x="84" y="138" width="12" height="4"/>
      </g>
      <g>
        <rect class="st10" x="76" y="130" width="4" height="8"/>
        <rect class="st10" x="80" y="130" width="4" height="4"/>
      </g>
      <g>
        <rect class="st2" x="80" y="114" width="8" height="4"/>
        <rect class="st2" x="76" y="118" width="4" height="4"/>
        <rect class="st2" x="88" y="118" width="4" height="4"/>
      </g>
      <rect class="st3" x="80" y="118" width="8" height="4"/>
    </g>
    <g>
      <g>
        <rect class="st5" x="196" y="154" width="16" height="8"/>
        <rect class="st5" x="188" y="162" width="32" height="16"/>
        <rect class="st5" x="196" y="178" width="16" height="8"/>
      </g>
      <g>
        <rect class="st0" x="196" y="162" width="16" height="16"/>
        <rect class="st0" x="192" y="166" width="24" height="8"/>
      </g>
      <g>
        <rect class="st9" x="208" y="170" width="8" height="8"/>
        <rect class="st9" x="204" y="174" width="12" height="4"/>
      </g>
      <g>
        <rect class="st10" x="196" y="166" width="4" height="8"/>
        <rect class="st10" x="200" y="166" width="4" height="4"/>
      </g>
      <g>
        <rect class="st2" x="200" y="150" width="8" height="4"/>
        <rect class="st2" x="196" y="154" width="4" height="4"/>
        <rect class="st2" x="208" y="154" width="4" height="4"/>
      </g>
      <rect class="st3" x="200" y="154" width="8" height="4"/>
    </g>
    <g>
      <g>
        <rect class="st5" x="36" y="167" width="8" height="4"/>
        <rect class="st5" x="32" y="171" width="16" height="8"/>
        <rect class="st5" x="36" y="179" width="8" height="4"/>
      </g>
      <g>
        <rect class="st0" x="36" y="171" width="8" height="8"/>
        <rect class="st0" x="34" y="173" width="12" height="4"/>
      </g>
      <rect class="st9" x="42" y="175" width="4" height="4"/>
      <rect class="st2" x="38" y="165" width="4" height="2"/>
    </g>
    <g>
      <g>
        <rect class="st5" x="212" y="96" width="8" height="4"/>
        <rect class="st5" x="208" y="100" width="16" height="8"/>
        <rect class="st5" x="212" y="108" width="8" height="4"/>
      </g>
      <g>
        <rect class="st0" x="212" y="100" width="8" height="8"/>
        <rect class="st0" x="210" y="102" width="12" height="4"/>
      </g>
      <rect class="st9" x="218" y="104" width="4" height="4"/>
      <rect class="st2" x="214" y="94" width="4" height="2"/>
    </g>
    <g>
      <g>
        <rect class="st5" x="120" y="12" width="16" height="8"/>
        <rect class="st5" x="112" y="20" width="32" height="16"/>
        <rect class="st5" x="120" y="36" width="16" height="8"/>
      </g>
      <g>
        <rect class="st0" x="120" y="20" width="16" height="16"/>
        <rect class="st0" x="116" y="24" width="24" height="8"/>
      </g>
      <g>
        <rect class="st9" x="132" y="28" width="8" height="8"/>
        <rect class="st9" x="128" y="32" width="12" height="4"/>
      </g>
      <g>
        <rect class="st10" x="120" y="24" width="4" height="8"/>
        <rect class="st10" x="124" y="24" width="4" height="4"/>
      </g>
      <g>
        <rect class="st2" x="124" y="8" width="8" height="4"/>
        <rect class="st2" x="120" y="12" width="4" height="4"/>
        <rect class="st2" x="132" y="12" width="4" height="4"/>
      </g>
      <rect class="st3" x="124" y="12" width="8" height="4"/>
    </g>
    <g>
      <g>
        <rect class="st5" x="110" y="214" width="16" height="8"/>
        <rect class="st5" x="102" y="222" width="32" height="16"/>
        <rect class="st5" x="110" y="238" width="16" height="8"/>
      </g>
      <g>
        <rect class="st0" x="110" y="222" width="16" height="16"/>
        <rect class="st0" x="106" y="226" width="24" height="8"/>
      </g>
      <g>
        <rect class="st9" x="122" y="230" width="8" height="8"/>
        <rect class="st9" x="118" y="234" width="12" height="4"/>
      </g>
      <g>
        <rect class="st10" x="110" y="226" width="4" height="8"/>
        <rect class="st10" x="114" y="226" width="4" height="4"/>
      </g>
      <g>
        <rect class="st2" x="114" y="210" width="8" height="4"/>
        <rect class="st2" x="110" y="214" width="4" height="4"/>
        <rect class="st2" x="122" y="214" width="4" height="4"/>
      </g>
      <rect class="st3" x="114" y="214" width="8" height="4"/>
    </g>
    <g>
      <g>
        <rect class="st5" x="40" y="70" width="16" height="8"/>
        <rect class="st5" x="32" y="78" width="32" height="16"/>
        <rect class="st5" x="40" y="94" width="16" height="8"/>
      </g>
      <g>
        <rect class="st0" x="40" y="78" width="16" height="16"/>
        <rect class="st0" x="36" y="82" width="24" height="8"/>
      </g>
      <g>
        <rect class="st9" x="52" y="86" width="8" height="8"/>
        <rect class="st9" x="48" y="90" width="12" height="4"/>
      </g>
      <g>
        <rect class="st10" x="40" y="82" width="4" height="8"/>
        <rect class="st10" x="44" y="82" width="4" height="4"/>
      </g>
      <g>
        <rect class="st2" x="44" y="66" width="8" height="4"/>
        <rect class="st2" x="40" y="70" width="4" height="4"/>
        <rect class="st2" x="52" y="70" width="4" height="4"/>
      </g>
      <rect class="st3" x="44" y="70" width="8" height="4"/>
    </g>
    <g>
      <g>
        <rect class="st5" x="156" y="116" width="16" height="8"/>
        <rect class="st5" x="148" y="124" width="32" height="16"/>
        <rect class="st5" x="156" y="140" width="16" height="8"/>
      </g>
      <g>
        <rect class="st0" x="156" y="124" width="16" height="16"/>
        <rect class="st0" x="152" y="128" width="24" height="8"/>
      </g>
      <g>
        <rect class="st9" x="168" y="132" width="8" height="8"/>
        <rect class="st9" x="164" y="136" width="12" height="4"/>
      </g>
      <g>
        <rect class="st10" x="156" y="128" width="4" height="8"/>
        <rect class="st10" x="160" y="128" width="4" height="4"/>
      </g>
      <g>
        <rect class="st2" x="160" y="112" width="8" height="4"/>
        <rect class="st2" x="156" y="116" width="4" height="4"/>
        <rect class="st2" x="168" y="116" width="4" height="4"/>
      </g>
      <rect class="st3" x="160" y="116" width="8" height="4"/>
    </g>
    <g>
      <g>
        <rect class="st5" x="220" y="214" width="16" height="8"/>
        <rect class="st5" x="212" y="222" width="32" height="16"/>
        <rect class="st5" x="220" y="238" width="16" height="8"/>
      </g>
      <g>
        <rect class="st0" x="220" y="222" width="16" height="16"/>
        <rect class="st0" x="216" y="226" width="24" height="8"/>
      </g>
      <g>
        <rect class="st9" x="232" y="230" width="8" height="8"/>
        <rect class="st9" x="228" y="234" width="12" height="4"/>
      </g>
      <g>
        <rect class="st10" x="220" y="226" width="4" height="8"/>
        <rect class="st10" x="224" y="226" width="4" height="4"/>
      </g>
      <g>
        <rect class="st2" x="224" y="210" width="8" height="4"/>
        <rect class="st2" x="220" y="214" width="4" height="4"/>
        <rect class="st2" x="232" y="214" width="4" height="4"/>
      </g>
      <rect class="st3" x="224" y="214" width="8" height="4"/>
    </g>
    <g>
      <g>
        <rect class="st5" x="164" y="212" width="16" height="8"/>
        <rect class="st5" x="156" y="220" width="32" height="16"/>
        <rect class="st5" x="164" y="236" width="16" height="8"/>
      </g>
      <g>
        <rect class="st0" x="164" y="220" width="16" height="16"/>
        <rect class="st0" x="160" y="224" width="24" height="8"/>
      </g>
      <g>
        <rect class="st9" x="176" y="228" width="8" height="8"/>
        <rect class="st9" x="172" y="232" width="12" height="4"/>
      </g>
      <g>
        <rect class="st10" x="164" y="224" width="4" height="8"/>
        <rect class="st10" x="168" y="224" width="4" height="4"/>
      </g>
      <g>
        <rect class="st2" x="168" y="208" width="8" height="4"/>
        <rect class="st2" x="164" y="212" width="4" height="4"/>
        <rect class="st2" x="176" y="212" width="4" height="4"/>
      </g>
      <rect class="st3" x="168" y="212" width="8" height="4"/>
    </g>
    <g>
      <g>
        <rect class="st5" x="108" y="156" width="16" height="8"/>
        <rect class="st5" x="100" y="164" width="32" height="16"/>
        <rect class="st5" x="108" y="180" width="16" height="8"/>
      </g>
      <g>
        <rect class="st0" x="108" y="164" width="16" height="16"/>
        <rect class="st0" x="104" y="168" width="24" height="8"/>
      </g>
      <g>
        <rect class="st9" x="120" y="172" width="8" height="8"/>
        <rect class="st9" x="116" y="176" width="12" height="4"/>
      </g>
      <g>
        <rect class="st10" x="108" y="168" width="4" height="8"/>
        <rect class="st10" x="112" y="168" width="4" height="4"/>
      </g>
      <g>
        <rect class="st2" x="112" y="152" width="8" height="4"/>
        <rect class="st2" x="108" y="156" width="4" height="4"/>
        <rect class="st2" x="120" y="156" width="4" height="4"/>
      </g>
      <rect class="st3" x="112" y="156" width="8" height="4"/>
    </g>
    <g>
      <g>
        <rect class="st5" x="28" y="212" width="16" height="8"/>
        <rect class="st5" x="20" y="220" width="32" height="16"/>
        <rect class="st5" x="28" y="236" width="16" height="8"/>
      </g>
      <g>
        <rect class="st0" x="28" y="220" width="16" height="16"/>
        <rect class="st0" x="24" y="224" width="24" height="8"/>
      </g>
      <g>
        <rect class="st9" x="40" y="228" width="8" height="8"/>
        <rect class="st9" x="36" y="232" width="12" height="4"/>
      </g>
      <g>
        <rect class="st10" x="28" y="224" width="4" height="8"/>
        <rect class="st10" x="32" y="224" width="4" height="4"/>
      </g>
      <g>
        <rect class="st2" x="32" y="208" width="8" height="4"/>
        <rect class="st2" x="28" y="212" width="4" height="4"/>
        <rect class="st2" x="40" y="212" width="4" height="4"/>
      </g>
      <rect class="st3" x="32" y="212" width="8" height="4"/>
    </g>
    <g>
      <g>
        <rect class="st5" x="88" y="46" width="16" height="8"/>
        <rect class="st5" x="80" y="54" width="32" height="16"/>
        <rect class="st5" x="88" y="70" width="16" height="8"/>
      </g>
      <g>
        <rect class="st0" x="88" y="54" width="16" height="16"/>
        <rect class="st0" x="84" y="58" width="24" height="8"/>
      </g>
      <g>
        <rect class="st9" x="100" y="62" width="8" height="8"/>
        <rect class="st9" x="96" y="66" width="12" height="4"/>
      </g>
      <g>
        <rect class="st10" x="88" y="58" width="4" height="8"/>
        <rect class="st10" x="92" y="58" width="4" height="4"/>
      </g>
      <g>
        <rect class="st2" x="92" y="42" width="8" height="4"/>
        <rect class="st2" x="88" y="46" width="4" height="4"/>
        <rect class="st2" x="100" y="46" width="4" height="4"/>
      </g>
      <rect class="st3" x="92" y="46" width="8" height="4"/>
    </g>
    <g>
      <g>
        <rect class="st5" x="216" y="18" width="16" height="8"/>
        <rect class="st5" x="208" y="26" width="32" height="16"/>
        <rect class="st5" x="216" y="42" width="16" height="8"/>
      </g>
      <g>
        <rect class="st0" x="216" y="26" width="16" height="16"/>
        <rect class="st0" x="212" y="30" width="24" height="8"/>
      </g>
      <g>
        <rect class="st9" x="228" y="34" width="8" height="8"/>
        <rect class="st9" x="224" y="38" width="12" height="4"/>
      </g>
      <g>
        <rect class="st10" x="216" y="30" width="4" height="8"/>
        <rect class="st10" x="220" y="30" width="4" height="4"/>
      </g>
      <g>
        <rect class="st2" x="220" y="14" width="8" height="4"/>
        <rect class="st2" x="216" y="18" width="4" height="4"/>
        <rect class="st2" x="228" y="18" width="4" height="4"/>
      </g>
      <rect class="st3" x="220" y="18" width="8" height="4"/>
    </g>
    <g>
      <g>
        <rect class="st5" x="160" y="178" width="8" height="4"/>
        <rect class="st5" x="156" y="182" width="16" height="8"/>
        <rect class="st5" x="160" y="190" width="8" height="4"/>
      </g>
      <g>
        <rect class="st0" x="160" y="182" width="8" height="8"/>
        <rect class="st0" x="158" y="184" width="12" height="4"/>
      </g>
      <rect class="st9" x="166" y="186" width="4" height="4"/>
      <rect class="st2" x="162" y="176" width="4" height="2"/>
    </g>
    <g>
      <g>
        <rect class="st5" x="230" y="131" width="8" height="4"/>
        <rect class="st5" x="226" y="135" width="16" height="8"/>
        <rect class="st5" x="230" y="143" width="8" height="4"/>
      </g>
      <g>
        <rect class="st0" x="230" y="135" width="8" height="8"/>
        <rect class="st0" x="228" y="137" width="12" height="4"/>
      </g>
      <rect class="st9" x="236" y="139" width="4" height="4"/>
      <rect class="st2" x="232" y="129" width="4" height="2"/>
    </g>
    <g>
      <g>
        <rect class="st5" x="16" y="113" width="16" height="8"/>
        <rect class="st5" x="8" y="121" width="32" height="16"/>
        <rect class="st5" x="16" y="137" width="16" height="8"/>
      </g>
      <g>
        <rect class="st0" x="16" y="121" width="16" height="16"/>
        <rect class="st0" x="12" y="125" width="24" height="8"/>
      </g>
      <g>
        <rect class="st9" x="28" y="129" width="8" height="8"/>
        <rect class="st9" x="24" y="133" width="12" height="4"/>
      </g>
      <g>
        <rect class="st10" x="16" y="125" width="4" height="8"/>
        <rect class="st10" x="20" y="125" width="4" height="4"/>
      </g>
      <g>
        <rect class="st2" x="20" y="109" width="8" height="4"/>
        <rect class="st2" x="16" y="113" width="4" height="4"/>
        <rect class="st2" x="28" y="113" width="4" height="4"/>
      </g>
      <rect class="st3" x="20" y="113" width="8" height="4"/>
    </g>
    <g>
      <g>
        <rect class="st5" x="122" y="106" width="8" height="4"/>
        <rect class="st5" x="118" y="110" width="16" height="8"/>
        <rect class="st5" x="122" y="118" width="8" height="4"/>
      </g>
      <g>
        <rect class="st0" x="122" y="110" width="8" height="8"/>
        <rect class="st0" x="120" y="112" width="12" height="4"/>
      </g>
      <rect class="st9" x="128" y="114" width="4" height="4"/>
      <rect class="st2" x="124" y="104" width="4" height="2"/>
    </g>
    <g>
      <g>
        <rect class="st5" x="72" y="188" width="16" height="8"/>
        <rect class="st5" x="64" y="196" width="32" height="16"/>
        <rect class="st5" x="72" y="212" width="16" height="8"/>
      </g>
      <g>
        <rect class="st0" x="72" y="196" width="16" height="16"/>
        <rect class="st0" x="68" y="200" width="24" height="8"/>
      </g>
      <g>
        <rect class="st9" x="84" y="204" width="8" height="8"/>
        <rect class="st9" x="80" y="208" width="12" height="4"/>
      </g>
      <g>
        <rect class="st10" x="72" y="200" width="4" height="8"/>
        <rect class="st10" x="76" y="200" width="4" height="4"/>
      </g>
      <g>
        <rect class="st2" x="76" y="184" width="8" height="4"/>
        <rect class="st2" x="72" y="188" width="4" height="4"/>
        <rect class="st2" x="84" y="188" width="4" height="4"/>
      </g>
      <rect class="st3" x="76" y="188" width="8" height="4"/>
    </g>
  </g>
</svg>