<?xml version="1.0" encoding="UTF-8"?>
<svg id="Layer_1" xmlns="http://www.w3.org/2000/svg" version="1.1" viewBox="0 0 256 256">
  <!-- Generator: Adobe Illustrator 29.6.1, SVG Export Plug-In . SVG Version: 2.1.1 Build 9)  -->
  <defs>
    <style>
      .st0, .st1, .st2, .st3, .st4, .st5, .st6, .st7, .st8, .st9 {
        fill: none;
        stroke-miterlimit: 10;
      }

      .st0, .st1, .st2, .st3, .st4, .st6, .st7, .st8, .st9 {
        stroke-linecap: round;
      }

      .st0, .st7, .st8, .st9 {
        stroke: #ff0;
      }

      .st1, .st2, .st3, .st4, .st6 {
        stroke: #3c2415;
      }

      .st1, .st9 {
        stroke-width: 1.03px;
      }

      .st2, .st8 {
        stroke-width: .68px;
      }

      .st3, .st7 {
        stroke-width: .63px;
      }

      .st4 {
        stroke-width: .6px;
      }

      .st10 {
        fill: #e6c15a;
      }

      .st5 {
        stroke: #000;
      }

      .st11 {
        opacity: .9;
      }

      .st12 {
        opacity: .4;
      }

      .st13 {
        fill: #f1d37a;
      }

      .st14 {
        fill: #d1aa45;
      }
    </style>
  </defs>
  <g>
    <polygon class="st10" points="-.63 -.63 7.11 -2.55 14.22 -2.5 21.33 -1.32 28.44 2.42 35.55 -2.51 42.66 .75 49.77 2.22 56.87 -.39 63.98 2.42 71.09 1.98 78.2 -2.04 85.3 1.89 92.41 -.02 99.52 2.02 106.63 -1.76 113.74 2.44 120.85 -.44 127.96 -.06 135.07 .23 142.18 1.31 149.29 -.63 156.4 2.19 163.52 -.82 170.63 .45 177.74 .84 184.85 -1.52 191.97 -.44 199.08 2.16 206.19 -1.04 213.3 -2.55 220.41 -2.32 227.53 .49 234.64 -2.12 241.76 -1.99 248.88 -1.1 256.96 -.96 255.12 7.11 256.23 14.22 253.74 21.33 254.81 28.44 257.7 35.55 256.09 42.66 255.81 49.77 257.35 56.87 256.02 63.98 257.83 71.09 258.32 78.2 255.24 85.3 258.51 92.41 257.8 99.52 254.44 106.63 258.07 113.74 256.01 120.85 254.73 127.96 256.62 135.07 256.95 142.18 257.7 149.29 254.74 156.4 254.45 163.52 256.19 170.63 255.04 177.74 253.66 184.85 253.63 191.97 257.05 199.08 253.96 206.19 254.24 213.3 255.86 220.41 257.67 227.53 257.14 234.64 255.84 241.76 257.44 248.88 254.52 254.53 248.89 254.7 241.78 253.77 234.67 254.36 227.56 254.23 220.45 253.6 213.34 257.41 206.23 254.89 199.13 257.3 192.02 255.66 184.91 256.99 177.8 256.84 170.7 256.82 163.59 255.36 156.48 255.46 149.37 256.88 142.26 258.11 135.15 254.44 128.04 254.52 120.93 254.24 113.82 258.06 106.71 256.95 99.6 254.8 92.48 254.87 85.37 255.19 78.26 257.02 71.15 256.64 64.03 253.7 56.92 256.7 49.81 254.85 42.7 254.87 35.59 257.25 28.47 257.02 21.36 256.72 14.24 254.9 7.12 257.8 -.84 256.84 2.36 248.89 -1.71 241.78 -1.29 234.67 2.51 227.56 -1.34 220.45 -.04 213.34 -1.07 206.23 1.53 199.13 1.05 192.02 -.22 184.91 .52 177.8 1.25 170.7 2.55 163.59 .83 156.48 -.5 149.37 .66 142.26 1.39 135.15 2.38 128.04 1.63 120.93 2.01 113.82 1.24 106.71 .43 99.6 1.92 92.48 1.79 85.37 -2.51 78.26 -2.09 71.15 -.56 64.03 -1.35 56.92 -1.48 49.81 -2.53 42.7 -2.29 35.59 .21 28.47 .59 21.36 -1.46 14.24 .32 7.11 -.63 -.63"/>
    <polygon class="st5" points="-.63 -.63 7.11 -2.55 14.22 -2.5 21.33 -1.32 28.44 2.42 35.55 -2.51 42.66 .75 49.77 2.22 56.87 -.39 63.98 2.42 71.09 1.98 78.2 -2.04 85.3 1.89 92.41 -.02 99.52 2.02 106.63 -1.76 113.74 2.44 120.85 -.44 127.96 -.06 135.07 .23 142.18 1.31 149.29 -.63 156.4 2.19 163.52 -.82 170.63 .45 177.74 .84 184.85 -1.52 191.97 -.44 199.08 2.16 206.19 -1.04 213.3 -2.55 220.41 -2.32 227.53 .49 234.64 -2.12 241.76 -1.99 248.88 -1.1 256.96 -.96 255.12 7.11 256.23 14.22 253.74 21.33 254.81 28.44 257.7 35.55 256.09 42.66 255.81 49.77 257.35 56.87 256.02 63.98 257.83 71.09 258.32 78.2 255.24 85.3 258.51 92.41 257.8 99.52 254.44 106.63 258.07 113.74 256.01 120.85 254.73 127.96 256.62 135.07 256.95 142.18 257.7 149.29 254.74 156.4 254.45 163.52 256.19 170.63 255.04 177.74 253.66 184.85 253.63 191.97 257.05 199.08 253.96 206.19 254.24 213.3 255.86 220.41 257.67 227.53 257.14 234.64 255.84 241.76 257.44 248.88 254.52 254.53 248.89 254.7 241.78 253.77 234.67 254.36 227.56 254.23 220.45 253.6 213.34 257.41 206.23 254.89 199.13 257.3 192.02 255.66 184.91 256.99 177.8 256.84 170.7 256.82 163.59 255.36 156.48 255.46 149.37 256.88 142.26 258.11 135.15 254.44 128.04 254.52 120.93 254.24 113.82 258.06 106.71 256.95 99.6 254.8 92.48 254.87 85.37 255.19 78.26 257.02 71.15 256.64 64.03 253.7 56.92 256.7 49.81 254.85 42.7 254.87 35.59 257.25 28.47 257.02 21.36 256.72 14.24 254.9 7.12 257.8 -.84 256.84 2.36 248.89 -1.71 241.78 -1.29 234.67 2.51 227.56 -1.34 220.45 -.04 213.34 -1.07 206.23 1.53 199.13 1.05 192.02 -.22 184.91 .52 177.8 1.25 170.7 2.55 163.59 .83 156.48 -.5 149.37 .66 142.26 1.39 135.15 2.38 128.04 1.63 120.93 2.01 113.82 1.24 106.71 .43 99.6 1.92 92.48 1.79 85.37 -2.51 78.26 -2.09 71.15 -.56 64.03 -1.35 56.92 -1.48 49.81 -2.53 42.7 -2.29 35.59 .21 28.47 .59 21.36 -1.46 14.24 .32 7.11 -.63 -.63"/>
  </g>
  <g class="st11">
    <rect class="st14" x="28" y="32" width="3" height="8"/>
    <rect class="st13" x="34" y="34" width="3" height="8"/>
    <rect class="st14" x="40" y="36" width="3" height="8"/>
    <rect class="st14" x="92" y="30" width="3" height="9"/>
    <rect class="st13" x="98" y="32" width="3" height="9"/>
    <rect class="st14" x="104" y="34" width="3" height="9"/>
    <rect class="st14" x="164" y="36" width="3" height="8"/>
    <rect class="st13" x="170" y="38" width="3" height="8"/>
    <rect class="st14" x="176" y="40" width="3" height="8"/>
    <rect class="st14" x="44" y="78" width="3" height="9"/>
    <rect class="st13" x="50" y="80" width="3" height="9"/>
    <rect class="st14" x="56" y="82" width="3" height="9"/>
    <rect class="st14" x="120" y="76" width="3" height="8"/>
    <rect class="st13" x="126" y="78" width="3" height="8"/>
    <rect class="st14" x="132" y="80" width="3" height="8"/>
    <rect class="st14" x="190" y="84" width="3" height="8"/>
    <rect class="st13" x="196" y="86" width="3" height="8"/>
    <rect class="st14" x="202" y="88" width="3" height="8"/>
    <rect class="st14" x="30" y="132" width="3" height="9"/>
    <rect class="st13" x="36" y="134" width="3" height="9"/>
    <rect class="st14" x="42" y="136" width="3" height="9"/>
    <rect class="st14" x="96" y="140" width="3" height="8"/>
    <rect class="st13" x="102" y="142" width="3" height="8"/>
    <rect class="st14" x="108" y="144" width="3" height="8"/>
    <rect class="st14" x="172" y="134" width="3" height="9"/>
    <rect class="st13" x="178" y="136" width="3" height="9"/>
    <rect class="st14" x="184" y="138" width="3" height="9"/>
    <rect class="st14" x="60" y="188" width="3" height="8"/>
    <rect class="st13" x="66" y="190" width="3" height="8"/>
    <rect class="st14" x="72" y="192" width="3" height="8"/>
    <rect class="st14" x="138" y="182" width="3" height="9"/>
    <rect class="st13" x="144" y="184" width="3" height="9"/>
    <rect class="st14" x="150" y="186" width="3" height="9"/>
    <rect class="st14" x="206" y="190" width="3" height="8"/>
    <rect class="st13" x="212" y="192" width="3" height="8"/>
    <rect class="st14" x="218" y="194" width="3" height="8"/>
  </g>
  <g>
    <path class="st0" d="M17.3,14.14c2.66,3.49,4.04,7.78,5.2,12.02,2.56,9.34,4.3,18.9,5.21,28.54-.13-15.56,1.56-32.42,1.43-47.97"/>
    <path class="st0" d="M35.6,53.37c-1.04-14.79-.54-29.68,1.49-44.36"/>
    <path class="st0" d="M31.4,23.72v36.67c-1.08-.07-1.85-2.94-2.48-3.81-7.42-10.34-14.33-21.06-20.68-32.09"/>
    <path class="st0" d="M21.93,60.36c-3.73-15.84-12.24-31.1-10.67-47.3"/>
  </g>
  <g class="st12">
    <path class="st6" d="M19.9,11.39c2.66,3.49,4.04,7.78,5.2,12.02,2.56,9.34,4.3,18.9,5.21,28.54-.13-15.56,1.56-32.42,1.43-47.97"/>
    <path class="st6" d="M38.2,50.63c-1.04-14.79-.54-29.68,1.49-44.36"/>
    <path class="st6" d="M34,20.98v36.67c-1.08-.07-1.85-2.94-2.48-3.81-7.42-10.34-14.33-21.06-20.68-32.09"/>
    <path class="st6" d="M24.53,57.61c-3.73-15.84-12.24-31.1-10.67-47.3"/>
  </g>
  <g>
    <path class="st0" d="M155.29,174.95c2.66,3.49,4.04,7.78,5.2,12.02,2.56,9.34,4.3,18.9,5.21,28.54-.13-15.56,1.56-32.42,1.43-47.97"/>
    <path class="st0" d="M173.59,214.19c-1.04-14.79-.54-29.68,1.49-44.36"/>
    <path class="st0" d="M169.39,184.54v36.67c-1.08-.07-1.85-2.94-2.48-3.81-7.42-10.34-14.33-21.06-20.68-32.09"/>
    <path class="st0" d="M159.92,221.18c-3.73-15.84-12.24-31.1-10.67-47.3"/>
  </g>
  <g class="st12">
    <path class="st6" d="M157.89,172.21c2.66,3.49,4.04,7.78,5.2,12.02,2.56,9.34,4.3,18.9,5.21,28.54-.13-15.56,1.56-32.42,1.43-47.97"/>
    <path class="st6" d="M176.18,211.45c-1.04-14.79-.54-29.68,1.49-44.36"/>
    <path class="st6" d="M171.99,181.79v36.67c-1.08-.07-1.85-2.94-2.48-3.81-7.42-10.34-14.33-21.06-20.68-32.09"/>
    <path class="st6" d="M162.51,218.43c-3.73-15.84-12.24-31.1-10.67-47.3"/>
  </g>
  <g>
    <path class="st0" d="M40.33,142.16c2.66,3.49,4.04,7.78,5.2,12.02,2.56,9.34,4.3,18.9,5.21,28.54-.13-15.56,1.56-32.42,1.43-47.97"/>
    <path class="st0" d="M58.63,181.4c-1.04-14.79-.54-29.68,1.49-44.36"/>
    <path class="st0" d="M54.44,151.75v36.67c-1.08-.07-1.85-2.94-2.48-3.81-7.42-10.34-14.33-21.06-20.68-32.09"/>
    <path class="st0" d="M44.96,188.38c-3.73-15.84-12.24-31.1-10.67-47.3"/>
  </g>
  <g class="st12">
    <path class="st6" d="M42.93,139.42c2.66,3.49,4.04,7.78,5.2,12.02,2.56,9.34,4.3,18.9,5.21,28.54-.13-15.56,1.56-32.42,1.43-47.97"/>
    <path class="st6" d="M61.23,178.65c-1.04-14.79-.54-29.68,1.49-44.36"/>
    <path class="st6" d="M57.03,149v36.67c-1.08-.07-1.85-2.94-2.48-3.81-7.42-10.34-14.33-21.06-20.68-32.09"/>
    <path class="st6" d="M47.56,185.64c-3.73-15.84-12.24-31.1-10.67-47.3"/>
  </g>
  <g>
    <path class="st0" d="M120.83,99.36c2.66,3.49,4.04,7.78,5.2,12.02,2.56,9.34,4.3,18.9,5.21,28.54-.13-15.56,1.56-32.42,1.43-47.97"/>
    <path class="st0" d="M139.13,138.59c-1.04-14.79-.54-29.68,1.49-44.36"/>
    <path class="st0" d="M134.94,108.94v36.67c-1.08-.07-1.85-2.94-2.48-3.81-7.42-10.34-14.33-21.06-20.68-32.09"/>
    <path class="st0" d="M125.46,145.58c-3.73-15.84-12.24-31.1-10.67-47.3"/>
  </g>
  <g class="st12">
    <path class="st6" d="M123.43,96.61c2.66,3.49,4.04,7.78,5.2,12.02,2.56,9.34,4.3,18.9,5.21,28.54-.13-15.56,1.56-32.42,1.43-47.97"/>
    <path class="st6" d="M141.73,135.85c-1.04-14.79-.54-29.68,1.49-44.36"/>
    <path class="st6" d="M137.53,106.2v36.67c-1.08-.07-1.85-2.94-2.48-3.81-7.42-10.34-14.33-21.06-20.68-32.09"/>
    <path class="st6" d="M128.06,142.83c-3.73-15.84-12.24-31.1-10.67-47.3"/>
  </g>
  <g>
    <path class="st7" d="M71.54,64.64c1.67,2.2,2.54,4.9,3.27,7.56,1.61,5.88,2.71,11.9,3.28,17.96-.08-9.79.98-20.4.9-30.19"/>
    <path class="st7" d="M83.05,89.34c-.65-9.31-.34-18.68.94-27.92"/>
    <path class="st7" d="M80.41,70.68v23.08c-.68-.04-1.17-1.85-1.56-2.4-4.67-6.51-9.02-13.26-13.01-20.2"/>
    <path class="st7" d="M74.45,93.73c-2.35-9.97-7.7-19.57-6.71-29.77"/>
  </g>
  <g class="st12">
    <path class="st3" d="M73.17,62.91c1.67,2.2,2.54,4.9,3.27,7.56,1.61,5.88,2.71,11.9,3.28,17.96-.08-9.79.98-20.4.9-30.19"/>
    <path class="st3" d="M84.69,87.61c-.65-9.31-.34-18.68.94-27.92"/>
    <path class="st3" d="M82.05,68.95v23.08c-.68-.04-1.17-1.85-1.56-2.4-4.67-6.51-9.02-13.26-13.01-20.2"/>
    <path class="st3" d="M76.09,92.01c-2.35-9.97-7.7-19.57-6.71-29.77"/>
  </g>
  <g>
    <path class="st9" d="M212.03,21.95c-2.81,3.49-4.26,7.78-5.48,12.02-2.7,9.34-4.54,18.9-5.49,28.54.13-15.56-1.65-32.42-1.51-47.97"/>
    <path class="st9" d="M192.73,61.19c1.1-14.79.57-29.68-1.58-44.36"/>
    <path class="st9" d="M197.16,31.54v36.67c1.14-.07,1.95-2.94,2.62-3.81,7.83-10.34,15.11-21.06,21.81-32.09"/>
    <path class="st9" d="M207.15,68.18c3.93-15.84,12.91-31.1,11.25-47.3"/>
  </g>
  <g class="st12">
    <path class="st1" d="M209.29,19.21c-2.81,3.49-4.26,7.78-5.48,12.02-2.7,9.34-4.54,18.9-5.49,28.54.13-15.56-1.65-32.42-1.51-47.97"/>
    <path class="st1" d="M189.99,58.45c1.1-14.79.57-29.68-1.58-44.36"/>
    <path class="st1" d="M194.42,28.79v36.67c1.14-.07,1.95-2.94,2.62-3.81,7.83-10.34,15.11-21.06,21.81-32.09"/>
    <path class="st1" d="M204.41,65.43c3.93-15.84,12.91-31.1,11.25-47.3"/>
  </g>
  <g>
    <path class="st8" d="M223.27,93.85c-1.86,2.3-2.82,5.12-3.64,7.9-1.79,6.14-3.01,12.43-3.64,18.77.09-10.23-1.09-21.32-1-31.55"/>
    <path class="st8" d="M210.46,119.65c.73-9.72.38-19.52-1.05-29.17"/>
    <path class="st8" d="M213.4,100.16v24.11c.75-.05,1.3-1.93,1.74-2.51,5.19-6.8,10.02-13.85,14.47-21.1"/>
    <path class="st8" d="M220.03,124.25c2.61-10.42,8.56-20.45,7.46-31.1"/>
  </g>
  <g class="st12">
    <path class="st2" d="M221.45,92.05c-1.86,2.3-2.82,5.12-3.64,7.9-1.79,6.14-3.01,12.43-3.64,18.77.09-10.23-1.09-21.32-1-31.55"/>
    <path class="st2" d="M208.65,117.85c.73-9.72.38-19.52-1.05-29.17"/>
    <path class="st2" d="M211.58,98.35v24.11c.75-.05,1.3-1.93,1.74-2.51,5.19-6.8,10.02-13.85,14.47-21.1"/>
    <path class="st2" d="M218.21,122.44c2.61-10.42,8.56-20.45,7.46-31.1"/>
  </g>
  <g>
    <path class="st8" d="M221.06,201.42c-1.86,2.3-2.82,5.12-3.64,7.9-1.79,6.14-3.01,12.43-3.64,18.77.09-10.23-1.09-21.32-1-31.55"/>
    <path class="st8" d="M208.26,227.23c.73-9.72.38-19.52-1.05-29.17"/>
    <path class="st8" d="M211.19,207.73v24.11c.75-.05,1.3-1.93,1.74-2.51,5.19-6.8,10.02-13.85,14.47-21.1"/>
    <path class="st8" d="M217.82,231.82c2.61-10.42,8.56-20.45,7.46-31.1"/>
  </g>
  <g class="st12">
    <path class="st4" d="M220.36,201.69c-1.5,2.22-2.28,4.94-2.94,7.63-1.45,5.93-2.43,12-2.94,18.13.07-9.88-.88-20.59-.81-30.47"/>
    <path class="st4" d="M210.02,226.61c.59-9.39.3-18.85-.84-28.17"/>
    <path class="st4" d="M212.39,207.78v23.29c.61-.04,1.05-1.86,1.4-2.42,4.19-6.57,8.1-13.37,11.69-20.38"/>
    <path class="st4" d="M217.75,231.05c2.11-10.06,6.92-19.75,6.03-30.04"/>
  </g>
</svg>